%TF.GenerationSoftware,KiCad,Pcbnew,7.0.10*%
%TF.CreationDate,2025-09-05T15:35:01+01:00*%
%TF.ProjectId,solarCharger,736f6c61-7243-4686-9172-6765722e6b69,rev?*%
%TF.SameCoordinates,Original*%
%TF.FileFunction,Copper,L1,Top*%
%TF.FilePolarity,Positive*%
%FSLAX46Y46*%
G04 Gerber Fmt 4.6, Leading zero omitted, Abs format (unit mm)*
G04 Created by KiCad (PCBNEW 7.0.10) date 2025-09-05 15:35:01*
%MOMM*%
%LPD*%
G01*
G04 APERTURE LIST*
%TA.AperFunction,ComponentPad*%
%ADD10R,3.200000X3.200000*%
%TD*%
%TA.AperFunction,ComponentPad*%
%ADD11O,3.200000X3.200000*%
%TD*%
%TA.AperFunction,ComponentPad*%
%ADD12C,1.600000*%
%TD*%
%TA.AperFunction,ComponentPad*%
%ADD13C,1.800000*%
%TD*%
%TA.AperFunction,ComponentPad*%
%ADD14R,1.600000X1.600000*%
%TD*%
%TA.AperFunction,ComponentPad*%
%ADD15R,1.800000X1.800000*%
%TD*%
%TA.AperFunction,ComponentPad*%
%ADD16O,1.800000X1.800000*%
%TD*%
%TA.AperFunction,ComponentPad*%
%ADD17O,1.600000X1.600000*%
%TD*%
%TA.AperFunction,ComponentPad*%
%ADD18R,1.700000X1.700000*%
%TD*%
%TA.AperFunction,ComponentPad*%
%ADD19R,1.500000X1.050000*%
%TD*%
%TA.AperFunction,ComponentPad*%
%ADD20O,1.500000X1.050000*%
%TD*%
%TA.AperFunction,ComponentPad*%
%ADD21R,2.200000X2.200000*%
%TD*%
%TA.AperFunction,ComponentPad*%
%ADD22O,2.200000X2.200000*%
%TD*%
%TA.AperFunction,ComponentPad*%
%ADD23C,1.440000*%
%TD*%
%TA.AperFunction,ComponentPad*%
%ADD24C,2.200000*%
%TD*%
%TA.AperFunction,ComponentPad*%
%ADD25R,2.000000X2.000000*%
%TD*%
%TA.AperFunction,ComponentPad*%
%ADD26C,2.000000*%
%TD*%
%TA.AperFunction,ViaPad*%
%ADD27C,0.800000*%
%TD*%
%TA.AperFunction,Conductor*%
%ADD28C,0.500000*%
%TD*%
G04 APERTURE END LIST*
D10*
%TO.P,D4,1,K*%
%TO.N,Net-(D3-K)*%
X121920000Y-94740000D03*
D11*
%TO.P,D4,2,A*%
%TO.N,Net-(D4-A)*%
X106680000Y-94740000D03*
%TD*%
D12*
%TO.P,L3,1,1*%
%TO.N,Net-(D6-K)*%
X203849500Y-91503500D03*
%TO.P,L3,2,2*%
%TO.N,Net-(J10-Pin_1)*%
X216549500Y-91503500D03*
%TD*%
D13*
%TO.P,J8,1,Pin_1*%
%TO.N,Net-(D9-A)*%
X50800000Y-97280000D03*
%TO.P,J8,2,Pin_2*%
%TO.N,GND*%
X50800000Y-94740000D03*
%TD*%
D14*
%TO.P,C2,1*%
%TO.N,Net-(SW1-A)*%
X172720000Y-96520000D03*
D12*
%TO.P,C2,2*%
%TO.N,GND*%
X172720000Y-100020000D03*
%TD*%
D13*
%TO.P,J14,1,Pin_1*%
%TO.N,Net-(J1-Pin_1)*%
X149860000Y-111760000D03*
%TO.P,J14,2,Pin_2*%
%TO.N,Net-(D1-K)*%
X147320000Y-111760000D03*
%TD*%
D15*
%TO.P,U1,1,VIN*%
%TO.N,Net-(D7-K)*%
X81260000Y-106060000D03*
D16*
%TO.P,U1,2,OUT*%
%TO.N,Net-(D5-K)*%
X82960000Y-102360000D03*
%TO.P,U1,3,GND*%
%TO.N,GND*%
X84660000Y-106060000D03*
%TO.P,U1,4,FB*%
%TO.N,Net-(U1-FB)*%
X86360000Y-102360000D03*
%TO.P,U1,5,~{ON}/OFF*%
%TO.N,GND*%
X88060000Y-106060000D03*
%TD*%
D12*
%TO.P,R1,1*%
%TO.N,Net-(Q1-B)*%
X180340000Y-111760000D03*
D17*
%TO.P,R1,2*%
%TO.N,GND*%
X180340000Y-101600000D03*
%TD*%
D14*
%TO.P,C5,1*%
%TO.N,Net-(D7-K)*%
X82860000Y-115880000D03*
D12*
%TO.P,C5,2*%
%TO.N,GND*%
X86360000Y-115880000D03*
%TD*%
D10*
%TO.P,D8,1,K*%
%TO.N,Net-(D7-K)*%
X73660000Y-109980000D03*
D11*
%TO.P,D8,2,A*%
%TO.N,Net-(D8-A)*%
X58420000Y-109980000D03*
%TD*%
D10*
%TO.P,D3,1,K*%
%TO.N,Net-(D3-K)*%
X137160000Y-99820000D03*
D11*
%TO.P,D3,2,A*%
%TO.N,Net-(D1-K)*%
X137160000Y-115060000D03*
%TD*%
D10*
%TO.P,D9,1,K*%
%TO.N,Net-(D7-K)*%
X73660000Y-99820000D03*
D11*
%TO.P,D9,2,A*%
%TO.N,Net-(D9-A)*%
X58420000Y-99820000D03*
%TD*%
D18*
%TO.P,J13,1,Pin_1*%
%TO.N,Net-(J13-Pin_1)*%
X223520000Y-93980000D03*
%TD*%
D19*
%TO.P,Q2,1,C*%
%TO.N,Net-(J2-Pin_2)*%
X165100000Y-121920000D03*
D20*
%TO.P,Q2,2,B*%
%TO.N,Net-(D11-A)*%
X165100000Y-120650000D03*
%TO.P,Q2,3,E*%
%TO.N,Net-(J1-Pin_2)*%
X165100000Y-119380000D03*
%TD*%
D12*
%TO.P,R2,1*%
%TO.N,Net-(D1-K)*%
X129540000Y-122680000D03*
D17*
%TO.P,R2,2*%
%TO.N,Net-(D11-K)*%
X139700000Y-122680000D03*
%TD*%
D10*
%TO.P,D5,1,K*%
%TO.N,Net-(D5-K)*%
X96520000Y-109980000D03*
D11*
%TO.P,D5,2,A*%
%TO.N,GND*%
X96520000Y-94740000D03*
%TD*%
D13*
%TO.P,U3,1,Vcc*%
%TO.N,Net-(J5-Pin_1)*%
X225552000Y-102757500D03*
%TO.P,U3,2,D-*%
%TO.N,Net-(J13-Pin_1)*%
X225552000Y-105297500D03*
%TO.P,U3,3,D+*%
%TO.N,Net-(J12-Pin_1)*%
X225552000Y-107837500D03*
%TO.P,U3,4,GND*%
%TO.N,GND*%
X225552000Y-110377500D03*
%TD*%
D21*
%TO.P,D11,1,K*%
%TO.N,Net-(D11-K)*%
X144780000Y-122680000D03*
D22*
%TO.P,D11,2,A*%
%TO.N,Net-(D11-A)*%
X157480000Y-122680000D03*
%TD*%
D10*
%TO.P,D7,1,K*%
%TO.N,Net-(D7-K)*%
X73660000Y-120140000D03*
D11*
%TO.P,D7,2,A*%
%TO.N,Net-(D7-A)*%
X58420000Y-120140000D03*
%TD*%
D23*
%TO.P,RV5,1,1*%
%TO.N,Net-(J4-Pin_1)*%
X86360000Y-91440000D03*
%TO.P,RV5,2,2*%
%TO.N,Net-(U1-FB)*%
X83820000Y-91440000D03*
%TO.P,RV5,3,3*%
%TO.N,GND*%
X81280000Y-91440000D03*
%TD*%
D21*
%TO.P,D1,1,K*%
%TO.N,Net-(D1-K)*%
X119380000Y-122680000D03*
D22*
%TO.P,D1,2,A*%
%TO.N,Net-(D1-A)*%
X109220000Y-122680000D03*
%TD*%
D23*
%TO.P,RV1,1,1*%
%TO.N,Net-(J10-Pin_1)*%
X198120000Y-116840000D03*
%TO.P,RV1,2,2*%
%TO.N,Net-(U2-FB)*%
X195580000Y-116840000D03*
%TO.P,RV1,3,3*%
%TO.N,GND*%
X193040000Y-116840000D03*
%TD*%
D13*
%TO.P,J5,1,Pin_1*%
%TO.N,Net-(J5-Pin_1)*%
X208280000Y-121920000D03*
%TO.P,J5,2,Pin_2*%
%TO.N,Net-(J10-Pin_1)*%
X205740000Y-121920000D03*
%TD*%
D23*
%TO.P,RV2,1,1*%
%TO.N,GND*%
X218440000Y-116840000D03*
%TO.P,RV2,2,2*%
%TO.N,Net-(J12-Pin_1)*%
X218440000Y-114300000D03*
%TO.P,RV2,3,3*%
%TO.N,Net-(J10-Pin_1)*%
X218440000Y-111760000D03*
%TD*%
%TO.P,RV6,1,1*%
%TO.N,GND*%
X218440000Y-104140000D03*
%TO.P,RV6,2,2*%
%TO.N,Net-(J13-Pin_1)*%
X218440000Y-101600000D03*
%TO.P,RV6,3,3*%
%TO.N,Net-(J10-Pin_1)*%
X218440000Y-99060000D03*
%TD*%
D13*
%TO.P,J3,1,Pin_1*%
%TO.N,Net-(J1-Pin_2)*%
X160020000Y-111760000D03*
%TO.P,J3,2,Pin_2*%
%TO.N,Net-(J1-Pin_1)*%
X157480000Y-111760000D03*
%TD*%
D12*
%TO.P,L1,1,1*%
%TO.N,Net-(D5-K)*%
X92089500Y-116903500D03*
%TO.P,L1,2,2*%
%TO.N,Net-(J4-Pin_1)*%
X104789500Y-116903500D03*
%TD*%
D18*
%TO.P,J12,1,Pin_1*%
%TO.N,Net-(J12-Pin_1)*%
X223520000Y-121920000D03*
%TD*%
D13*
%TO.P,J6,1,Pin_1*%
%TO.N,Net-(D7-A)*%
X50800000Y-122680000D03*
%TO.P,J6,2,Pin_2*%
%TO.N,GND*%
X50800000Y-120140000D03*
%TD*%
D12*
%TO.P,R4,1*%
%TO.N,Net-(D1-A)*%
X185420000Y-121920000D03*
D17*
%TO.P,R4,2*%
%TO.N,Net-(Q1-B)*%
X185420000Y-111760000D03*
%TD*%
D19*
%TO.P,Q1,1,C*%
%TO.N,Net-(J1-Pin_2)*%
X170180000Y-112520000D03*
D20*
%TO.P,Q1,2,B*%
%TO.N,Net-(Q1-B)*%
X170180000Y-111250000D03*
%TO.P,Q1,3,E*%
%TO.N,GND*%
X170180000Y-109980000D03*
%TD*%
D24*
%TO.P,SW2,1,A*%
%TO.N,Net-(D4-A)*%
X121920000Y-104900000D03*
%TO.P,SW2,2,B*%
%TO.N,Net-(J4-Pin_1)*%
X121920000Y-109600000D03*
%TO.P,SW2,3,C*%
%TO.N,Net-(D1-A)*%
X121920000Y-114300000D03*
%TO.P,SW2,4,A*%
%TO.N,GND*%
X126720000Y-104900000D03*
%TO.P,SW2,5,B*%
%TO.N,Net-(J1-Pin_2)*%
X126720000Y-109600000D03*
%TO.P,SW2,6,C*%
%TO.N,unconnected-(SW2B-C-Pad6)*%
X126720000Y-114300000D03*
%TD*%
D25*
%TO.P,C1,1*%
%TO.N,Net-(J4-Pin_1)*%
X109220000Y-109900000D03*
D26*
%TO.P,C1,2*%
%TO.N,GND*%
X109220000Y-104900000D03*
%TD*%
D15*
%TO.P,U2,1,VIN*%
%TO.N,Net-(SW1-A)*%
X191880000Y-100740000D03*
D16*
%TO.P,U2,2,OUT*%
%TO.N,Net-(D6-K)*%
X195580000Y-102440000D03*
%TO.P,U2,3,GND*%
%TO.N,GND*%
X191880000Y-104140000D03*
%TO.P,U2,4,FB*%
%TO.N,Net-(U2-FB)*%
X195580000Y-105840000D03*
%TO.P,U2,5,~{ON}/OFF*%
%TO.N,GND*%
X191880000Y-107540000D03*
%TD*%
D25*
%TO.P,C3,1*%
%TO.N,Net-(J10-Pin_1)*%
X210740000Y-101600000D03*
D26*
%TO.P,C3,2*%
%TO.N,GND*%
X205740000Y-101600000D03*
%TD*%
D18*
%TO.P,J4,1,Pin_1*%
%TO.N,Net-(J4-Pin_1)*%
X99060000Y-122680000D03*
%TD*%
D13*
%TO.P,J1,1,Pin_1*%
%TO.N,Net-(J1-Pin_1)*%
X157480000Y-99820000D03*
%TO.P,J1,2,Pin_2*%
%TO.N,Net-(J1-Pin_2)*%
X160020000Y-99820000D03*
%TD*%
D18*
%TO.P,J9,1,Pin_1*%
%TO.N,GND*%
X185420000Y-104140000D03*
%TD*%
D24*
%TO.P,SW1,1,A*%
%TO.N,Net-(SW1-A)*%
X147320000Y-94360000D03*
%TO.P,SW1,2,B*%
%TO.N,Net-(D3-K)*%
X147320000Y-99060000D03*
%TD*%
D10*
%TO.P,D6,1,K*%
%TO.N,Net-(D6-K)*%
X195580000Y-91440000D03*
D11*
%TO.P,D6,2,A*%
%TO.N,GND*%
X180340000Y-91440000D03*
%TD*%
D18*
%TO.P,J10,1,Pin_1*%
%TO.N,Net-(J10-Pin_1)*%
X205740000Y-114300000D03*
%TD*%
D13*
%TO.P,J7,1,Pin_1*%
%TO.N,Net-(D8-A)*%
X50800000Y-109980000D03*
%TO.P,J7,2,Pin_2*%
%TO.N,GND*%
X50800000Y-107440000D03*
%TD*%
%TO.P,J2,1,Pin_1*%
%TO.N,Net-(D1-A)*%
X177800000Y-121920000D03*
%TO.P,J2,2,Pin_2*%
%TO.N,Net-(J2-Pin_2)*%
X175260000Y-121920000D03*
%TD*%
D27*
%TO.N,Net-(D1-A)*%
X172720000Y-116840000D03*
X127000000Y-119380000D03*
%TO.N,Net-(D5-K)*%
X78740000Y-99060000D03*
X78740000Y-109220000D03*
%TO.N,Net-(J1-Pin_2)*%
X132080000Y-109220000D03*
X165100000Y-109220000D03*
%TO.N,Net-(J5-Pin_1)*%
X228600000Y-99060000D03*
X210820000Y-119380000D03*
%TD*%
D28*
%TO.N,Net-(D1-K)*%
X144020000Y-115060000D02*
X137160000Y-115060000D01*
X129540000Y-122680000D02*
X137160000Y-115060000D01*
X147320000Y-111760000D02*
X144020000Y-115060000D01*
X119380000Y-122680000D02*
X129540000Y-122680000D01*
%TO.N,Net-(D1-A)*%
X177800000Y-121920000D02*
X185420000Y-121920000D01*
X121920000Y-114300000D02*
X127000000Y-119380000D01*
X172720000Y-116840000D02*
X177800000Y-121920000D01*
X109220000Y-122680000D02*
X113540000Y-122680000D01*
X113540000Y-122680000D02*
X121920000Y-114300000D01*
%TO.N,Net-(D3-K)*%
X132080000Y-94740000D02*
X137160000Y-99820000D01*
X146560000Y-99820000D02*
X147320000Y-99060000D01*
X137540000Y-99440000D02*
X137160000Y-99820000D01*
X137160000Y-99820000D02*
X146560000Y-99820000D01*
X121920000Y-94740000D02*
X132080000Y-94740000D01*
%TO.N,Net-(D4-A)*%
X121920000Y-104900000D02*
X116840000Y-104900000D01*
X116840000Y-104900000D02*
X106680000Y-94740000D01*
%TO.N,Net-(D5-K)*%
X92089500Y-116903500D02*
X92089500Y-114410500D01*
X82960000Y-102360000D02*
X79660000Y-99060000D01*
X92089500Y-114410500D02*
X96520000Y-109980000D01*
X91550500Y-114410500D02*
X92089500Y-114410500D01*
X86360000Y-109220000D02*
X91550500Y-114410500D01*
X78740000Y-109220000D02*
X86360000Y-109220000D01*
X79660000Y-99060000D02*
X78740000Y-99060000D01*
%TO.N,Net-(D6-K)*%
X195580000Y-102440000D02*
X195580000Y-91440000D01*
X203786000Y-91440000D02*
X203849500Y-91503500D01*
X195580000Y-91440000D02*
X203786000Y-91440000D01*
%TO.N,Net-(D7-K)*%
X73660000Y-109980000D02*
X75980000Y-109980000D01*
X81880000Y-115880000D02*
X75980000Y-109980000D01*
X73660000Y-120140000D02*
X78600000Y-120140000D01*
X79900000Y-106060000D02*
X81260000Y-106060000D01*
X78600000Y-120140000D02*
X82860000Y-115880000D01*
X75980000Y-109980000D02*
X79900000Y-106060000D01*
X73660000Y-99820000D02*
X79900000Y-106060000D01*
X82860000Y-115880000D02*
X81880000Y-115880000D01*
%TO.N,Net-(D7-A)*%
X50800000Y-122680000D02*
X55880000Y-122680000D01*
X55880000Y-122680000D02*
X58420000Y-120140000D01*
%TO.N,Net-(D8-A)*%
X50800000Y-109980000D02*
X58420000Y-109980000D01*
%TO.N,Net-(D9-A)*%
X55880000Y-97280000D02*
X58420000Y-99820000D01*
X50800000Y-97280000D02*
X55880000Y-97280000D01*
%TO.N,Net-(D11-K)*%
X139700000Y-122680000D02*
X144780000Y-122680000D01*
%TO.N,Net-(D11-A)*%
X159510000Y-120650000D02*
X165100000Y-120650000D01*
X157480000Y-122680000D02*
X159510000Y-120650000D01*
%TO.N,Net-(J1-Pin_2)*%
X165100000Y-109220000D02*
X162560000Y-111760000D01*
X160020000Y-111760000D02*
X160020000Y-99820000D01*
X170180000Y-112520000D02*
X170180000Y-114300000D01*
X170180000Y-114300000D02*
X165100000Y-119380000D01*
X160020000Y-111760000D02*
X165100000Y-116840000D01*
X162560000Y-111760000D02*
X160020000Y-111760000D01*
X165100000Y-116840000D02*
X165100000Y-119380000D01*
X126720000Y-109600000D02*
X131700000Y-109600000D01*
X131700000Y-109600000D02*
X132080000Y-109220000D01*
%TO.N,Net-(Q1-B)*%
X185420000Y-111760000D02*
X180340000Y-111760000D01*
X180340000Y-111760000D02*
X179830000Y-111250000D01*
X179830000Y-111250000D02*
X170180000Y-111250000D01*
%TO.N,Net-(J2-Pin_2)*%
X165100000Y-121920000D02*
X175260000Y-121920000D01*
%TO.N,Net-(U1-FB)*%
X83820000Y-99820000D02*
X86360000Y-102360000D01*
X83820000Y-91440000D02*
X83820000Y-99820000D01*
%TO.N,Net-(SW1-A)*%
X172720000Y-96520000D02*
X187660000Y-96520000D01*
X187660000Y-96520000D02*
X191880000Y-100740000D01*
X147320000Y-94360000D02*
X170560000Y-94360000D01*
X170560000Y-94360000D02*
X172720000Y-96520000D01*
%TO.N,Net-(U2-FB)*%
X195580000Y-105840000D02*
X195580000Y-116840000D01*
%TO.N,Net-(J4-Pin_1)*%
X109220000Y-109900000D02*
X104820000Y-109900000D01*
X121920000Y-109600000D02*
X109520000Y-109600000D01*
X104789500Y-116903500D02*
X104789500Y-114330500D01*
X99060000Y-122680000D02*
X99060000Y-122633000D01*
X104820000Y-109900000D02*
X86360000Y-91440000D01*
X104789500Y-114330500D02*
X109220000Y-109900000D01*
X99060000Y-122633000D02*
X104789500Y-116903500D01*
X109520000Y-109600000D02*
X109220000Y-109900000D01*
%TO.N,Net-(J13-Pin_1)*%
X221854500Y-101600000D02*
X225552000Y-105297500D01*
X223520000Y-93980000D02*
X223520000Y-99934500D01*
X223520000Y-99934500D02*
X221854500Y-101600000D01*
X218440000Y-101600000D02*
X221854500Y-101600000D01*
%TO.N,Net-(J1-Pin_1)*%
X157480000Y-111760000D02*
X157480000Y-99820000D01*
X149860000Y-111760000D02*
X157480000Y-111760000D01*
%TO.N,Net-(J5-Pin_1)*%
X228600000Y-99060000D02*
X228600000Y-99709500D01*
X208280000Y-121920000D02*
X210820000Y-119380000D01*
X228600000Y-99709500D02*
X225552000Y-102757500D01*
%TO.N,Net-(J10-Pin_1)*%
X212119000Y-101600000D02*
X216549500Y-97169500D01*
X198120000Y-116840000D02*
X203200000Y-116840000D01*
X203200000Y-119380000D02*
X203200000Y-116840000D01*
X205740000Y-121920000D02*
X203200000Y-119380000D01*
X203200000Y-116840000D02*
X205740000Y-114300000D01*
X218440000Y-107921000D02*
X212119000Y-101600000D01*
X216549500Y-91503500D02*
X216549500Y-97169500D01*
X216549500Y-97169500D02*
X218440000Y-99060000D01*
X215900000Y-114300000D02*
X218440000Y-111760000D01*
X205740000Y-114300000D02*
X215900000Y-114300000D01*
X218440000Y-111760000D02*
X218440000Y-107921000D01*
X210740000Y-101600000D02*
X212119000Y-101600000D01*
%TO.N,Net-(J12-Pin_1)*%
X223520000Y-121920000D02*
X223520000Y-119380000D01*
X224902500Y-107837500D02*
X225552000Y-107837500D01*
X218440000Y-114300000D02*
X224902500Y-107837500D01*
X223520000Y-119380000D02*
X218440000Y-114300000D01*
%TD*%
M02*
