%TF.GenerationSoftware,KiCad,Pcbnew,7.0.10*%
%TF.CreationDate,2025-09-05T15:35:01+01:00*%
%TF.ProjectId,solarCharger,736f6c61-7243-4686-9172-6765722e6b69,rev?*%
%TF.SameCoordinates,Original*%
%TF.FileFunction,Copper,L2,Bot*%
%TF.FilePolarity,Positive*%
%FSLAX46Y46*%
G04 Gerber Fmt 4.6, Leading zero omitted, Abs format (unit mm)*
G04 Created by KiCad (PCBNEW 7.0.10) date 2025-09-05 15:35:01*
%MOMM*%
%LPD*%
G01*
G04 APERTURE LIST*
%TA.AperFunction,ComponentPad*%
%ADD10R,3.200000X3.200000*%
%TD*%
%TA.AperFunction,ComponentPad*%
%ADD11O,3.200000X3.200000*%
%TD*%
%TA.AperFunction,ComponentPad*%
%ADD12C,1.600000*%
%TD*%
%TA.AperFunction,ComponentPad*%
%ADD13C,1.800000*%
%TD*%
%TA.AperFunction,ComponentPad*%
%ADD14R,1.600000X1.600000*%
%TD*%
%TA.AperFunction,ComponentPad*%
%ADD15R,1.800000X1.800000*%
%TD*%
%TA.AperFunction,ComponentPad*%
%ADD16O,1.800000X1.800000*%
%TD*%
%TA.AperFunction,ComponentPad*%
%ADD17O,1.600000X1.600000*%
%TD*%
%TA.AperFunction,ComponentPad*%
%ADD18R,1.700000X1.700000*%
%TD*%
%TA.AperFunction,ComponentPad*%
%ADD19R,1.500000X1.050000*%
%TD*%
%TA.AperFunction,ComponentPad*%
%ADD20O,1.500000X1.050000*%
%TD*%
%TA.AperFunction,ComponentPad*%
%ADD21R,2.200000X2.200000*%
%TD*%
%TA.AperFunction,ComponentPad*%
%ADD22O,2.200000X2.200000*%
%TD*%
%TA.AperFunction,ComponentPad*%
%ADD23C,1.440000*%
%TD*%
%TA.AperFunction,ComponentPad*%
%ADD24C,2.200000*%
%TD*%
%TA.AperFunction,ComponentPad*%
%ADD25R,2.000000X2.000000*%
%TD*%
%TA.AperFunction,ComponentPad*%
%ADD26C,2.000000*%
%TD*%
%TA.AperFunction,ViaPad*%
%ADD27C,0.800000*%
%TD*%
%TA.AperFunction,Conductor*%
%ADD28C,0.500000*%
%TD*%
G04 APERTURE END LIST*
D10*
%TO.P,D4,1,K*%
%TO.N,Net-(D3-K)*%
X121920000Y-94740000D03*
D11*
%TO.P,D4,2,A*%
%TO.N,Net-(D4-A)*%
X106680000Y-94740000D03*
%TD*%
D12*
%TO.P,L3,1,1*%
%TO.N,Net-(D6-K)*%
X203849500Y-91503500D03*
%TO.P,L3,2,2*%
%TO.N,Net-(J10-Pin_1)*%
X216549500Y-91503500D03*
%TD*%
D13*
%TO.P,J8,1,Pin_1*%
%TO.N,Net-(D9-A)*%
X50800000Y-97280000D03*
%TO.P,J8,2,Pin_2*%
%TO.N,GND*%
X50800000Y-94740000D03*
%TD*%
D14*
%TO.P,C2,1*%
%TO.N,Net-(SW1-A)*%
X172720000Y-96520000D03*
D12*
%TO.P,C2,2*%
%TO.N,GND*%
X172720000Y-100020000D03*
%TD*%
D13*
%TO.P,J14,1,Pin_1*%
%TO.N,Net-(J1-Pin_1)*%
X149860000Y-111760000D03*
%TO.P,J14,2,Pin_2*%
%TO.N,Net-(D1-K)*%
X147320000Y-111760000D03*
%TD*%
D15*
%TO.P,U1,1,VIN*%
%TO.N,Net-(D7-K)*%
X81260000Y-106060000D03*
D16*
%TO.P,U1,2,OUT*%
%TO.N,Net-(D5-K)*%
X82960000Y-102360000D03*
%TO.P,U1,3,GND*%
%TO.N,GND*%
X84660000Y-106060000D03*
%TO.P,U1,4,FB*%
%TO.N,Net-(U1-FB)*%
X86360000Y-102360000D03*
%TO.P,U1,5,~{ON}/OFF*%
%TO.N,GND*%
X88060000Y-106060000D03*
%TD*%
D12*
%TO.P,R1,1*%
%TO.N,Net-(Q1-B)*%
X180340000Y-111760000D03*
D17*
%TO.P,R1,2*%
%TO.N,GND*%
X180340000Y-101600000D03*
%TD*%
D14*
%TO.P,C5,1*%
%TO.N,Net-(D7-K)*%
X82860000Y-115880000D03*
D12*
%TO.P,C5,2*%
%TO.N,GND*%
X86360000Y-115880000D03*
%TD*%
D10*
%TO.P,D8,1,K*%
%TO.N,Net-(D7-K)*%
X73660000Y-109980000D03*
D11*
%TO.P,D8,2,A*%
%TO.N,Net-(D8-A)*%
X58420000Y-109980000D03*
%TD*%
D10*
%TO.P,D3,1,K*%
%TO.N,Net-(D3-K)*%
X137160000Y-99820000D03*
D11*
%TO.P,D3,2,A*%
%TO.N,Net-(D1-K)*%
X137160000Y-115060000D03*
%TD*%
D10*
%TO.P,D9,1,K*%
%TO.N,Net-(D7-K)*%
X73660000Y-99820000D03*
D11*
%TO.P,D9,2,A*%
%TO.N,Net-(D9-A)*%
X58420000Y-99820000D03*
%TD*%
D18*
%TO.P,J13,1,Pin_1*%
%TO.N,Net-(J13-Pin_1)*%
X223520000Y-93980000D03*
%TD*%
D19*
%TO.P,Q2,1,C*%
%TO.N,Net-(J2-Pin_2)*%
X165100000Y-121920000D03*
D20*
%TO.P,Q2,2,B*%
%TO.N,Net-(D11-A)*%
X165100000Y-120650000D03*
%TO.P,Q2,3,E*%
%TO.N,Net-(J1-Pin_2)*%
X165100000Y-119380000D03*
%TD*%
D12*
%TO.P,R2,1*%
%TO.N,Net-(D1-K)*%
X129540000Y-122680000D03*
D17*
%TO.P,R2,2*%
%TO.N,Net-(D11-K)*%
X139700000Y-122680000D03*
%TD*%
D10*
%TO.P,D5,1,K*%
%TO.N,Net-(D5-K)*%
X96520000Y-109980000D03*
D11*
%TO.P,D5,2,A*%
%TO.N,GND*%
X96520000Y-94740000D03*
%TD*%
D13*
%TO.P,U3,1,Vcc*%
%TO.N,Net-(J5-Pin_1)*%
X225552000Y-102757500D03*
%TO.P,U3,2,D-*%
%TO.N,Net-(J13-Pin_1)*%
X225552000Y-105297500D03*
%TO.P,U3,3,D+*%
%TO.N,Net-(J12-Pin_1)*%
X225552000Y-107837500D03*
%TO.P,U3,4,GND*%
%TO.N,GND*%
X225552000Y-110377500D03*
%TD*%
D21*
%TO.P,D11,1,K*%
%TO.N,Net-(D11-K)*%
X144780000Y-122680000D03*
D22*
%TO.P,D11,2,A*%
%TO.N,Net-(D11-A)*%
X157480000Y-122680000D03*
%TD*%
D10*
%TO.P,D7,1,K*%
%TO.N,Net-(D7-K)*%
X73660000Y-120140000D03*
D11*
%TO.P,D7,2,A*%
%TO.N,Net-(D7-A)*%
X58420000Y-120140000D03*
%TD*%
D23*
%TO.P,RV5,1,1*%
%TO.N,Net-(J4-Pin_1)*%
X86360000Y-91440000D03*
%TO.P,RV5,2,2*%
%TO.N,Net-(U1-FB)*%
X83820000Y-91440000D03*
%TO.P,RV5,3,3*%
%TO.N,GND*%
X81280000Y-91440000D03*
%TD*%
D21*
%TO.P,D1,1,K*%
%TO.N,Net-(D1-K)*%
X119380000Y-122680000D03*
D22*
%TO.P,D1,2,A*%
%TO.N,Net-(D1-A)*%
X109220000Y-122680000D03*
%TD*%
D23*
%TO.P,RV1,1,1*%
%TO.N,Net-(J10-Pin_1)*%
X198120000Y-116840000D03*
%TO.P,RV1,2,2*%
%TO.N,Net-(U2-FB)*%
X195580000Y-116840000D03*
%TO.P,RV1,3,3*%
%TO.N,GND*%
X193040000Y-116840000D03*
%TD*%
D13*
%TO.P,J5,1,Pin_1*%
%TO.N,Net-(J5-Pin_1)*%
X208280000Y-121920000D03*
%TO.P,J5,2,Pin_2*%
%TO.N,Net-(J10-Pin_1)*%
X205740000Y-121920000D03*
%TD*%
D23*
%TO.P,RV2,1,1*%
%TO.N,GND*%
X218440000Y-116840000D03*
%TO.P,RV2,2,2*%
%TO.N,Net-(J12-Pin_1)*%
X218440000Y-114300000D03*
%TO.P,RV2,3,3*%
%TO.N,Net-(J10-Pin_1)*%
X218440000Y-111760000D03*
%TD*%
%TO.P,RV6,1,1*%
%TO.N,GND*%
X218440000Y-104140000D03*
%TO.P,RV6,2,2*%
%TO.N,Net-(J13-Pin_1)*%
X218440000Y-101600000D03*
%TO.P,RV6,3,3*%
%TO.N,Net-(J10-Pin_1)*%
X218440000Y-99060000D03*
%TD*%
D13*
%TO.P,J3,1,Pin_1*%
%TO.N,Net-(J1-Pin_2)*%
X160020000Y-111760000D03*
%TO.P,J3,2,Pin_2*%
%TO.N,Net-(J1-Pin_1)*%
X157480000Y-111760000D03*
%TD*%
D12*
%TO.P,L1,1,1*%
%TO.N,Net-(D5-K)*%
X92089500Y-116903500D03*
%TO.P,L1,2,2*%
%TO.N,Net-(J4-Pin_1)*%
X104789500Y-116903500D03*
%TD*%
D18*
%TO.P,J12,1,Pin_1*%
%TO.N,Net-(J12-Pin_1)*%
X223520000Y-121920000D03*
%TD*%
D13*
%TO.P,J6,1,Pin_1*%
%TO.N,Net-(D7-A)*%
X50800000Y-122680000D03*
%TO.P,J6,2,Pin_2*%
%TO.N,GND*%
X50800000Y-120140000D03*
%TD*%
D12*
%TO.P,R4,1*%
%TO.N,Net-(D1-A)*%
X185420000Y-121920000D03*
D17*
%TO.P,R4,2*%
%TO.N,Net-(Q1-B)*%
X185420000Y-111760000D03*
%TD*%
D19*
%TO.P,Q1,1,C*%
%TO.N,Net-(J1-Pin_2)*%
X170180000Y-112520000D03*
D20*
%TO.P,Q1,2,B*%
%TO.N,Net-(Q1-B)*%
X170180000Y-111250000D03*
%TO.P,Q1,3,E*%
%TO.N,GND*%
X170180000Y-109980000D03*
%TD*%
D24*
%TO.P,SW2,1,A*%
%TO.N,Net-(D4-A)*%
X121920000Y-104900000D03*
%TO.P,SW2,2,B*%
%TO.N,Net-(J4-Pin_1)*%
X121920000Y-109600000D03*
%TO.P,SW2,3,C*%
%TO.N,Net-(D1-A)*%
X121920000Y-114300000D03*
%TO.P,SW2,4,A*%
%TO.N,GND*%
X126720000Y-104900000D03*
%TO.P,SW2,5,B*%
%TO.N,Net-(J1-Pin_2)*%
X126720000Y-109600000D03*
%TO.P,SW2,6,C*%
%TO.N,unconnected-(SW2B-C-Pad6)*%
X126720000Y-114300000D03*
%TD*%
D25*
%TO.P,C1,1*%
%TO.N,Net-(J4-Pin_1)*%
X109220000Y-109900000D03*
D26*
%TO.P,C1,2*%
%TO.N,GND*%
X109220000Y-104900000D03*
%TD*%
D15*
%TO.P,U2,1,VIN*%
%TO.N,Net-(SW1-A)*%
X191880000Y-100740000D03*
D16*
%TO.P,U2,2,OUT*%
%TO.N,Net-(D6-K)*%
X195580000Y-102440000D03*
%TO.P,U2,3,GND*%
%TO.N,GND*%
X191880000Y-104140000D03*
%TO.P,U2,4,FB*%
%TO.N,Net-(U2-FB)*%
X195580000Y-105840000D03*
%TO.P,U2,5,~{ON}/OFF*%
%TO.N,GND*%
X191880000Y-107540000D03*
%TD*%
D25*
%TO.P,C3,1*%
%TO.N,Net-(J10-Pin_1)*%
X210740000Y-101600000D03*
D26*
%TO.P,C3,2*%
%TO.N,GND*%
X205740000Y-101600000D03*
%TD*%
D18*
%TO.P,J4,1,Pin_1*%
%TO.N,Net-(J4-Pin_1)*%
X99060000Y-122680000D03*
%TD*%
D13*
%TO.P,J1,1,Pin_1*%
%TO.N,Net-(J1-Pin_1)*%
X157480000Y-99820000D03*
%TO.P,J1,2,Pin_2*%
%TO.N,Net-(J1-Pin_2)*%
X160020000Y-99820000D03*
%TD*%
D18*
%TO.P,J9,1,Pin_1*%
%TO.N,GND*%
X185420000Y-104140000D03*
%TD*%
D24*
%TO.P,SW1,1,A*%
%TO.N,Net-(SW1-A)*%
X147320000Y-94360000D03*
%TO.P,SW1,2,B*%
%TO.N,Net-(D3-K)*%
X147320000Y-99060000D03*
%TD*%
D10*
%TO.P,D6,1,K*%
%TO.N,Net-(D6-K)*%
X195580000Y-91440000D03*
D11*
%TO.P,D6,2,A*%
%TO.N,GND*%
X180340000Y-91440000D03*
%TD*%
D18*
%TO.P,J10,1,Pin_1*%
%TO.N,Net-(J10-Pin_1)*%
X205740000Y-114300000D03*
%TD*%
D13*
%TO.P,J7,1,Pin_1*%
%TO.N,Net-(D8-A)*%
X50800000Y-109980000D03*
%TO.P,J7,2,Pin_2*%
%TO.N,GND*%
X50800000Y-107440000D03*
%TD*%
%TO.P,J2,1,Pin_1*%
%TO.N,Net-(D1-A)*%
X177800000Y-121920000D03*
%TO.P,J2,2,Pin_2*%
%TO.N,Net-(J2-Pin_2)*%
X175260000Y-121920000D03*
%TD*%
D27*
%TO.N,Net-(D1-A)*%
X172720000Y-116840000D03*
X127000000Y-119380000D03*
%TO.N,Net-(D5-K)*%
X78740000Y-99060000D03*
X78740000Y-109220000D03*
%TO.N,Net-(J1-Pin_2)*%
X132080000Y-109220000D03*
X165100000Y-109220000D03*
%TO.N,Net-(J5-Pin_1)*%
X228600000Y-99060000D03*
X210820000Y-119380000D03*
%TD*%
D28*
%TO.N,Net-(D1-A)*%
X171155000Y-118405000D02*
X172720000Y-116840000D01*
X127000000Y-119380000D02*
X127975000Y-118405000D01*
X127975000Y-118405000D02*
X171155000Y-118405000D01*
%TO.N,Net-(D5-K)*%
X78740000Y-99060000D02*
X78740000Y-109220000D01*
%TO.N,Net-(J1-Pin_2)*%
X132080000Y-109220000D02*
X165100000Y-109220000D01*
%TO.N,Net-(J5-Pin_1)*%
X210820000Y-119380000D02*
X210820000Y-117725370D01*
X228600000Y-99945370D02*
X228600000Y-99060000D01*
X210820000Y-117725370D02*
X228600000Y-99945370D01*
%TD*%
%TA.AperFunction,Conductor*%
%TO.N,GND*%
G36*
X241242539Y-86380185D02*
G01*
X241288294Y-86432989D01*
X241299500Y-86484500D01*
X241299500Y-126875500D01*
X241279815Y-126942539D01*
X241227011Y-126988294D01*
X241175500Y-126999500D01*
X43304500Y-126999500D01*
X43237461Y-126979815D01*
X43191706Y-126927011D01*
X43180500Y-126875500D01*
X43180500Y-122680006D01*
X49394700Y-122680006D01*
X49413864Y-122911297D01*
X49413866Y-122911308D01*
X49470842Y-123136300D01*
X49564075Y-123348848D01*
X49691016Y-123543147D01*
X49691019Y-123543151D01*
X49691021Y-123543153D01*
X49848216Y-123713913D01*
X49848219Y-123713915D01*
X49848222Y-123713918D01*
X50031365Y-123856464D01*
X50031371Y-123856468D01*
X50031374Y-123856470D01*
X50235497Y-123966936D01*
X50289479Y-123985468D01*
X50455015Y-124042297D01*
X50455017Y-124042297D01*
X50455019Y-124042298D01*
X50683951Y-124080500D01*
X50683952Y-124080500D01*
X50916048Y-124080500D01*
X50916049Y-124080500D01*
X51144981Y-124042298D01*
X51364503Y-123966936D01*
X51568626Y-123856470D01*
X51605372Y-123827870D01*
X51676732Y-123772328D01*
X51751784Y-123713913D01*
X51877020Y-123577870D01*
X97709500Y-123577870D01*
X97709501Y-123577876D01*
X97715908Y-123637483D01*
X97766202Y-123772328D01*
X97766206Y-123772335D01*
X97852452Y-123887544D01*
X97852455Y-123887547D01*
X97967664Y-123973793D01*
X97967671Y-123973797D01*
X98102517Y-124024091D01*
X98102516Y-124024091D01*
X98109444Y-124024835D01*
X98162127Y-124030500D01*
X99957872Y-124030499D01*
X100017483Y-124024091D01*
X100152331Y-123973796D01*
X100267546Y-123887546D01*
X100353796Y-123772331D01*
X100404091Y-123637483D01*
X100410500Y-123577873D01*
X100410499Y-122680000D01*
X107614551Y-122680000D01*
X107634317Y-122931151D01*
X107693126Y-123176110D01*
X107789533Y-123408859D01*
X107921160Y-123623653D01*
X107921161Y-123623656D01*
X107969322Y-123680045D01*
X108084776Y-123815224D01*
X108191929Y-123906741D01*
X108276343Y-123978838D01*
X108276346Y-123978839D01*
X108491140Y-124110466D01*
X108723889Y-124206873D01*
X108968852Y-124265683D01*
X109220000Y-124285449D01*
X109471148Y-124265683D01*
X109716111Y-124206873D01*
X109948859Y-124110466D01*
X110163659Y-123978836D01*
X110340417Y-123827870D01*
X117779500Y-123827870D01*
X117779501Y-123827876D01*
X117785908Y-123887483D01*
X117836202Y-124022328D01*
X117836206Y-124022335D01*
X117922452Y-124137544D01*
X117922455Y-124137547D01*
X118037664Y-124223793D01*
X118037671Y-124223797D01*
X118172517Y-124274091D01*
X118172516Y-124274091D01*
X118179444Y-124274835D01*
X118232127Y-124280500D01*
X120527872Y-124280499D01*
X120587483Y-124274091D01*
X120722331Y-124223796D01*
X120837546Y-124137546D01*
X120923796Y-124022331D01*
X120974091Y-123887483D01*
X120980500Y-123827873D01*
X120980500Y-122680001D01*
X128234532Y-122680001D01*
X128254364Y-122906686D01*
X128254366Y-122906697D01*
X128313258Y-123126488D01*
X128313261Y-123126497D01*
X128409431Y-123332732D01*
X128409432Y-123332734D01*
X128539954Y-123519141D01*
X128700858Y-123680045D01*
X128700861Y-123680047D01*
X128887266Y-123810568D01*
X129093504Y-123906739D01*
X129313308Y-123965635D01*
X129475230Y-123979801D01*
X129539998Y-123985468D01*
X129540000Y-123985468D01*
X129540002Y-123985468D01*
X129596673Y-123980509D01*
X129766692Y-123965635D01*
X129986496Y-123906739D01*
X130192734Y-123810568D01*
X130379139Y-123680047D01*
X130540047Y-123519139D01*
X130670568Y-123332734D01*
X130766739Y-123126496D01*
X130825635Y-122906692D01*
X130844827Y-122687328D01*
X130845468Y-122680001D01*
X138394532Y-122680001D01*
X138414364Y-122906686D01*
X138414366Y-122906697D01*
X138473258Y-123126488D01*
X138473261Y-123126497D01*
X138569431Y-123332732D01*
X138569432Y-123332734D01*
X138699954Y-123519141D01*
X138860858Y-123680045D01*
X138860861Y-123680047D01*
X139047266Y-123810568D01*
X139253504Y-123906739D01*
X139473308Y-123965635D01*
X139635230Y-123979801D01*
X139699998Y-123985468D01*
X139700000Y-123985468D01*
X139700002Y-123985468D01*
X139756673Y-123980509D01*
X139926692Y-123965635D01*
X140146496Y-123906739D01*
X140315630Y-123827870D01*
X143179500Y-123827870D01*
X143179501Y-123827876D01*
X143185908Y-123887483D01*
X143236202Y-124022328D01*
X143236206Y-124022335D01*
X143322452Y-124137544D01*
X143322455Y-124137547D01*
X143437664Y-124223793D01*
X143437671Y-124223797D01*
X143572517Y-124274091D01*
X143572516Y-124274091D01*
X143579444Y-124274835D01*
X143632127Y-124280500D01*
X145927872Y-124280499D01*
X145987483Y-124274091D01*
X146122331Y-124223796D01*
X146237546Y-124137546D01*
X146323796Y-124022331D01*
X146374091Y-123887483D01*
X146380500Y-123827873D01*
X146380499Y-122680000D01*
X155874551Y-122680000D01*
X155894317Y-122931151D01*
X155953126Y-123176110D01*
X156049533Y-123408859D01*
X156181160Y-123623653D01*
X156181161Y-123623656D01*
X156229322Y-123680045D01*
X156344776Y-123815224D01*
X156451929Y-123906741D01*
X156536343Y-123978838D01*
X156536346Y-123978839D01*
X156751140Y-124110466D01*
X156983889Y-124206873D01*
X157228852Y-124265683D01*
X157480000Y-124285449D01*
X157731148Y-124265683D01*
X157976111Y-124206873D01*
X158208859Y-124110466D01*
X158423659Y-123978836D01*
X158615224Y-123815224D01*
X158778836Y-123623659D01*
X158910466Y-123408859D01*
X159006873Y-123176111D01*
X159065683Y-122931148D01*
X159085449Y-122680000D01*
X159065683Y-122428852D01*
X159006873Y-122183889D01*
X158982002Y-122123844D01*
X158910466Y-121951140D01*
X158778839Y-121736346D01*
X158778838Y-121736343D01*
X158729613Y-121678708D01*
X158615224Y-121544776D01*
X158439117Y-121394366D01*
X158423656Y-121381161D01*
X158423653Y-121381160D01*
X158208859Y-121249533D01*
X157976110Y-121153126D01*
X157731151Y-121094317D01*
X157480000Y-121074551D01*
X157228848Y-121094317D01*
X156983889Y-121153126D01*
X156751140Y-121249533D01*
X156536346Y-121381160D01*
X156536343Y-121381161D01*
X156344776Y-121544776D01*
X156181161Y-121736343D01*
X156181160Y-121736346D01*
X156049533Y-121951140D01*
X155953126Y-122183889D01*
X155894317Y-122428848D01*
X155874551Y-122680000D01*
X146380499Y-122680000D01*
X146380499Y-121532128D01*
X146374091Y-121472517D01*
X146372667Y-121468700D01*
X146323797Y-121337671D01*
X146323793Y-121337664D01*
X146237547Y-121222455D01*
X146237544Y-121222452D01*
X146122335Y-121136206D01*
X146122328Y-121136202D01*
X145987482Y-121085908D01*
X145987483Y-121085908D01*
X145927883Y-121079501D01*
X145927881Y-121079500D01*
X145927873Y-121079500D01*
X145927864Y-121079500D01*
X143632129Y-121079500D01*
X143632123Y-121079501D01*
X143572516Y-121085908D01*
X143437671Y-121136202D01*
X143437664Y-121136206D01*
X143322455Y-121222452D01*
X143322452Y-121222455D01*
X143236206Y-121337664D01*
X143236202Y-121337671D01*
X143185908Y-121472517D01*
X143179501Y-121532116D01*
X143179501Y-121532123D01*
X143179500Y-121532135D01*
X143179500Y-123827870D01*
X140315630Y-123827870D01*
X140352734Y-123810568D01*
X140539139Y-123680047D01*
X140700047Y-123519139D01*
X140830568Y-123332734D01*
X140926739Y-123126496D01*
X140985635Y-122906692D01*
X141004827Y-122687328D01*
X141005468Y-122680001D01*
X141005468Y-122679998D01*
X140994312Y-122552483D01*
X140985635Y-122453308D01*
X140926739Y-122233504D01*
X140830568Y-122027266D01*
X140700047Y-121840861D01*
X140700045Y-121840858D01*
X140539141Y-121679954D01*
X140352734Y-121549432D01*
X140352732Y-121549431D01*
X140146497Y-121453261D01*
X140146488Y-121453258D01*
X139926697Y-121394366D01*
X139926693Y-121394365D01*
X139926692Y-121394365D01*
X139926691Y-121394364D01*
X139926686Y-121394364D01*
X139700002Y-121374532D01*
X139699998Y-121374532D01*
X139473313Y-121394364D01*
X139473302Y-121394366D01*
X139253511Y-121453258D01*
X139253502Y-121453261D01*
X139047267Y-121549431D01*
X139047265Y-121549432D01*
X138860858Y-121679954D01*
X138699954Y-121840858D01*
X138569432Y-122027265D01*
X138569431Y-122027267D01*
X138473261Y-122233502D01*
X138473258Y-122233511D01*
X138414366Y-122453302D01*
X138414364Y-122453313D01*
X138394532Y-122679998D01*
X138394532Y-122680001D01*
X130845468Y-122680001D01*
X130845468Y-122679998D01*
X130834312Y-122552483D01*
X130825635Y-122453308D01*
X130766739Y-122233504D01*
X130670568Y-122027266D01*
X130540047Y-121840861D01*
X130540045Y-121840858D01*
X130379141Y-121679954D01*
X130192734Y-121549432D01*
X130192732Y-121549431D01*
X129986497Y-121453261D01*
X129986488Y-121453258D01*
X129766697Y-121394366D01*
X129766693Y-121394365D01*
X129766692Y-121394365D01*
X129766691Y-121394364D01*
X129766686Y-121394364D01*
X129540002Y-121374532D01*
X129539998Y-121374532D01*
X129313313Y-121394364D01*
X129313302Y-121394366D01*
X129093511Y-121453258D01*
X129093502Y-121453261D01*
X128887267Y-121549431D01*
X128887265Y-121549432D01*
X128700858Y-121679954D01*
X128539954Y-121840858D01*
X128409432Y-122027265D01*
X128409431Y-122027267D01*
X128313261Y-122233502D01*
X128313258Y-122233511D01*
X128254366Y-122453302D01*
X128254364Y-122453313D01*
X128234532Y-122679998D01*
X128234532Y-122680001D01*
X120980500Y-122680001D01*
X120980499Y-121532128D01*
X120974091Y-121472517D01*
X120972667Y-121468700D01*
X120923797Y-121337671D01*
X120923793Y-121337664D01*
X120837547Y-121222455D01*
X120837544Y-121222452D01*
X120722335Y-121136206D01*
X120722328Y-121136202D01*
X120587482Y-121085908D01*
X120587483Y-121085908D01*
X120527883Y-121079501D01*
X120527881Y-121079500D01*
X120527873Y-121079500D01*
X120527864Y-121079500D01*
X118232129Y-121079500D01*
X118232123Y-121079501D01*
X118172516Y-121085908D01*
X118037671Y-121136202D01*
X118037664Y-121136206D01*
X117922455Y-121222452D01*
X117922452Y-121222455D01*
X117836206Y-121337664D01*
X117836202Y-121337671D01*
X117785908Y-121472517D01*
X117779501Y-121532116D01*
X117779501Y-121532123D01*
X117779500Y-121532135D01*
X117779500Y-123827870D01*
X110340417Y-123827870D01*
X110355224Y-123815224D01*
X110518836Y-123623659D01*
X110650466Y-123408859D01*
X110746873Y-123176111D01*
X110805683Y-122931148D01*
X110825449Y-122680000D01*
X110805683Y-122428852D01*
X110746873Y-122183889D01*
X110722002Y-122123844D01*
X110650466Y-121951140D01*
X110518839Y-121736346D01*
X110518838Y-121736343D01*
X110469613Y-121678708D01*
X110355224Y-121544776D01*
X110179117Y-121394366D01*
X110163656Y-121381161D01*
X110163653Y-121381160D01*
X109948859Y-121249533D01*
X109716110Y-121153126D01*
X109471151Y-121094317D01*
X109220000Y-121074551D01*
X108968848Y-121094317D01*
X108723889Y-121153126D01*
X108491140Y-121249533D01*
X108276346Y-121381160D01*
X108276343Y-121381161D01*
X108084776Y-121544776D01*
X107921161Y-121736343D01*
X107921160Y-121736346D01*
X107789533Y-121951140D01*
X107693126Y-122183889D01*
X107634317Y-122428848D01*
X107614551Y-122680000D01*
X100410499Y-122680000D01*
X100410499Y-121782128D01*
X100404091Y-121722517D01*
X100391476Y-121688695D01*
X100353797Y-121587671D01*
X100353793Y-121587664D01*
X100267547Y-121472455D01*
X100267544Y-121472452D01*
X100152335Y-121386206D01*
X100152328Y-121386202D01*
X100017482Y-121335908D01*
X100017483Y-121335908D01*
X99957883Y-121329501D01*
X99957881Y-121329500D01*
X99957873Y-121329500D01*
X99957864Y-121329500D01*
X98162129Y-121329500D01*
X98162123Y-121329501D01*
X98102516Y-121335908D01*
X97967671Y-121386202D01*
X97967664Y-121386206D01*
X97852455Y-121472452D01*
X97852452Y-121472455D01*
X97766206Y-121587664D01*
X97766202Y-121587671D01*
X97715908Y-121722517D01*
X97709501Y-121782116D01*
X97709501Y-121782123D01*
X97709500Y-121782135D01*
X97709500Y-123577870D01*
X51877020Y-123577870D01*
X51908979Y-123543153D01*
X52035924Y-123348849D01*
X52129157Y-123136300D01*
X52186134Y-122911305D01*
X52186516Y-122906697D01*
X52205300Y-122680006D01*
X52205300Y-122679993D01*
X52186135Y-122448702D01*
X52186133Y-122448691D01*
X52129157Y-122223699D01*
X52035924Y-122011151D01*
X51908983Y-121816852D01*
X51908980Y-121816849D01*
X51908979Y-121816847D01*
X51751784Y-121646087D01*
X51573773Y-121507536D01*
X51532961Y-121450826D01*
X51529286Y-121381053D01*
X51563917Y-121320370D01*
X51573772Y-121311831D01*
X51598797Y-121292352D01*
X51598798Y-121292350D01*
X50932534Y-120626086D01*
X50942315Y-120624680D01*
X51073100Y-120564952D01*
X51181761Y-120470798D01*
X51259493Y-120349844D01*
X51283076Y-120269523D01*
X51951186Y-120937633D01*
X52035482Y-120808611D01*
X52128682Y-120596135D01*
X52185638Y-120371218D01*
X52204798Y-120140005D01*
X52204798Y-120140000D01*
X56314592Y-120140000D01*
X56334201Y-120426680D01*
X56392666Y-120708034D01*
X56392667Y-120708037D01*
X56488894Y-120978793D01*
X56488893Y-120978793D01*
X56621098Y-121233935D01*
X56786812Y-121468700D01*
X56846057Y-121532135D01*
X56982947Y-121678708D01*
X57205853Y-121860055D01*
X57406926Y-121982331D01*
X57451382Y-122009365D01*
X57638237Y-122090526D01*
X57714942Y-122123844D01*
X57991642Y-122201371D01*
X58229694Y-122234091D01*
X58276321Y-122240500D01*
X58276322Y-122240500D01*
X58563679Y-122240500D01*
X58610306Y-122234091D01*
X58848358Y-122201371D01*
X59125058Y-122123844D01*
X59238015Y-122074779D01*
X59388617Y-122009365D01*
X59388620Y-122009363D01*
X59388625Y-122009361D01*
X59634147Y-121860055D01*
X59722875Y-121787870D01*
X71559500Y-121787870D01*
X71559501Y-121787876D01*
X71565908Y-121847483D01*
X71616202Y-121982328D01*
X71616206Y-121982335D01*
X71702452Y-122097544D01*
X71702455Y-122097547D01*
X71817664Y-122183793D01*
X71817671Y-122183797D01*
X71952517Y-122234091D01*
X71952516Y-122234091D01*
X71959444Y-122234835D01*
X72012127Y-122240500D01*
X75307872Y-122240499D01*
X75367483Y-122234091D01*
X75502331Y-122183796D01*
X75617546Y-122097546D01*
X75703796Y-121982331D01*
X75754091Y-121847483D01*
X75760500Y-121787873D01*
X75760499Y-119380000D01*
X126094540Y-119380000D01*
X126114326Y-119568256D01*
X126114327Y-119568259D01*
X126172818Y-119748277D01*
X126172821Y-119748284D01*
X126267467Y-119912216D01*
X126394129Y-120052888D01*
X126547265Y-120164148D01*
X126547270Y-120164151D01*
X126720192Y-120241142D01*
X126720197Y-120241144D01*
X126905354Y-120280500D01*
X126905355Y-120280500D01*
X127094644Y-120280500D01*
X127094646Y-120280500D01*
X127279803Y-120241144D01*
X127452730Y-120164151D01*
X127605871Y-120052888D01*
X127732533Y-119912216D01*
X127827179Y-119748284D01*
X127882522Y-119577955D01*
X127912769Y-119528597D01*
X128249548Y-119191819D01*
X128310871Y-119158334D01*
X128337229Y-119155500D01*
X163729836Y-119155500D01*
X163796875Y-119175185D01*
X163842630Y-119227989D01*
X163853239Y-119291654D01*
X163844538Y-119379999D01*
X163864337Y-119581031D01*
X163922978Y-119774345D01*
X164020367Y-119956547D01*
X164034609Y-120024950D01*
X164020367Y-120073453D01*
X163922978Y-120255654D01*
X163864337Y-120448968D01*
X163844538Y-120650000D01*
X163864337Y-120851031D01*
X163885245Y-120919954D01*
X163916238Y-121022127D01*
X163923306Y-121045424D01*
X163923929Y-121115291D01*
X163909530Y-121144386D01*
X163910452Y-121144890D01*
X163906202Y-121152671D01*
X163855908Y-121287517D01*
X163849501Y-121347116D01*
X163849501Y-121347123D01*
X163849500Y-121347135D01*
X163849500Y-122492870D01*
X163849501Y-122492876D01*
X163855908Y-122552483D01*
X163906202Y-122687328D01*
X163906206Y-122687335D01*
X163992452Y-122802544D01*
X163992455Y-122802547D01*
X164107664Y-122888793D01*
X164107671Y-122888797D01*
X164242517Y-122939091D01*
X164242516Y-122939091D01*
X164249444Y-122939835D01*
X164302127Y-122945500D01*
X165897872Y-122945499D01*
X165957483Y-122939091D01*
X166092331Y-122888796D01*
X166207546Y-122802546D01*
X166293796Y-122687331D01*
X166344091Y-122552483D01*
X166350500Y-122492873D01*
X166350500Y-121920006D01*
X173854700Y-121920006D01*
X173873864Y-122151297D01*
X173873866Y-122151308D01*
X173930842Y-122376300D01*
X174024075Y-122588848D01*
X174151016Y-122783147D01*
X174151019Y-122783151D01*
X174151021Y-122783153D01*
X174308216Y-122953913D01*
X174308219Y-122953915D01*
X174308222Y-122953918D01*
X174491365Y-123096464D01*
X174491371Y-123096468D01*
X174491374Y-123096470D01*
X174695497Y-123206936D01*
X174749479Y-123225468D01*
X174915015Y-123282297D01*
X174915017Y-123282297D01*
X174915019Y-123282298D01*
X175143951Y-123320500D01*
X175143952Y-123320500D01*
X175376048Y-123320500D01*
X175376049Y-123320500D01*
X175604981Y-123282298D01*
X175824503Y-123206936D01*
X176028626Y-123096470D01*
X176211784Y-122953913D01*
X176368979Y-122783153D01*
X176426191Y-122695582D01*
X176479337Y-122650226D01*
X176548568Y-122640802D01*
X176611904Y-122670304D01*
X176633809Y-122695583D01*
X176691016Y-122783147D01*
X176691019Y-122783151D01*
X176691021Y-122783153D01*
X176848216Y-122953913D01*
X176848219Y-122953915D01*
X176848222Y-122953918D01*
X177031365Y-123096464D01*
X177031371Y-123096468D01*
X177031374Y-123096470D01*
X177235497Y-123206936D01*
X177289479Y-123225468D01*
X177455015Y-123282297D01*
X177455017Y-123282297D01*
X177455019Y-123282298D01*
X177683951Y-123320500D01*
X177683952Y-123320500D01*
X177916048Y-123320500D01*
X177916049Y-123320500D01*
X178144981Y-123282298D01*
X178364503Y-123206936D01*
X178568626Y-123096470D01*
X178751784Y-122953913D01*
X178908979Y-122783153D01*
X179035924Y-122588849D01*
X179129157Y-122376300D01*
X179186134Y-122151305D01*
X179186516Y-122146697D01*
X179205300Y-121920006D01*
X179205300Y-121920001D01*
X184114532Y-121920001D01*
X184134364Y-122146686D01*
X184134366Y-122146697D01*
X184193258Y-122366488D01*
X184193261Y-122366497D01*
X184289431Y-122572732D01*
X184289432Y-122572734D01*
X184419954Y-122759141D01*
X184580858Y-122920045D01*
X184580861Y-122920047D01*
X184767266Y-123050568D01*
X184973504Y-123146739D01*
X185193308Y-123205635D01*
X185355230Y-123219801D01*
X185419998Y-123225468D01*
X185420000Y-123225468D01*
X185420002Y-123225468D01*
X185476673Y-123220509D01*
X185646692Y-123205635D01*
X185866496Y-123146739D01*
X186072734Y-123050568D01*
X186259139Y-122920047D01*
X186420047Y-122759139D01*
X186550568Y-122572734D01*
X186646739Y-122366496D01*
X186705635Y-122146692D01*
X186722744Y-121951140D01*
X186725468Y-121920006D01*
X204334700Y-121920006D01*
X204353864Y-122151297D01*
X204353866Y-122151308D01*
X204410842Y-122376300D01*
X204504075Y-122588848D01*
X204631016Y-122783147D01*
X204631019Y-122783151D01*
X204631021Y-122783153D01*
X204788216Y-122953913D01*
X204788219Y-122953915D01*
X204788222Y-122953918D01*
X204971365Y-123096464D01*
X204971371Y-123096468D01*
X204971374Y-123096470D01*
X205175497Y-123206936D01*
X205229479Y-123225468D01*
X205395015Y-123282297D01*
X205395017Y-123282297D01*
X205395019Y-123282298D01*
X205623951Y-123320500D01*
X205623952Y-123320500D01*
X205856048Y-123320500D01*
X205856049Y-123320500D01*
X206084981Y-123282298D01*
X206304503Y-123206936D01*
X206508626Y-123096470D01*
X206691784Y-122953913D01*
X206848979Y-122783153D01*
X206906191Y-122695582D01*
X206959337Y-122650226D01*
X207028568Y-122640802D01*
X207091904Y-122670304D01*
X207113809Y-122695583D01*
X207171016Y-122783147D01*
X207171019Y-122783151D01*
X207171021Y-122783153D01*
X207328216Y-122953913D01*
X207328219Y-122953915D01*
X207328222Y-122953918D01*
X207511365Y-123096464D01*
X207511371Y-123096468D01*
X207511374Y-123096470D01*
X207715497Y-123206936D01*
X207769479Y-123225468D01*
X207935015Y-123282297D01*
X207935017Y-123282297D01*
X207935019Y-123282298D01*
X208163951Y-123320500D01*
X208163952Y-123320500D01*
X208396048Y-123320500D01*
X208396049Y-123320500D01*
X208624981Y-123282298D01*
X208844503Y-123206936D01*
X209048626Y-123096470D01*
X209231784Y-122953913D01*
X209357020Y-122817870D01*
X222169500Y-122817870D01*
X222169501Y-122817876D01*
X222175908Y-122877483D01*
X222226202Y-123012328D01*
X222226206Y-123012335D01*
X222312452Y-123127544D01*
X222312455Y-123127547D01*
X222427664Y-123213793D01*
X222427671Y-123213797D01*
X222562517Y-123264091D01*
X222562516Y-123264091D01*
X222569444Y-123264835D01*
X222622127Y-123270500D01*
X224417872Y-123270499D01*
X224477483Y-123264091D01*
X224612331Y-123213796D01*
X224727546Y-123127546D01*
X224813796Y-123012331D01*
X224864091Y-122877483D01*
X224870500Y-122817873D01*
X224870499Y-121022128D01*
X224864091Y-120962517D01*
X224835584Y-120886087D01*
X224813797Y-120827671D01*
X224813793Y-120827664D01*
X224727547Y-120712455D01*
X224727544Y-120712452D01*
X224612335Y-120626206D01*
X224612328Y-120626202D01*
X224477482Y-120575908D01*
X224477483Y-120575908D01*
X224417883Y-120569501D01*
X224417881Y-120569500D01*
X224417873Y-120569500D01*
X224417864Y-120569500D01*
X222622129Y-120569500D01*
X222622123Y-120569501D01*
X222562516Y-120575908D01*
X222427671Y-120626202D01*
X222427664Y-120626206D01*
X222312455Y-120712452D01*
X222312452Y-120712455D01*
X222226206Y-120827664D01*
X222226202Y-120827671D01*
X222175908Y-120962517D01*
X222169501Y-121022116D01*
X222169501Y-121022123D01*
X222169500Y-121022135D01*
X222169500Y-122817870D01*
X209357020Y-122817870D01*
X209388979Y-122783153D01*
X209515924Y-122588849D01*
X209609157Y-122376300D01*
X209666134Y-122151305D01*
X209666516Y-122146697D01*
X209685300Y-121920006D01*
X209685300Y-121919993D01*
X209666135Y-121688702D01*
X209666133Y-121688691D01*
X209609157Y-121463699D01*
X209515924Y-121251151D01*
X209388983Y-121056852D01*
X209388980Y-121056849D01*
X209388979Y-121056847D01*
X209231784Y-120886087D01*
X209231779Y-120886083D01*
X209231777Y-120886081D01*
X209048634Y-120743535D01*
X209048628Y-120743531D01*
X208844504Y-120633064D01*
X208844495Y-120633061D01*
X208624984Y-120557702D01*
X208453282Y-120529050D01*
X208396049Y-120519500D01*
X208163951Y-120519500D01*
X208118164Y-120527140D01*
X207935015Y-120557702D01*
X207715504Y-120633061D01*
X207715495Y-120633064D01*
X207511371Y-120743531D01*
X207511365Y-120743535D01*
X207328222Y-120886081D01*
X207328219Y-120886084D01*
X207171016Y-121056852D01*
X207113809Y-121144416D01*
X207060662Y-121189773D01*
X206991431Y-121199197D01*
X206928095Y-121169695D01*
X206906191Y-121144416D01*
X206848983Y-121056852D01*
X206848980Y-121056849D01*
X206848979Y-121056847D01*
X206691784Y-120886087D01*
X206691779Y-120886083D01*
X206691777Y-120886081D01*
X206508634Y-120743535D01*
X206508628Y-120743531D01*
X206304504Y-120633064D01*
X206304495Y-120633061D01*
X206084984Y-120557702D01*
X205913282Y-120529050D01*
X205856049Y-120519500D01*
X205623951Y-120519500D01*
X205578164Y-120527140D01*
X205395015Y-120557702D01*
X205175504Y-120633061D01*
X205175495Y-120633064D01*
X204971371Y-120743531D01*
X204971365Y-120743535D01*
X204788222Y-120886081D01*
X204788219Y-120886084D01*
X204631016Y-121056852D01*
X204504075Y-121251151D01*
X204410842Y-121463699D01*
X204353866Y-121688691D01*
X204353864Y-121688702D01*
X204334700Y-121919993D01*
X204334700Y-121920006D01*
X186725468Y-121920006D01*
X186725468Y-121920001D01*
X186725468Y-121919998D01*
X186713909Y-121787883D01*
X186705635Y-121693308D01*
X186646739Y-121473504D01*
X186550568Y-121267266D01*
X186420047Y-121080861D01*
X186420045Y-121080858D01*
X186259141Y-120919954D01*
X186072734Y-120789432D01*
X186072732Y-120789431D01*
X185866497Y-120693261D01*
X185866488Y-120693258D01*
X185646697Y-120634366D01*
X185646693Y-120634365D01*
X185646692Y-120634365D01*
X185646691Y-120634364D01*
X185646686Y-120634364D01*
X185420002Y-120614532D01*
X185419998Y-120614532D01*
X185193313Y-120634364D01*
X185193302Y-120634366D01*
X184973511Y-120693258D01*
X184973502Y-120693261D01*
X184767267Y-120789431D01*
X184767265Y-120789432D01*
X184580858Y-120919954D01*
X184419954Y-121080858D01*
X184289432Y-121267265D01*
X184289431Y-121267267D01*
X184193261Y-121473502D01*
X184193258Y-121473511D01*
X184134366Y-121693302D01*
X184134364Y-121693313D01*
X184114532Y-121919998D01*
X184114532Y-121920001D01*
X179205300Y-121920001D01*
X179205300Y-121919993D01*
X179186135Y-121688702D01*
X179186133Y-121688691D01*
X179129157Y-121463699D01*
X179035924Y-121251151D01*
X178908983Y-121056852D01*
X178908980Y-121056849D01*
X178908979Y-121056847D01*
X178751784Y-120886087D01*
X178751779Y-120886083D01*
X178751777Y-120886081D01*
X178568634Y-120743535D01*
X178568628Y-120743531D01*
X178364504Y-120633064D01*
X178364495Y-120633061D01*
X178144984Y-120557702D01*
X177973282Y-120529050D01*
X177916049Y-120519500D01*
X177683951Y-120519500D01*
X177638164Y-120527140D01*
X177455015Y-120557702D01*
X177235504Y-120633061D01*
X177235495Y-120633064D01*
X177031371Y-120743531D01*
X177031365Y-120743535D01*
X176848222Y-120886081D01*
X176848219Y-120886084D01*
X176691016Y-121056852D01*
X176633809Y-121144416D01*
X176580662Y-121189773D01*
X176511431Y-121199197D01*
X176448095Y-121169695D01*
X176426191Y-121144416D01*
X176368983Y-121056852D01*
X176368980Y-121056849D01*
X176368979Y-121056847D01*
X176211784Y-120886087D01*
X176211779Y-120886083D01*
X176211777Y-120886081D01*
X176028634Y-120743535D01*
X176028628Y-120743531D01*
X175824504Y-120633064D01*
X175824495Y-120633061D01*
X175604984Y-120557702D01*
X175433282Y-120529050D01*
X175376049Y-120519500D01*
X175143951Y-120519500D01*
X175098164Y-120527140D01*
X174915015Y-120557702D01*
X174695504Y-120633061D01*
X174695495Y-120633064D01*
X174491371Y-120743531D01*
X174491365Y-120743535D01*
X174308222Y-120886081D01*
X174308219Y-120886084D01*
X174151016Y-121056852D01*
X174024075Y-121251151D01*
X173930842Y-121463699D01*
X173873866Y-121688691D01*
X173873864Y-121688702D01*
X173854700Y-121919993D01*
X173854700Y-121920006D01*
X166350500Y-121920006D01*
X166350499Y-121347128D01*
X166344091Y-121287517D01*
X166336538Y-121267267D01*
X166293797Y-121152671D01*
X166289546Y-121144886D01*
X166291621Y-121143752D01*
X166271671Y-121090274D01*
X166276694Y-121045423D01*
X166277021Y-121044344D01*
X166277023Y-121044341D01*
X166335662Y-120851033D01*
X166355462Y-120650000D01*
X166335662Y-120448967D01*
X166277023Y-120255659D01*
X166181798Y-120077506D01*
X166181794Y-120077502D01*
X166179631Y-120073454D01*
X166165389Y-120005051D01*
X166179631Y-119956546D01*
X166181794Y-119952498D01*
X166181798Y-119952494D01*
X166277023Y-119774341D01*
X166335662Y-119581033D01*
X166355462Y-119380000D01*
X209914540Y-119380000D01*
X209934326Y-119568256D01*
X209934327Y-119568259D01*
X209992818Y-119748277D01*
X209992821Y-119748284D01*
X210087467Y-119912216D01*
X210214129Y-120052888D01*
X210367265Y-120164148D01*
X210367270Y-120164151D01*
X210540192Y-120241142D01*
X210540197Y-120241144D01*
X210725354Y-120280500D01*
X210725355Y-120280500D01*
X210914644Y-120280500D01*
X210914646Y-120280500D01*
X211099803Y-120241144D01*
X211272730Y-120164151D01*
X211425871Y-120052888D01*
X211552533Y-119912216D01*
X211647179Y-119748284D01*
X211705674Y-119568256D01*
X211725460Y-119380000D01*
X211705674Y-119191744D01*
X211647179Y-119011716D01*
X211639092Y-118997709D01*
X211587113Y-118907677D01*
X211570500Y-118845677D01*
X211570500Y-118087599D01*
X211590185Y-118020560D01*
X211606819Y-117999918D01*
X214408873Y-115197864D01*
X217214843Y-112391893D01*
X217276164Y-112358410D01*
X217345856Y-112363394D01*
X217401789Y-112405266D01*
X217404086Y-112408438D01*
X217418378Y-112428849D01*
X217501472Y-112547521D01*
X217652478Y-112698527D01*
X217652481Y-112698529D01*
X217827419Y-112821021D01*
X217827421Y-112821022D01*
X217827420Y-112821022D01*
X217891936Y-112851106D01*
X218020970Y-112911276D01*
X218020983Y-112911279D01*
X218026064Y-112913130D01*
X218025292Y-112915250D01*
X218076710Y-112946594D01*
X218107237Y-113009442D01*
X218098939Y-113078817D01*
X218054452Y-113132693D01*
X218025685Y-113145830D01*
X218026064Y-113146870D01*
X218020972Y-113148723D01*
X218020970Y-113148724D01*
X218020968Y-113148725D01*
X217827421Y-113238977D01*
X217652478Y-113361472D01*
X217501472Y-113512478D01*
X217378977Y-113687421D01*
X217288725Y-113880968D01*
X217288721Y-113880977D01*
X217233452Y-114087247D01*
X217233450Y-114087258D01*
X217214838Y-114299998D01*
X217214838Y-114300001D01*
X217233450Y-114512741D01*
X217233452Y-114512752D01*
X217288721Y-114719022D01*
X217288723Y-114719026D01*
X217288724Y-114719030D01*
X217303104Y-114749868D01*
X217378977Y-114912578D01*
X217501472Y-115087521D01*
X217652478Y-115238527D01*
X217652481Y-115238529D01*
X217827419Y-115361021D01*
X217827421Y-115361022D01*
X217827420Y-115361022D01*
X217891936Y-115391106D01*
X218020970Y-115451276D01*
X218020983Y-115451279D01*
X218026064Y-115453130D01*
X218025390Y-115454978D01*
X218077680Y-115486857D01*
X218108204Y-115549707D01*
X218099903Y-115619082D01*
X218055413Y-115672956D01*
X218025904Y-115686432D01*
X218026236Y-115687342D01*
X218021140Y-115689197D01*
X217827671Y-115779412D01*
X217827669Y-115779413D01*
X217771969Y-115818415D01*
X217771968Y-115818415D01*
X218395600Y-116442046D01*
X218314852Y-116454835D01*
X218201955Y-116512359D01*
X218112359Y-116601955D01*
X218054835Y-116714852D01*
X218042046Y-116795599D01*
X217418415Y-116171968D01*
X217418415Y-116171969D01*
X217379413Y-116227669D01*
X217379412Y-116227671D01*
X217289197Y-116421140D01*
X217289194Y-116421146D01*
X217233945Y-116627337D01*
X217233944Y-116627345D01*
X217215340Y-116839997D01*
X217215340Y-116840002D01*
X217233944Y-117052654D01*
X217233945Y-117052662D01*
X217289194Y-117258853D01*
X217289197Y-117258859D01*
X217379413Y-117452329D01*
X217418415Y-117508030D01*
X218042046Y-116884399D01*
X218054835Y-116965148D01*
X218112359Y-117078045D01*
X218201955Y-117167641D01*
X218314852Y-117225165D01*
X218395599Y-117237953D01*
X217771968Y-117861584D01*
X217827663Y-117900582D01*
X217827669Y-117900586D01*
X218021140Y-117990802D01*
X218021146Y-117990805D01*
X218227337Y-118046054D01*
X218227345Y-118046055D01*
X218439998Y-118064660D01*
X218440002Y-118064660D01*
X218652654Y-118046055D01*
X218652662Y-118046054D01*
X218858853Y-117990805D01*
X218858864Y-117990801D01*
X219052325Y-117900589D01*
X219108030Y-117861583D01*
X218484401Y-117237953D01*
X218565148Y-117225165D01*
X218678045Y-117167641D01*
X218767641Y-117078045D01*
X218825165Y-116965148D01*
X218837953Y-116884400D01*
X219461583Y-117508029D01*
X219500589Y-117452325D01*
X219590801Y-117258864D01*
X219590805Y-117258853D01*
X219646054Y-117052662D01*
X219646055Y-117052654D01*
X219664660Y-116840002D01*
X219664660Y-116839997D01*
X219646055Y-116627345D01*
X219646054Y-116627337D01*
X219590805Y-116421146D01*
X219590802Y-116421140D01*
X219500586Y-116227669D01*
X219500582Y-116227663D01*
X219461584Y-116171968D01*
X218837953Y-116795599D01*
X218825165Y-116714852D01*
X218767641Y-116601955D01*
X218678045Y-116512359D01*
X218565148Y-116454835D01*
X218484400Y-116442046D01*
X219108030Y-115818415D01*
X219052329Y-115779413D01*
X218858859Y-115689197D01*
X218853764Y-115687342D01*
X218854455Y-115685443D01*
X218802325Y-115653667D01*
X218771797Y-115590820D01*
X218780093Y-115521444D01*
X218824579Y-115467567D01*
X218854257Y-115454014D01*
X218853936Y-115453130D01*
X218859013Y-115451280D01*
X218859030Y-115451276D01*
X219052581Y-115361021D01*
X219227519Y-115238529D01*
X219378529Y-115087519D01*
X219501021Y-114912581D01*
X219591276Y-114719030D01*
X219646549Y-114512747D01*
X219665162Y-114300000D01*
X219646549Y-114087253D01*
X219591276Y-113880970D01*
X219501021Y-113687419D01*
X219397161Y-113539091D01*
X219378527Y-113512478D01*
X219227521Y-113361472D01*
X219052578Y-113238977D01*
X219052579Y-113238977D01*
X218893453Y-113164776D01*
X218859030Y-113148724D01*
X218859023Y-113148722D01*
X218853936Y-113146870D01*
X218854709Y-113144746D01*
X218803305Y-113113424D01*
X218772766Y-113050581D01*
X218781050Y-112981204D01*
X218825528Y-112927320D01*
X218854315Y-112914172D01*
X218853936Y-112913130D01*
X218859013Y-112911280D01*
X218859030Y-112911276D01*
X219052581Y-112821021D01*
X219227519Y-112698529D01*
X219378529Y-112547519D01*
X219501021Y-112372581D01*
X219591276Y-112179030D01*
X219646549Y-111972747D01*
X219663631Y-111777500D01*
X219665162Y-111760001D01*
X219665162Y-111759998D01*
X219653603Y-111627883D01*
X219646549Y-111547253D01*
X219601868Y-111380500D01*
X219591278Y-111340977D01*
X219591277Y-111340976D01*
X219591276Y-111340970D01*
X219501021Y-111147419D01*
X219378529Y-110972481D01*
X219378527Y-110972478D01*
X219227521Y-110821472D01*
X219139663Y-110759954D01*
X219088452Y-110724096D01*
X219044828Y-110669521D01*
X219037634Y-110600022D01*
X219069156Y-110537667D01*
X219071864Y-110534872D01*
X223993785Y-105612950D01*
X224055106Y-105579467D01*
X224124798Y-105584451D01*
X224180731Y-105626323D01*
X224201669Y-105670192D01*
X224222841Y-105753795D01*
X224222841Y-105753796D01*
X224316075Y-105966348D01*
X224443016Y-106160647D01*
X224443019Y-106160651D01*
X224443021Y-106160653D01*
X224600216Y-106331413D01*
X224600219Y-106331415D01*
X224600222Y-106331418D01*
X224777818Y-106469647D01*
X224818631Y-106526357D01*
X224822306Y-106596130D01*
X224787674Y-106656813D01*
X224777818Y-106665353D01*
X224600222Y-106803581D01*
X224600219Y-106803584D01*
X224443016Y-106974352D01*
X224316075Y-107168651D01*
X224222842Y-107381199D01*
X224165866Y-107606191D01*
X224165864Y-107606202D01*
X224146700Y-107837493D01*
X224146700Y-107837506D01*
X224165864Y-108068797D01*
X224165866Y-108068808D01*
X224222842Y-108293800D01*
X224316075Y-108506348D01*
X224443016Y-108700647D01*
X224443019Y-108700651D01*
X224443021Y-108700653D01*
X224600216Y-108871413D01*
X224778225Y-109009962D01*
X224819038Y-109066673D01*
X224822713Y-109136446D01*
X224788082Y-109197129D01*
X224778225Y-109205670D01*
X224753201Y-109225146D01*
X224753200Y-109225147D01*
X225380432Y-109852378D01*
X225263542Y-109903151D01*
X225146261Y-109998566D01*
X225059072Y-110122085D01*
X225028644Y-110207698D01*
X224400811Y-109579865D01*
X224316516Y-109708890D01*
X224223317Y-109921364D01*
X224166361Y-110146281D01*
X224147202Y-110377494D01*
X224147202Y-110377505D01*
X224166361Y-110608718D01*
X224223317Y-110833635D01*
X224316515Y-111046106D01*
X224400812Y-111175133D01*
X225026070Y-110549875D01*
X225028884Y-110563415D01*
X225098442Y-110697656D01*
X225201638Y-110808152D01*
X225330819Y-110886709D01*
X225382002Y-110901050D01*
X224753201Y-111529851D01*
X224783649Y-111553550D01*
X224987697Y-111663976D01*
X224987706Y-111663979D01*
X225207139Y-111739311D01*
X225435993Y-111777500D01*
X225668007Y-111777500D01*
X225896860Y-111739311D01*
X226116293Y-111663979D01*
X226116301Y-111663976D01*
X226320355Y-111553547D01*
X226350797Y-111529851D01*
X226350798Y-111529850D01*
X225723569Y-110902621D01*
X225840458Y-110851849D01*
X225957739Y-110756434D01*
X226044928Y-110632915D01*
X226075354Y-110547301D01*
X226703186Y-111175133D01*
X226787482Y-111046111D01*
X226880682Y-110833635D01*
X226937638Y-110608718D01*
X226956798Y-110377505D01*
X226956798Y-110377494D01*
X226937638Y-110146281D01*
X226880682Y-109921364D01*
X226787484Y-109708893D01*
X226703186Y-109579865D01*
X226077929Y-110205122D01*
X226075116Y-110191585D01*
X226005558Y-110057344D01*
X225902362Y-109946848D01*
X225773181Y-109868291D01*
X225721996Y-109853949D01*
X226350797Y-109225147D01*
X226350797Y-109225146D01*
X226325773Y-109205669D01*
X226284961Y-109148959D01*
X226281286Y-109079186D01*
X226315918Y-109018503D01*
X226325760Y-109009973D01*
X226503784Y-108871413D01*
X226660979Y-108700653D01*
X226787924Y-108506349D01*
X226881157Y-108293800D01*
X226938134Y-108068805D01*
X226941975Y-108022452D01*
X226957300Y-107837506D01*
X226957300Y-107837493D01*
X226938135Y-107606202D01*
X226938133Y-107606191D01*
X226881157Y-107381199D01*
X226787924Y-107168651D01*
X226660983Y-106974352D01*
X226660980Y-106974349D01*
X226660979Y-106974347D01*
X226503784Y-106803587D01*
X226326180Y-106665353D01*
X226285368Y-106608643D01*
X226281693Y-106538870D01*
X226316324Y-106478187D01*
X226326181Y-106469646D01*
X226381136Y-106426873D01*
X226503784Y-106331413D01*
X226660979Y-106160653D01*
X226787924Y-105966349D01*
X226881157Y-105753800D01*
X226938134Y-105528805D01*
X226939059Y-105517640D01*
X226957300Y-105297506D01*
X226957300Y-105297493D01*
X226938135Y-105066202D01*
X226938133Y-105066191D01*
X226881157Y-104841199D01*
X226787924Y-104628651D01*
X226660983Y-104434352D01*
X226660980Y-104434349D01*
X226660979Y-104434347D01*
X226503784Y-104263587D01*
X226326180Y-104125353D01*
X226285368Y-104068643D01*
X226281693Y-103998870D01*
X226316324Y-103938187D01*
X226326181Y-103929646D01*
X226503784Y-103791413D01*
X226660979Y-103620653D01*
X226673449Y-103601567D01*
X226721732Y-103527663D01*
X226787924Y-103426349D01*
X226881157Y-103213800D01*
X226938134Y-102988805D01*
X226938135Y-102988797D01*
X226957300Y-102757506D01*
X226957300Y-102757495D01*
X226953777Y-102714986D01*
X226967857Y-102646550D01*
X226989669Y-102617067D01*
X229085638Y-100521097D01*
X229099267Y-100509320D01*
X229118530Y-100494980D01*
X229150366Y-100457039D01*
X229157683Y-100449054D01*
X229158993Y-100447742D01*
X229161590Y-100445147D01*
X229180811Y-100420837D01*
X229183094Y-100418034D01*
X229186963Y-100413424D01*
X229231302Y-100360584D01*
X229231303Y-100360581D01*
X229235272Y-100354549D01*
X229235323Y-100354582D01*
X229239369Y-100348230D01*
X229239317Y-100348198D01*
X229243105Y-100342053D01*
X229243111Y-100342047D01*
X229274829Y-100274025D01*
X229276369Y-100270846D01*
X229310040Y-100203803D01*
X229310043Y-100203787D01*
X229312510Y-100197014D01*
X229312568Y-100197035D01*
X229315043Y-100189916D01*
X229314985Y-100189897D01*
X229317255Y-100183047D01*
X229322797Y-100156206D01*
X229332431Y-100109541D01*
X229333186Y-100106137D01*
X229350500Y-100033091D01*
X229350500Y-100033089D01*
X229350501Y-100033085D01*
X229351339Y-100025918D01*
X229351397Y-100025924D01*
X229352164Y-100018426D01*
X229352104Y-100018421D01*
X229352733Y-100011230D01*
X229352363Y-99998527D01*
X229350552Y-99936259D01*
X229350500Y-99932653D01*
X229350500Y-99594321D01*
X229367113Y-99532321D01*
X229395903Y-99482455D01*
X229427179Y-99428284D01*
X229485674Y-99248256D01*
X229505460Y-99060000D01*
X229485674Y-98871744D01*
X229427179Y-98691716D01*
X229332533Y-98527784D01*
X229205871Y-98387112D01*
X229205870Y-98387111D01*
X229052734Y-98275851D01*
X229052729Y-98275848D01*
X228879807Y-98198857D01*
X228879802Y-98198855D01*
X228734001Y-98167865D01*
X228694646Y-98159500D01*
X228505354Y-98159500D01*
X228472897Y-98166398D01*
X228320197Y-98198855D01*
X228320192Y-98198857D01*
X228147270Y-98275848D01*
X228147265Y-98275851D01*
X227994129Y-98387111D01*
X227867466Y-98527785D01*
X227772821Y-98691715D01*
X227772818Y-98691722D01*
X227722282Y-98847258D01*
X227714326Y-98871744D01*
X227694540Y-99060000D01*
X227714326Y-99248256D01*
X227714327Y-99248259D01*
X227772818Y-99428277D01*
X227772821Y-99428284D01*
X227828794Y-99525232D01*
X227845267Y-99593132D01*
X227822414Y-99659159D01*
X227809088Y-99674913D01*
X226094510Y-101389490D01*
X226033187Y-101422975D01*
X225966566Y-101419090D01*
X225896984Y-101395202D01*
X225725282Y-101366550D01*
X225668049Y-101357000D01*
X225435951Y-101357000D01*
X225390164Y-101364640D01*
X225207015Y-101395202D01*
X224987504Y-101470561D01*
X224987495Y-101470564D01*
X224783371Y-101581031D01*
X224783365Y-101581035D01*
X224600222Y-101723581D01*
X224600219Y-101723584D01*
X224443016Y-101894352D01*
X224316075Y-102088651D01*
X224222842Y-102301199D01*
X224165866Y-102526191D01*
X224165864Y-102526202D01*
X224146700Y-102757493D01*
X224146700Y-102757506D01*
X224165864Y-102988797D01*
X224165866Y-102988808D01*
X224215116Y-103183288D01*
X224212491Y-103253108D01*
X224182591Y-103301409D01*
X210334358Y-117149642D01*
X210320729Y-117161421D01*
X210301469Y-117175760D01*
X210269632Y-117213701D01*
X210262346Y-117221654D01*
X210258407Y-117225594D01*
X210239176Y-117249915D01*
X210236902Y-117252707D01*
X210188694Y-117310160D01*
X210184729Y-117316189D01*
X210184682Y-117316158D01*
X210180630Y-117322517D01*
X210180679Y-117322547D01*
X210176889Y-117328691D01*
X210145192Y-117396664D01*
X210143623Y-117399906D01*
X210109957Y-117466942D01*
X210107488Y-117473727D01*
X210107432Y-117473706D01*
X210104960Y-117480820D01*
X210105015Y-117480839D01*
X210102743Y-117487695D01*
X210087573Y-117561158D01*
X210086793Y-117564674D01*
X210069499Y-117637649D01*
X210068661Y-117644824D01*
X210068601Y-117644817D01*
X210067835Y-117652315D01*
X210067895Y-117652321D01*
X210067265Y-117659510D01*
X210069448Y-117734498D01*
X210069500Y-117738105D01*
X210069500Y-118845677D01*
X210052887Y-118907677D01*
X209992821Y-119011714D01*
X209934327Y-119191740D01*
X209934326Y-119191744D01*
X209914540Y-119380000D01*
X166355462Y-119380000D01*
X166348996Y-119314353D01*
X166346761Y-119291654D01*
X166359780Y-119223008D01*
X166407845Y-119172298D01*
X166470164Y-119155500D01*
X171091295Y-119155500D01*
X171109265Y-119156809D01*
X171133023Y-119160289D01*
X171182369Y-119155971D01*
X171193176Y-119155500D01*
X171198704Y-119155500D01*
X171198709Y-119155500D01*
X171229556Y-119151893D01*
X171233030Y-119151539D01*
X171307797Y-119144999D01*
X171307805Y-119144996D01*
X171314866Y-119143539D01*
X171314878Y-119143598D01*
X171322243Y-119141965D01*
X171322229Y-119141906D01*
X171329249Y-119140241D01*
X171329255Y-119140241D01*
X171399779Y-119114572D01*
X171403117Y-119113412D01*
X171474334Y-119089814D01*
X171474342Y-119089808D01*
X171480882Y-119086760D01*
X171480908Y-119086816D01*
X171487690Y-119083532D01*
X171487663Y-119083478D01*
X171494113Y-119080238D01*
X171494117Y-119080237D01*
X171556837Y-119038984D01*
X171559732Y-119037140D01*
X171623656Y-118997712D01*
X171623662Y-118997705D01*
X171629325Y-118993229D01*
X171629362Y-118993277D01*
X171635204Y-118988518D01*
X171635164Y-118988471D01*
X171640686Y-118983835D01*
X171640696Y-118983830D01*
X171692185Y-118929253D01*
X171694632Y-118926734D01*
X172872770Y-117748595D01*
X172934091Y-117715112D01*
X172934427Y-117715039D01*
X172999803Y-117701144D01*
X173172730Y-117624151D01*
X173325871Y-117512888D01*
X173452533Y-117372216D01*
X173547179Y-117208284D01*
X173605674Y-117028256D01*
X173625460Y-116840002D01*
X191815340Y-116840002D01*
X191833944Y-117052654D01*
X191833945Y-117052662D01*
X191889194Y-117258853D01*
X191889197Y-117258859D01*
X191979413Y-117452329D01*
X192018415Y-117508030D01*
X192642046Y-116884399D01*
X192654835Y-116965148D01*
X192712359Y-117078045D01*
X192801955Y-117167641D01*
X192914852Y-117225165D01*
X192995599Y-117237953D01*
X192371968Y-117861584D01*
X192427663Y-117900582D01*
X192427669Y-117900586D01*
X192621140Y-117990802D01*
X192621146Y-117990805D01*
X192827337Y-118046054D01*
X192827345Y-118046055D01*
X193039998Y-118064660D01*
X193040002Y-118064660D01*
X193252654Y-118046055D01*
X193252662Y-118046054D01*
X193458853Y-117990805D01*
X193458864Y-117990801D01*
X193652325Y-117900589D01*
X193708030Y-117861583D01*
X193084401Y-117237953D01*
X193165148Y-117225165D01*
X193278045Y-117167641D01*
X193367641Y-117078045D01*
X193425165Y-116965148D01*
X193437953Y-116884400D01*
X194061583Y-117508029D01*
X194100589Y-117452325D01*
X194190801Y-117258864D01*
X194192658Y-117253764D01*
X194194567Y-117254458D01*
X194226291Y-117202362D01*
X194289125Y-117171806D01*
X194358504Y-117180071D01*
X194412401Y-117224533D01*
X194425989Y-117254256D01*
X194426870Y-117253936D01*
X194428722Y-117259022D01*
X194428724Y-117259030D01*
X194455378Y-117316189D01*
X194518977Y-117452578D01*
X194518978Y-117452580D01*
X194518979Y-117452581D01*
X194536554Y-117477681D01*
X194641472Y-117627521D01*
X194792478Y-117778527D01*
X194792481Y-117778529D01*
X194967419Y-117901021D01*
X194967421Y-117901022D01*
X194967420Y-117901022D01*
X195031936Y-117931106D01*
X195160970Y-117991276D01*
X195160976Y-117991277D01*
X195160977Y-117991278D01*
X195210627Y-118004581D01*
X195367253Y-118046549D01*
X195519215Y-118059844D01*
X195579998Y-118065162D01*
X195580000Y-118065162D01*
X195580002Y-118065162D01*
X195633186Y-118060508D01*
X195792747Y-118046549D01*
X195999030Y-117991276D01*
X196192581Y-117901021D01*
X196367519Y-117778529D01*
X196518529Y-117627519D01*
X196641021Y-117452581D01*
X196731276Y-117259030D01*
X196731280Y-117259013D01*
X196733130Y-117253936D01*
X196735253Y-117254709D01*
X196766576Y-117203305D01*
X196829419Y-117172766D01*
X196898796Y-117181050D01*
X196952680Y-117225528D01*
X196965827Y-117254315D01*
X196966870Y-117253936D01*
X196968722Y-117259022D01*
X196968724Y-117259030D01*
X196995378Y-117316189D01*
X197058977Y-117452578D01*
X197058978Y-117452580D01*
X197058979Y-117452581D01*
X197076554Y-117477681D01*
X197181472Y-117627521D01*
X197332478Y-117778527D01*
X197332481Y-117778529D01*
X197507419Y-117901021D01*
X197507421Y-117901022D01*
X197507420Y-117901022D01*
X197571936Y-117931106D01*
X197700970Y-117991276D01*
X197700976Y-117991277D01*
X197700977Y-117991278D01*
X197750627Y-118004581D01*
X197907253Y-118046549D01*
X198059215Y-118059844D01*
X198119998Y-118065162D01*
X198120000Y-118065162D01*
X198120002Y-118065162D01*
X198173186Y-118060508D01*
X198332747Y-118046549D01*
X198539030Y-117991276D01*
X198732581Y-117901021D01*
X198907519Y-117778529D01*
X199058529Y-117627519D01*
X199181021Y-117452581D01*
X199271276Y-117259030D01*
X199326549Y-117052747D01*
X199345162Y-116840000D01*
X199326549Y-116627253D01*
X199272539Y-116425685D01*
X199271278Y-116420977D01*
X199271277Y-116420976D01*
X199271276Y-116420970D01*
X199181021Y-116227419D01*
X199058529Y-116052481D01*
X199058527Y-116052478D01*
X198907521Y-115901472D01*
X198732578Y-115778977D01*
X198732579Y-115778977D01*
X198603547Y-115718809D01*
X198539030Y-115688724D01*
X198539026Y-115688723D01*
X198539022Y-115688721D01*
X198332752Y-115633452D01*
X198332748Y-115633451D01*
X198332747Y-115633451D01*
X198332746Y-115633450D01*
X198332741Y-115633450D01*
X198120002Y-115614838D01*
X198119998Y-115614838D01*
X197907258Y-115633450D01*
X197907247Y-115633452D01*
X197700977Y-115688721D01*
X197700968Y-115688725D01*
X197507421Y-115778977D01*
X197332478Y-115901472D01*
X197181472Y-116052478D01*
X197058977Y-116227421D01*
X196968725Y-116420968D01*
X196966870Y-116426064D01*
X196964749Y-116425292D01*
X196933406Y-116476710D01*
X196870558Y-116507237D01*
X196801183Y-116498939D01*
X196747307Y-116454452D01*
X196734169Y-116425685D01*
X196733130Y-116426064D01*
X196731279Y-116420983D01*
X196731276Y-116420970D01*
X196641021Y-116227419D01*
X196518529Y-116052481D01*
X196518527Y-116052478D01*
X196367521Y-115901472D01*
X196192578Y-115778977D01*
X196192579Y-115778977D01*
X196063547Y-115718809D01*
X195999030Y-115688724D01*
X195999026Y-115688723D01*
X195999022Y-115688721D01*
X195792752Y-115633452D01*
X195792748Y-115633451D01*
X195792747Y-115633451D01*
X195792746Y-115633450D01*
X195792741Y-115633450D01*
X195580002Y-115614838D01*
X195579998Y-115614838D01*
X195367258Y-115633450D01*
X195367247Y-115633452D01*
X195160977Y-115688721D01*
X195160968Y-115688725D01*
X194967421Y-115778977D01*
X194792478Y-115901472D01*
X194641472Y-116052478D01*
X194518977Y-116227421D01*
X194428725Y-116420968D01*
X194426870Y-116426064D01*
X194425031Y-116425394D01*
X194393104Y-116477715D01*
X194330242Y-116508212D01*
X194260870Y-116499883D01*
X194207015Y-116455371D01*
X194193571Y-116425903D01*
X194192658Y-116426236D01*
X194190802Y-116421140D01*
X194100586Y-116227669D01*
X194100582Y-116227663D01*
X194061584Y-116171968D01*
X193437953Y-116795599D01*
X193425165Y-116714852D01*
X193367641Y-116601955D01*
X193278045Y-116512359D01*
X193165148Y-116454835D01*
X193084400Y-116442046D01*
X193708030Y-115818415D01*
X193652329Y-115779413D01*
X193458859Y-115689197D01*
X193458853Y-115689194D01*
X193252662Y-115633945D01*
X193252654Y-115633944D01*
X193040002Y-115615340D01*
X193039998Y-115615340D01*
X192827345Y-115633944D01*
X192827337Y-115633945D01*
X192621146Y-115689194D01*
X192621140Y-115689197D01*
X192427671Y-115779412D01*
X192427669Y-115779413D01*
X192371969Y-115818415D01*
X192371968Y-115818415D01*
X192995600Y-116442046D01*
X192914852Y-116454835D01*
X192801955Y-116512359D01*
X192712359Y-116601955D01*
X192654835Y-116714852D01*
X192642046Y-116795599D01*
X192018415Y-116171968D01*
X192018415Y-116171969D01*
X191979413Y-116227669D01*
X191979412Y-116227671D01*
X191889197Y-116421140D01*
X191889194Y-116421146D01*
X191833945Y-116627337D01*
X191833944Y-116627345D01*
X191815340Y-116839997D01*
X191815340Y-116840002D01*
X173625460Y-116840002D01*
X173625460Y-116840000D01*
X173605674Y-116651744D01*
X173547179Y-116471716D01*
X173452533Y-116307784D01*
X173325871Y-116167112D01*
X173307736Y-116153936D01*
X173172734Y-116055851D01*
X173172729Y-116055848D01*
X172999807Y-115978857D01*
X172999802Y-115978855D01*
X172854001Y-115947865D01*
X172814646Y-115939500D01*
X172625354Y-115939500D01*
X172592897Y-115946398D01*
X172440197Y-115978855D01*
X172440192Y-115978857D01*
X172267270Y-116055848D01*
X172267265Y-116055851D01*
X172114129Y-116167111D01*
X171987466Y-116307785D01*
X171892821Y-116471715D01*
X171892819Y-116471719D01*
X171837479Y-116642039D01*
X171807229Y-116691401D01*
X170880451Y-117618181D01*
X170819128Y-117651666D01*
X170792770Y-117654500D01*
X128038705Y-117654500D01*
X128020735Y-117653191D01*
X127996972Y-117649710D01*
X127950642Y-117653764D01*
X127947632Y-117654028D01*
X127936826Y-117654500D01*
X127931282Y-117654500D01*
X127900488Y-117658099D01*
X127896905Y-117658465D01*
X127822200Y-117665001D01*
X127815134Y-117666461D01*
X127815122Y-117666404D01*
X127807753Y-117668038D01*
X127807767Y-117668095D01*
X127800743Y-117669759D01*
X127730245Y-117695417D01*
X127726845Y-117696598D01*
X127655665Y-117720186D01*
X127655663Y-117720186D01*
X127655660Y-117720188D01*
X127649123Y-117723236D01*
X127649098Y-117723184D01*
X127642310Y-117726470D01*
X127642336Y-117726521D01*
X127635884Y-117729761D01*
X127573236Y-117770965D01*
X127570196Y-117772902D01*
X127506347Y-117812285D01*
X127500682Y-117816765D01*
X127500646Y-117816719D01*
X127494798Y-117821484D01*
X127494835Y-117821528D01*
X127489310Y-117826164D01*
X127437848Y-117880709D01*
X127435336Y-117883294D01*
X126847228Y-118471402D01*
X126785905Y-118504887D01*
X126785329Y-118505011D01*
X126720196Y-118518856D01*
X126720192Y-118518857D01*
X126547270Y-118595848D01*
X126547265Y-118595851D01*
X126394129Y-118707111D01*
X126267466Y-118847785D01*
X126172821Y-119011715D01*
X126172818Y-119011722D01*
X126114327Y-119191740D01*
X126114326Y-119191744D01*
X126094540Y-119380000D01*
X75760499Y-119380000D01*
X75760499Y-118492128D01*
X75754091Y-118432517D01*
X75703796Y-118297669D01*
X75703795Y-118297668D01*
X75703793Y-118297664D01*
X75617547Y-118182455D01*
X75617544Y-118182452D01*
X75502335Y-118096206D01*
X75502328Y-118096202D01*
X75367482Y-118045908D01*
X75367483Y-118045908D01*
X75307883Y-118039501D01*
X75307881Y-118039500D01*
X75307873Y-118039500D01*
X75307864Y-118039500D01*
X72012129Y-118039500D01*
X72012123Y-118039501D01*
X71952516Y-118045908D01*
X71817671Y-118096202D01*
X71817664Y-118096206D01*
X71702455Y-118182452D01*
X71702452Y-118182455D01*
X71616206Y-118297664D01*
X71616202Y-118297671D01*
X71565908Y-118432517D01*
X71561728Y-118471402D01*
X71559501Y-118492123D01*
X71559500Y-118492135D01*
X71559500Y-121787870D01*
X59722875Y-121787870D01*
X59857053Y-121678708D01*
X60053189Y-121468698D01*
X60218901Y-121233936D01*
X60351104Y-120978797D01*
X60447334Y-120708032D01*
X60505798Y-120426686D01*
X60525408Y-120140000D01*
X60505798Y-119853314D01*
X60447334Y-119571968D01*
X60351105Y-119301206D01*
X60351106Y-119301206D01*
X60218901Y-119046064D01*
X60053187Y-118811299D01*
X59955881Y-118707111D01*
X59857053Y-118601292D01*
X59634147Y-118419945D01*
X59634146Y-118419944D01*
X59388617Y-118270634D01*
X59125063Y-118156158D01*
X59125061Y-118156157D01*
X59125058Y-118156156D01*
X58995578Y-118119877D01*
X58848364Y-118078630D01*
X58848359Y-118078629D01*
X58848358Y-118078629D01*
X58706018Y-118059064D01*
X58563679Y-118039500D01*
X58563678Y-118039500D01*
X58276322Y-118039500D01*
X58276321Y-118039500D01*
X57991642Y-118078629D01*
X57991635Y-118078630D01*
X57783861Y-118136845D01*
X57714942Y-118156156D01*
X57714939Y-118156156D01*
X57714936Y-118156158D01*
X57714935Y-118156158D01*
X57451382Y-118270634D01*
X57205853Y-118419944D01*
X56982950Y-118601289D01*
X56786812Y-118811299D01*
X56621098Y-119046064D01*
X56488894Y-119301206D01*
X56392667Y-119571962D01*
X56392666Y-119571965D01*
X56334201Y-119853319D01*
X56314592Y-120140000D01*
X52204798Y-120140000D01*
X52204798Y-120139994D01*
X52185638Y-119908781D01*
X52128682Y-119683864D01*
X52035484Y-119471393D01*
X51951186Y-119342365D01*
X51283076Y-120010475D01*
X51259493Y-119930156D01*
X51181761Y-119809202D01*
X51073100Y-119715048D01*
X50942315Y-119655320D01*
X50932532Y-119653913D01*
X51598797Y-118987647D01*
X51598797Y-118987645D01*
X51568360Y-118963955D01*
X51568354Y-118963951D01*
X51364302Y-118853523D01*
X51364293Y-118853520D01*
X51144860Y-118778188D01*
X50916007Y-118740000D01*
X50683993Y-118740000D01*
X50455139Y-118778188D01*
X50235706Y-118853520D01*
X50235697Y-118853523D01*
X50031650Y-118963949D01*
X50001200Y-118987647D01*
X50667467Y-119653913D01*
X50657685Y-119655320D01*
X50526900Y-119715048D01*
X50418239Y-119809202D01*
X50340507Y-119930156D01*
X50316922Y-120010476D01*
X49648811Y-119342365D01*
X49564516Y-119471390D01*
X49471317Y-119683864D01*
X49414361Y-119908781D01*
X49395202Y-120139994D01*
X49395202Y-120140005D01*
X49414361Y-120371218D01*
X49471317Y-120596135D01*
X49564515Y-120808606D01*
X49648812Y-120937633D01*
X50316922Y-120269523D01*
X50340507Y-120349844D01*
X50418239Y-120470798D01*
X50526900Y-120564952D01*
X50657685Y-120624680D01*
X50667466Y-120626086D01*
X50001201Y-121292351D01*
X50026226Y-121311829D01*
X50067038Y-121368539D01*
X50070713Y-121438312D01*
X50036081Y-121498995D01*
X50026226Y-121507535D01*
X49848218Y-121646085D01*
X49691016Y-121816852D01*
X49564075Y-122011151D01*
X49470842Y-122223699D01*
X49413866Y-122448691D01*
X49413864Y-122448702D01*
X49394700Y-122679993D01*
X49394700Y-122680006D01*
X43180500Y-122680006D01*
X43180500Y-116727870D01*
X81559500Y-116727870D01*
X81559501Y-116727876D01*
X81565908Y-116787483D01*
X81616202Y-116922328D01*
X81616206Y-116922335D01*
X81702452Y-117037544D01*
X81702455Y-117037547D01*
X81817664Y-117123793D01*
X81817671Y-117123797D01*
X81952517Y-117174091D01*
X81952516Y-117174091D01*
X81959444Y-117174835D01*
X82012127Y-117180500D01*
X83707872Y-117180499D01*
X83767483Y-117174091D01*
X83902331Y-117123796D01*
X84017546Y-117037546D01*
X84103796Y-116922331D01*
X84154091Y-116787483D01*
X84160500Y-116727873D01*
X84160500Y-115880002D01*
X85055034Y-115880002D01*
X85074858Y-116106599D01*
X85074860Y-116106610D01*
X85133730Y-116326317D01*
X85133735Y-116326331D01*
X85229863Y-116532478D01*
X85280974Y-116605472D01*
X85962046Y-115924400D01*
X85974835Y-116005148D01*
X86032359Y-116118045D01*
X86121955Y-116207641D01*
X86234852Y-116265165D01*
X86315599Y-116277953D01*
X85634526Y-116959025D01*
X85707513Y-117010132D01*
X85707521Y-117010136D01*
X85913668Y-117106264D01*
X85913682Y-117106269D01*
X86133389Y-117165139D01*
X86133400Y-117165141D01*
X86359998Y-117184966D01*
X86360002Y-117184966D01*
X86586599Y-117165141D01*
X86586610Y-117165139D01*
X86806317Y-117106269D01*
X86806331Y-117106264D01*
X87012478Y-117010136D01*
X87085471Y-116959024D01*
X87029948Y-116903501D01*
X90784032Y-116903501D01*
X90803864Y-117130186D01*
X90803866Y-117130197D01*
X90862758Y-117349988D01*
X90862761Y-117349997D01*
X90958931Y-117556232D01*
X90958932Y-117556234D01*
X91089454Y-117742641D01*
X91250358Y-117903545D01*
X91250361Y-117903547D01*
X91436766Y-118034068D01*
X91643004Y-118130239D01*
X91862808Y-118189135D01*
X92024730Y-118203301D01*
X92089498Y-118208968D01*
X92089500Y-118208968D01*
X92089502Y-118208968D01*
X92146173Y-118204009D01*
X92316192Y-118189135D01*
X92535996Y-118130239D01*
X92742234Y-118034068D01*
X92928639Y-117903547D01*
X93089547Y-117742639D01*
X93220068Y-117556234D01*
X93316239Y-117349996D01*
X93375135Y-117130192D01*
X93393320Y-116922335D01*
X93394968Y-116903501D01*
X103484032Y-116903501D01*
X103503864Y-117130186D01*
X103503866Y-117130197D01*
X103562758Y-117349988D01*
X103562761Y-117349997D01*
X103658931Y-117556232D01*
X103658932Y-117556234D01*
X103789454Y-117742641D01*
X103950358Y-117903545D01*
X103950361Y-117903547D01*
X104136766Y-118034068D01*
X104343004Y-118130239D01*
X104562808Y-118189135D01*
X104724730Y-118203301D01*
X104789498Y-118208968D01*
X104789500Y-118208968D01*
X104789502Y-118208968D01*
X104846173Y-118204009D01*
X105016192Y-118189135D01*
X105235996Y-118130239D01*
X105442234Y-118034068D01*
X105628639Y-117903547D01*
X105789547Y-117742639D01*
X105920068Y-117556234D01*
X106016239Y-117349996D01*
X106075135Y-117130192D01*
X106093320Y-116922335D01*
X106094968Y-116903501D01*
X106094968Y-116903498D01*
X106079603Y-116727876D01*
X106075135Y-116676808D01*
X106024128Y-116486446D01*
X106016241Y-116457011D01*
X106016238Y-116457002D01*
X105920068Y-116250766D01*
X105789547Y-116064361D01*
X105789545Y-116064358D01*
X105628641Y-115903454D01*
X105442234Y-115772932D01*
X105442232Y-115772931D01*
X105235997Y-115676761D01*
X105235988Y-115676758D01*
X105016197Y-115617866D01*
X105016193Y-115617865D01*
X105016192Y-115617865D01*
X105016191Y-115617864D01*
X105016186Y-115617864D01*
X104789502Y-115598032D01*
X104789498Y-115598032D01*
X104562813Y-115617864D01*
X104562802Y-115617866D01*
X104343011Y-115676758D01*
X104343002Y-115676761D01*
X104136767Y-115772931D01*
X104136765Y-115772932D01*
X103950358Y-115903454D01*
X103789454Y-116064358D01*
X103658932Y-116250765D01*
X103658931Y-116250767D01*
X103562761Y-116457002D01*
X103562758Y-116457011D01*
X103503866Y-116676802D01*
X103503864Y-116676813D01*
X103484032Y-116903498D01*
X103484032Y-116903501D01*
X93394968Y-116903501D01*
X93394968Y-116903498D01*
X93379603Y-116727876D01*
X93375135Y-116676808D01*
X93324128Y-116486446D01*
X93316241Y-116457011D01*
X93316238Y-116457002D01*
X93220068Y-116250766D01*
X93089547Y-116064361D01*
X93089545Y-116064358D01*
X92928641Y-115903454D01*
X92742234Y-115772932D01*
X92742232Y-115772931D01*
X92535997Y-115676761D01*
X92535988Y-115676758D01*
X92316197Y-115617866D01*
X92316193Y-115617865D01*
X92316192Y-115617865D01*
X92316191Y-115617864D01*
X92316186Y-115617864D01*
X92089502Y-115598032D01*
X92089498Y-115598032D01*
X91862813Y-115617864D01*
X91862802Y-115617866D01*
X91643011Y-115676758D01*
X91643002Y-115676761D01*
X91436767Y-115772931D01*
X91436765Y-115772932D01*
X91250358Y-115903454D01*
X91089454Y-116064358D01*
X90958932Y-116250765D01*
X90958931Y-116250767D01*
X90862761Y-116457002D01*
X90862758Y-116457011D01*
X90803866Y-116676802D01*
X90803864Y-116676813D01*
X90784032Y-116903498D01*
X90784032Y-116903501D01*
X87029948Y-116903501D01*
X86404400Y-116277953D01*
X86485148Y-116265165D01*
X86598045Y-116207641D01*
X86687641Y-116118045D01*
X86745165Y-116005148D01*
X86757953Y-115924400D01*
X87439024Y-116605471D01*
X87490136Y-116532478D01*
X87586264Y-116326331D01*
X87586269Y-116326317D01*
X87645139Y-116106610D01*
X87645141Y-116106599D01*
X87664966Y-115880002D01*
X87664966Y-115879997D01*
X87645141Y-115653400D01*
X87645139Y-115653389D01*
X87586269Y-115433682D01*
X87586264Y-115433668D01*
X87490136Y-115227521D01*
X87490132Y-115227513D01*
X87439025Y-115154526D01*
X86757953Y-115835598D01*
X86745165Y-115754852D01*
X86687641Y-115641955D01*
X86598045Y-115552359D01*
X86485148Y-115494835D01*
X86404401Y-115482046D01*
X87085472Y-114800974D01*
X87012478Y-114749863D01*
X86806331Y-114653735D01*
X86806317Y-114653730D01*
X86586610Y-114594860D01*
X86586599Y-114594858D01*
X86360002Y-114575034D01*
X86359998Y-114575034D01*
X86133400Y-114594858D01*
X86133389Y-114594860D01*
X85913682Y-114653730D01*
X85913673Y-114653734D01*
X85707516Y-114749866D01*
X85707512Y-114749868D01*
X85634526Y-114800973D01*
X85634526Y-114800974D01*
X86315599Y-115482046D01*
X86234852Y-115494835D01*
X86121955Y-115552359D01*
X86032359Y-115641955D01*
X85974835Y-115754852D01*
X85962046Y-115835598D01*
X85280974Y-115154526D01*
X85280973Y-115154526D01*
X85229868Y-115227512D01*
X85229866Y-115227516D01*
X85133734Y-115433673D01*
X85133730Y-115433682D01*
X85074860Y-115653389D01*
X85074858Y-115653400D01*
X85055034Y-115879997D01*
X85055034Y-115880002D01*
X84160500Y-115880002D01*
X84160499Y-115032128D01*
X84154091Y-114972517D01*
X84131736Y-114912581D01*
X84103797Y-114837671D01*
X84103793Y-114837664D01*
X84017547Y-114722455D01*
X84017544Y-114722452D01*
X83902335Y-114636206D01*
X83902328Y-114636202D01*
X83767482Y-114585908D01*
X83767483Y-114585908D01*
X83707883Y-114579501D01*
X83707881Y-114579500D01*
X83707873Y-114579500D01*
X83707864Y-114579500D01*
X82012129Y-114579500D01*
X82012123Y-114579501D01*
X81952516Y-114585908D01*
X81817671Y-114636202D01*
X81817664Y-114636206D01*
X81702455Y-114722452D01*
X81702452Y-114722455D01*
X81616206Y-114837664D01*
X81616202Y-114837671D01*
X81565908Y-114972517D01*
X81559851Y-115028859D01*
X81559501Y-115032123D01*
X81559500Y-115032135D01*
X81559500Y-116727870D01*
X43180500Y-116727870D01*
X43180500Y-114300000D01*
X120314551Y-114300000D01*
X120334317Y-114551151D01*
X120393126Y-114796110D01*
X120489533Y-115028859D01*
X120621160Y-115243653D01*
X120621161Y-115243656D01*
X120676604Y-115308571D01*
X120784776Y-115435224D01*
X120933066Y-115561875D01*
X120976343Y-115598838D01*
X120976346Y-115598839D01*
X121191140Y-115730466D01*
X121423889Y-115826873D01*
X121668852Y-115885683D01*
X121920000Y-115905449D01*
X122171148Y-115885683D01*
X122416111Y-115826873D01*
X122648859Y-115730466D01*
X122863659Y-115598836D01*
X123055224Y-115435224D01*
X123218836Y-115243659D01*
X123350466Y-115028859D01*
X123446873Y-114796111D01*
X123505683Y-114551148D01*
X123525449Y-114300000D01*
X125114551Y-114300000D01*
X125134317Y-114551151D01*
X125193126Y-114796110D01*
X125289533Y-115028859D01*
X125421160Y-115243653D01*
X125421161Y-115243656D01*
X125476604Y-115308571D01*
X125584776Y-115435224D01*
X125733066Y-115561875D01*
X125776343Y-115598838D01*
X125776346Y-115598839D01*
X125991140Y-115730466D01*
X126223889Y-115826873D01*
X126468852Y-115885683D01*
X126720000Y-115905449D01*
X126971148Y-115885683D01*
X127216111Y-115826873D01*
X127448859Y-115730466D01*
X127663659Y-115598836D01*
X127855224Y-115435224D01*
X128018836Y-115243659D01*
X128131383Y-115060000D01*
X135054592Y-115060000D01*
X135074201Y-115346680D01*
X135074201Y-115346684D01*
X135074202Y-115346686D01*
X135083687Y-115392331D01*
X135132666Y-115628034D01*
X135132667Y-115628037D01*
X135228894Y-115898793D01*
X135228893Y-115898793D01*
X135361098Y-116153935D01*
X135526812Y-116388700D01*
X135604347Y-116471719D01*
X135722947Y-116598708D01*
X135945853Y-116780055D01*
X136179821Y-116922335D01*
X136191382Y-116929365D01*
X136377329Y-117010132D01*
X136454942Y-117043844D01*
X136731642Y-117121371D01*
X136981920Y-117155771D01*
X137016321Y-117160500D01*
X137016322Y-117160500D01*
X137303679Y-117160500D01*
X137336206Y-117156029D01*
X137588358Y-117121371D01*
X137865058Y-117043844D01*
X138046235Y-116965148D01*
X138128617Y-116929365D01*
X138128620Y-116929363D01*
X138128625Y-116929361D01*
X138374147Y-116780055D01*
X138597053Y-116598708D01*
X138793189Y-116388698D01*
X138958901Y-116153936D01*
X139091104Y-115898797D01*
X139187334Y-115628032D01*
X139245798Y-115346686D01*
X139255977Y-115197870D01*
X204389500Y-115197870D01*
X204389501Y-115197876D01*
X204395908Y-115257483D01*
X204446202Y-115392328D01*
X204446206Y-115392335D01*
X204532452Y-115507544D01*
X204532455Y-115507547D01*
X204647664Y-115593793D01*
X204647671Y-115593797D01*
X204782517Y-115644091D01*
X204782516Y-115644091D01*
X204789444Y-115644835D01*
X204842127Y-115650500D01*
X206637872Y-115650499D01*
X206697483Y-115644091D01*
X206832331Y-115593796D01*
X206947546Y-115507546D01*
X207033796Y-115392331D01*
X207084091Y-115257483D01*
X207090500Y-115197873D01*
X207090499Y-113402128D01*
X207084091Y-113342517D01*
X207083131Y-113339944D01*
X207033797Y-113207671D01*
X207033793Y-113207664D01*
X206947547Y-113092455D01*
X206947544Y-113092452D01*
X206832335Y-113006206D01*
X206832328Y-113006202D01*
X206697482Y-112955908D01*
X206697483Y-112955908D01*
X206637883Y-112949501D01*
X206637881Y-112949500D01*
X206637873Y-112949500D01*
X206637864Y-112949500D01*
X204842129Y-112949500D01*
X204842123Y-112949501D01*
X204782516Y-112955908D01*
X204647671Y-113006202D01*
X204647664Y-113006206D01*
X204532455Y-113092452D01*
X204532452Y-113092455D01*
X204446206Y-113207664D01*
X204446202Y-113207671D01*
X204395908Y-113342517D01*
X204389501Y-113402116D01*
X204389501Y-113402123D01*
X204389500Y-113402135D01*
X204389500Y-115197870D01*
X139255977Y-115197870D01*
X139265408Y-115060000D01*
X139245798Y-114773314D01*
X139187334Y-114491968D01*
X139091105Y-114221206D01*
X139091106Y-114221206D01*
X138958901Y-113966064D01*
X138793187Y-113731299D01*
X138714554Y-113647105D01*
X138597053Y-113521292D01*
X138394303Y-113356343D01*
X138374146Y-113339944D01*
X138128617Y-113190634D01*
X137865063Y-113076158D01*
X137865061Y-113076157D01*
X137865058Y-113076156D01*
X137735578Y-113039877D01*
X137588364Y-112998630D01*
X137588359Y-112998629D01*
X137588358Y-112998629D01*
X137446018Y-112979064D01*
X137303679Y-112959500D01*
X137303678Y-112959500D01*
X137016322Y-112959500D01*
X137016321Y-112959500D01*
X136731642Y-112998629D01*
X136731635Y-112998630D01*
X136559230Y-113046936D01*
X136454942Y-113076156D01*
X136454939Y-113076156D01*
X136454936Y-113076158D01*
X136454935Y-113076158D01*
X136191382Y-113190634D01*
X135945853Y-113339944D01*
X135722950Y-113521289D01*
X135526812Y-113731299D01*
X135361098Y-113966064D01*
X135228894Y-114221206D01*
X135132667Y-114491962D01*
X135132666Y-114491965D01*
X135074201Y-114773319D01*
X135054592Y-115060000D01*
X128131383Y-115060000D01*
X128150466Y-115028859D01*
X128246873Y-114796111D01*
X128305683Y-114551148D01*
X128325449Y-114300000D01*
X128305683Y-114048852D01*
X128246873Y-113803889D01*
X128150466Y-113571141D01*
X128150466Y-113571140D01*
X128018839Y-113356346D01*
X128018838Y-113356343D01*
X127918599Y-113238979D01*
X127855224Y-113164776D01*
X127721519Y-113050581D01*
X127663656Y-113001161D01*
X127663653Y-113001160D01*
X127448859Y-112869533D01*
X127216110Y-112773126D01*
X126971151Y-112714317D01*
X126720000Y-112694551D01*
X126468848Y-112714317D01*
X126223889Y-112773126D01*
X125991140Y-112869533D01*
X125776346Y-113001160D01*
X125776343Y-113001161D01*
X125584776Y-113164776D01*
X125421161Y-113356343D01*
X125421160Y-113356346D01*
X125289533Y-113571140D01*
X125193126Y-113803889D01*
X125134317Y-114048848D01*
X125114551Y-114300000D01*
X123525449Y-114300000D01*
X123505683Y-114048852D01*
X123446873Y-113803889D01*
X123350466Y-113571141D01*
X123350466Y-113571140D01*
X123218839Y-113356346D01*
X123218838Y-113356343D01*
X123118599Y-113238979D01*
X123055224Y-113164776D01*
X122921519Y-113050581D01*
X122863656Y-113001161D01*
X122863653Y-113001160D01*
X122648859Y-112869533D01*
X122416110Y-112773126D01*
X122171151Y-112714317D01*
X121920000Y-112694551D01*
X121668848Y-112714317D01*
X121423889Y-112773126D01*
X121191140Y-112869533D01*
X120976346Y-113001160D01*
X120976343Y-113001161D01*
X120784776Y-113164776D01*
X120621161Y-113356343D01*
X120621160Y-113356346D01*
X120489533Y-113571140D01*
X120393126Y-113803889D01*
X120334317Y-114048848D01*
X120314551Y-114300000D01*
X43180500Y-114300000D01*
X43180500Y-109980006D01*
X49394700Y-109980006D01*
X49413864Y-110211297D01*
X49413866Y-110211308D01*
X49470842Y-110436300D01*
X49564075Y-110648848D01*
X49691016Y-110843147D01*
X49691019Y-110843151D01*
X49691021Y-110843153D01*
X49848216Y-111013913D01*
X49848219Y-111013915D01*
X49848222Y-111013918D01*
X50031365Y-111156464D01*
X50031371Y-111156468D01*
X50031374Y-111156470D01*
X50235497Y-111266936D01*
X50342584Y-111303699D01*
X50455015Y-111342297D01*
X50455017Y-111342297D01*
X50455019Y-111342298D01*
X50683951Y-111380500D01*
X50683952Y-111380500D01*
X50916048Y-111380500D01*
X50916049Y-111380500D01*
X51144981Y-111342298D01*
X51364503Y-111266936D01*
X51568626Y-111156470D01*
X51751784Y-111013913D01*
X51908979Y-110843153D01*
X52035924Y-110648849D01*
X52129157Y-110436300D01*
X52186134Y-110211305D01*
X52193527Y-110122085D01*
X52205300Y-109980006D01*
X52205300Y-109980000D01*
X56314592Y-109980000D01*
X56334201Y-110266680D01*
X56392666Y-110548034D01*
X56392667Y-110548037D01*
X56488894Y-110818793D01*
X56488893Y-110818793D01*
X56621098Y-111073935D01*
X56786812Y-111308700D01*
X56866563Y-111394091D01*
X56982947Y-111518708D01*
X57205853Y-111700055D01*
X57406926Y-111822331D01*
X57451382Y-111849365D01*
X57638237Y-111930526D01*
X57714942Y-111963844D01*
X57991642Y-112041371D01*
X58229694Y-112074091D01*
X58276321Y-112080500D01*
X58276322Y-112080500D01*
X58563679Y-112080500D01*
X58610306Y-112074091D01*
X58848358Y-112041371D01*
X59125058Y-111963844D01*
X59300781Y-111887517D01*
X59388617Y-111849365D01*
X59388620Y-111849363D01*
X59388625Y-111849361D01*
X59634147Y-111700055D01*
X59722875Y-111627870D01*
X71559500Y-111627870D01*
X71559501Y-111627876D01*
X71565908Y-111687483D01*
X71616202Y-111822328D01*
X71616206Y-111822335D01*
X71702452Y-111937544D01*
X71702455Y-111937547D01*
X71817664Y-112023793D01*
X71817671Y-112023797D01*
X71952517Y-112074091D01*
X71952516Y-112074091D01*
X71959444Y-112074835D01*
X72012127Y-112080500D01*
X75307872Y-112080499D01*
X75367483Y-112074091D01*
X75502331Y-112023796D01*
X75617546Y-111937546D01*
X75703796Y-111822331D01*
X75754091Y-111687483D01*
X75760500Y-111627873D01*
X75760500Y-111627870D01*
X94419500Y-111627870D01*
X94419501Y-111627876D01*
X94425908Y-111687483D01*
X94476202Y-111822328D01*
X94476206Y-111822335D01*
X94562452Y-111937544D01*
X94562455Y-111937547D01*
X94677664Y-112023793D01*
X94677671Y-112023797D01*
X94812517Y-112074091D01*
X94812516Y-112074091D01*
X94819444Y-112074835D01*
X94872127Y-112080500D01*
X98167872Y-112080499D01*
X98227483Y-112074091D01*
X98362331Y-112023796D01*
X98477546Y-111937546D01*
X98563796Y-111822331D01*
X98587042Y-111760006D01*
X145914700Y-111760006D01*
X145933864Y-111991297D01*
X145933866Y-111991308D01*
X145990842Y-112216300D01*
X146084075Y-112428848D01*
X146211016Y-112623147D01*
X146211019Y-112623151D01*
X146211021Y-112623153D01*
X146368216Y-112793913D01*
X146368219Y-112793915D01*
X146368222Y-112793918D01*
X146551365Y-112936464D01*
X146551371Y-112936468D01*
X146551374Y-112936470D01*
X146755497Y-113046936D01*
X146809479Y-113065468D01*
X146975015Y-113122297D01*
X146975017Y-113122297D01*
X146975019Y-113122298D01*
X147203951Y-113160500D01*
X147203952Y-113160500D01*
X147436048Y-113160500D01*
X147436049Y-113160500D01*
X147664981Y-113122298D01*
X147884503Y-113046936D01*
X148088626Y-112936470D01*
X148118614Y-112913130D01*
X148236955Y-112821021D01*
X148271784Y-112793913D01*
X148428979Y-112623153D01*
X148486191Y-112535582D01*
X148539337Y-112490226D01*
X148608568Y-112480802D01*
X148671904Y-112510304D01*
X148693809Y-112535583D01*
X148751016Y-112623147D01*
X148751019Y-112623151D01*
X148751021Y-112623153D01*
X148908216Y-112793913D01*
X148908219Y-112793915D01*
X148908222Y-112793918D01*
X149091365Y-112936464D01*
X149091371Y-112936468D01*
X149091374Y-112936470D01*
X149295497Y-113046936D01*
X149349479Y-113065468D01*
X149515015Y-113122297D01*
X149515017Y-113122297D01*
X149515019Y-113122298D01*
X149743951Y-113160500D01*
X149743952Y-113160500D01*
X149976048Y-113160500D01*
X149976049Y-113160500D01*
X150204981Y-113122298D01*
X150424503Y-113046936D01*
X150628626Y-112936470D01*
X150658614Y-112913130D01*
X150776955Y-112821021D01*
X150811784Y-112793913D01*
X150968979Y-112623153D01*
X151095924Y-112428849D01*
X151189157Y-112216300D01*
X151246134Y-111991305D01*
X151246516Y-111986697D01*
X151265300Y-111760006D01*
X156074700Y-111760006D01*
X156093864Y-111991297D01*
X156093866Y-111991308D01*
X156150842Y-112216300D01*
X156244075Y-112428848D01*
X156371016Y-112623147D01*
X156371019Y-112623151D01*
X156371021Y-112623153D01*
X156528216Y-112793913D01*
X156528219Y-112793915D01*
X156528222Y-112793918D01*
X156711365Y-112936464D01*
X156711371Y-112936468D01*
X156711374Y-112936470D01*
X156915497Y-113046936D01*
X156969479Y-113065468D01*
X157135015Y-113122297D01*
X157135017Y-113122297D01*
X157135019Y-113122298D01*
X157363951Y-113160500D01*
X157363952Y-113160500D01*
X157596048Y-113160500D01*
X157596049Y-113160500D01*
X157824981Y-113122298D01*
X158044503Y-113046936D01*
X158248626Y-112936470D01*
X158278614Y-112913130D01*
X158396955Y-112821021D01*
X158431784Y-112793913D01*
X158588979Y-112623153D01*
X158646191Y-112535582D01*
X158699337Y-112490226D01*
X158768568Y-112480802D01*
X158831904Y-112510304D01*
X158853809Y-112535583D01*
X158911016Y-112623147D01*
X158911019Y-112623151D01*
X158911021Y-112623153D01*
X159068216Y-112793913D01*
X159068219Y-112793915D01*
X159068222Y-112793918D01*
X159251365Y-112936464D01*
X159251371Y-112936468D01*
X159251374Y-112936470D01*
X159455497Y-113046936D01*
X159509479Y-113065468D01*
X159675015Y-113122297D01*
X159675017Y-113122297D01*
X159675019Y-113122298D01*
X159903951Y-113160500D01*
X159903952Y-113160500D01*
X160136048Y-113160500D01*
X160136049Y-113160500D01*
X160364981Y-113122298D01*
X160584503Y-113046936D01*
X160788626Y-112936470D01*
X160818614Y-112913130D01*
X160936955Y-112821021D01*
X160971784Y-112793913D01*
X161128979Y-112623153D01*
X161255924Y-112428849D01*
X161349157Y-112216300D01*
X161406134Y-111991305D01*
X161406516Y-111986697D01*
X161425300Y-111760006D01*
X161425300Y-111759993D01*
X161406135Y-111528702D01*
X161406133Y-111528691D01*
X161349157Y-111303699D01*
X161325602Y-111250000D01*
X168924538Y-111250000D01*
X168944337Y-111451031D01*
X168964867Y-111518708D01*
X168997982Y-111627876D01*
X169003306Y-111645424D01*
X169003929Y-111715291D01*
X168989530Y-111744386D01*
X168990452Y-111744890D01*
X168986202Y-111752671D01*
X168935908Y-111887517D01*
X168930530Y-111937544D01*
X168929501Y-111947123D01*
X168929500Y-111947135D01*
X168929500Y-113092870D01*
X168929501Y-113092876D01*
X168935908Y-113152483D01*
X168986202Y-113287328D01*
X168986206Y-113287335D01*
X169072452Y-113402544D01*
X169072455Y-113402547D01*
X169187664Y-113488793D01*
X169187671Y-113488797D01*
X169322517Y-113539091D01*
X169322516Y-113539091D01*
X169329444Y-113539835D01*
X169382127Y-113545500D01*
X170977872Y-113545499D01*
X171037483Y-113539091D01*
X171172331Y-113488796D01*
X171287546Y-113402546D01*
X171373796Y-113287331D01*
X171424091Y-113152483D01*
X171430500Y-113092873D01*
X171430499Y-111947128D01*
X171424091Y-111887517D01*
X171409861Y-111849365D01*
X171376531Y-111760001D01*
X179034532Y-111760001D01*
X179054364Y-111986686D01*
X179054366Y-111986697D01*
X179113258Y-112206488D01*
X179113261Y-112206497D01*
X179209431Y-112412732D01*
X179209432Y-112412734D01*
X179339954Y-112599141D01*
X179500858Y-112760045D01*
X179500861Y-112760047D01*
X179687266Y-112890568D01*
X179893504Y-112986739D01*
X180113308Y-113045635D01*
X180275230Y-113059801D01*
X180339998Y-113065468D01*
X180340000Y-113065468D01*
X180340002Y-113065468D01*
X180396673Y-113060509D01*
X180566692Y-113045635D01*
X180786496Y-112986739D01*
X180992734Y-112890568D01*
X181179139Y-112760047D01*
X181340047Y-112599139D01*
X181470568Y-112412734D01*
X181566739Y-112206496D01*
X181625635Y-111986692D01*
X181643937Y-111777500D01*
X181645468Y-111760001D01*
X184114532Y-111760001D01*
X184134364Y-111986686D01*
X184134366Y-111986697D01*
X184193258Y-112206488D01*
X184193261Y-112206497D01*
X184289431Y-112412732D01*
X184289432Y-112412734D01*
X184419954Y-112599141D01*
X184580858Y-112760045D01*
X184580861Y-112760047D01*
X184767266Y-112890568D01*
X184973504Y-112986739D01*
X185193308Y-113045635D01*
X185355230Y-113059801D01*
X185419998Y-113065468D01*
X185420000Y-113065468D01*
X185420002Y-113065468D01*
X185476673Y-113060509D01*
X185646692Y-113045635D01*
X185866496Y-112986739D01*
X186072734Y-112890568D01*
X186259139Y-112760047D01*
X186420047Y-112599139D01*
X186550568Y-112412734D01*
X186646739Y-112206496D01*
X186705635Y-111986692D01*
X186723937Y-111777500D01*
X186725468Y-111760001D01*
X186725468Y-111759998D01*
X186713909Y-111627883D01*
X186705635Y-111533308D01*
X186654100Y-111340977D01*
X186646741Y-111313511D01*
X186646738Y-111313502D01*
X186625023Y-111266935D01*
X186550568Y-111107266D01*
X186420047Y-110920861D01*
X186420045Y-110920858D01*
X186259141Y-110759954D01*
X186072734Y-110629432D01*
X186072732Y-110629431D01*
X185866497Y-110533261D01*
X185866488Y-110533258D01*
X185646697Y-110474366D01*
X185646693Y-110474365D01*
X185646692Y-110474365D01*
X185646691Y-110474364D01*
X185646686Y-110474364D01*
X185420002Y-110454532D01*
X185419998Y-110454532D01*
X185193313Y-110474364D01*
X185193302Y-110474366D01*
X184973511Y-110533258D01*
X184973502Y-110533261D01*
X184767267Y-110629431D01*
X184767265Y-110629432D01*
X184580858Y-110759954D01*
X184419954Y-110920858D01*
X184289432Y-111107265D01*
X184289431Y-111107267D01*
X184193261Y-111313502D01*
X184193258Y-111313511D01*
X184134366Y-111533302D01*
X184134364Y-111533313D01*
X184114532Y-111759998D01*
X184114532Y-111760001D01*
X181645468Y-111760001D01*
X181645468Y-111759998D01*
X181633909Y-111627883D01*
X181625635Y-111533308D01*
X181574100Y-111340977D01*
X181566741Y-111313511D01*
X181566738Y-111313502D01*
X181545023Y-111266935D01*
X181470568Y-111107266D01*
X181340047Y-110920861D01*
X181340045Y-110920858D01*
X181179141Y-110759954D01*
X180992734Y-110629432D01*
X180992732Y-110629431D01*
X180786497Y-110533261D01*
X180786488Y-110533258D01*
X180566697Y-110474366D01*
X180566693Y-110474365D01*
X180566692Y-110474365D01*
X180566691Y-110474364D01*
X180566686Y-110474364D01*
X180340002Y-110454532D01*
X180339998Y-110454532D01*
X180113313Y-110474364D01*
X180113302Y-110474366D01*
X179893511Y-110533258D01*
X179893502Y-110533261D01*
X179687267Y-110629431D01*
X179687265Y-110629432D01*
X179500858Y-110759954D01*
X179339954Y-110920858D01*
X179209432Y-111107265D01*
X179209431Y-111107267D01*
X179113261Y-111313502D01*
X179113258Y-111313511D01*
X179054366Y-111533302D01*
X179054364Y-111533313D01*
X179034532Y-111759998D01*
X179034532Y-111760001D01*
X171376531Y-111760001D01*
X171373797Y-111752671D01*
X171369546Y-111744886D01*
X171371621Y-111743752D01*
X171351671Y-111690274D01*
X171356694Y-111645423D01*
X171357021Y-111644344D01*
X171357023Y-111644341D01*
X171415662Y-111451033D01*
X171435462Y-111250000D01*
X171415662Y-111048967D01*
X171357023Y-110855659D01*
X171357021Y-110855656D01*
X171357021Y-110855654D01*
X171259348Y-110672921D01*
X171245106Y-110604518D01*
X171259348Y-110556014D01*
X171356557Y-110374151D01*
X171400285Y-110230000D01*
X170517315Y-110230000D01*
X170505162Y-110229403D01*
X170489471Y-110227857D01*
X170463854Y-110225334D01*
X170498278Y-110187941D01*
X170548551Y-110073330D01*
X170558886Y-109948605D01*
X170528163Y-109827281D01*
X170464606Y-109730000D01*
X171400285Y-109730000D01*
X171356557Y-109585846D01*
X171261384Y-109407790D01*
X171261379Y-109407784D01*
X171133292Y-109251707D01*
X170977215Y-109123620D01*
X170977209Y-109123615D01*
X170799154Y-109028443D01*
X170605932Y-108969829D01*
X170455358Y-108955000D01*
X170430000Y-108955000D01*
X170430000Y-109699382D01*
X170360948Y-109645637D01*
X170242576Y-109605000D01*
X170148927Y-109605000D01*
X170056554Y-109620414D01*
X169946486Y-109679981D01*
X169930000Y-109697889D01*
X169930000Y-108955000D01*
X169904642Y-108955000D01*
X169754067Y-108969829D01*
X169560845Y-109028443D01*
X169382790Y-109123615D01*
X169382784Y-109123620D01*
X169226707Y-109251707D01*
X169098620Y-109407784D01*
X169098615Y-109407790D01*
X169003442Y-109585846D01*
X168959715Y-109730000D01*
X169900440Y-109730000D01*
X169861722Y-109772059D01*
X169811449Y-109886670D01*
X169801114Y-110011395D01*
X169831837Y-110132719D01*
X169892575Y-110225686D01*
X169870528Y-110227857D01*
X169854838Y-110229403D01*
X169842685Y-110230000D01*
X168959715Y-110230000D01*
X169003442Y-110374153D01*
X169100651Y-110556016D01*
X169114893Y-110624418D01*
X169100651Y-110672922D01*
X169002978Y-110855654D01*
X168944337Y-111048968D01*
X168924538Y-111250000D01*
X161325602Y-111250000D01*
X161255924Y-111091151D01*
X161128983Y-110896852D01*
X161128980Y-110896849D01*
X161128979Y-110896847D01*
X160971784Y-110726087D01*
X160971779Y-110726083D01*
X160971777Y-110726081D01*
X160788634Y-110583535D01*
X160788628Y-110583531D01*
X160584504Y-110473064D01*
X160584495Y-110473061D01*
X160364984Y-110397702D01*
X160193282Y-110369050D01*
X160136049Y-110359500D01*
X159903951Y-110359500D01*
X159858164Y-110367140D01*
X159675015Y-110397702D01*
X159455504Y-110473061D01*
X159455495Y-110473064D01*
X159251371Y-110583531D01*
X159251365Y-110583535D01*
X159068222Y-110726081D01*
X159068219Y-110726084D01*
X159068216Y-110726086D01*
X159068216Y-110726087D01*
X159059806Y-110735223D01*
X158911016Y-110896852D01*
X158853809Y-110984416D01*
X158800662Y-111029773D01*
X158731431Y-111039197D01*
X158668095Y-111009695D01*
X158646191Y-110984416D01*
X158588983Y-110896852D01*
X158588980Y-110896849D01*
X158588979Y-110896847D01*
X158431784Y-110726087D01*
X158431779Y-110726083D01*
X158431777Y-110726081D01*
X158248634Y-110583535D01*
X158248628Y-110583531D01*
X158044504Y-110473064D01*
X158044495Y-110473061D01*
X157824984Y-110397702D01*
X157653282Y-110369050D01*
X157596049Y-110359500D01*
X157363951Y-110359500D01*
X157318164Y-110367140D01*
X157135015Y-110397702D01*
X156915504Y-110473061D01*
X156915495Y-110473064D01*
X156711371Y-110583531D01*
X156711365Y-110583535D01*
X156528222Y-110726081D01*
X156528219Y-110726084D01*
X156528216Y-110726086D01*
X156528216Y-110726087D01*
X156519806Y-110735223D01*
X156371016Y-110896852D01*
X156244075Y-111091151D01*
X156150842Y-111303699D01*
X156093866Y-111528691D01*
X156093864Y-111528702D01*
X156074700Y-111759993D01*
X156074700Y-111760006D01*
X151265300Y-111760006D01*
X151265300Y-111759993D01*
X151246135Y-111528702D01*
X151246133Y-111528691D01*
X151189157Y-111303699D01*
X151095924Y-111091151D01*
X150968983Y-110896852D01*
X150968980Y-110896849D01*
X150968979Y-110896847D01*
X150811784Y-110726087D01*
X150811779Y-110726083D01*
X150811777Y-110726081D01*
X150628634Y-110583535D01*
X150628628Y-110583531D01*
X150424504Y-110473064D01*
X150424495Y-110473061D01*
X150204984Y-110397702D01*
X150033282Y-110369050D01*
X149976049Y-110359500D01*
X149743951Y-110359500D01*
X149698164Y-110367140D01*
X149515015Y-110397702D01*
X149295504Y-110473061D01*
X149295495Y-110473064D01*
X149091371Y-110583531D01*
X149091365Y-110583535D01*
X148908222Y-110726081D01*
X148908219Y-110726084D01*
X148908216Y-110726086D01*
X148908216Y-110726087D01*
X148899806Y-110735223D01*
X148751016Y-110896852D01*
X148693809Y-110984416D01*
X148640662Y-111029773D01*
X148571431Y-111039197D01*
X148508095Y-111009695D01*
X148486191Y-110984416D01*
X148428983Y-110896852D01*
X148428980Y-110896849D01*
X148428979Y-110896847D01*
X148271784Y-110726087D01*
X148271779Y-110726083D01*
X148271777Y-110726081D01*
X148088634Y-110583535D01*
X148088628Y-110583531D01*
X147884504Y-110473064D01*
X147884495Y-110473061D01*
X147664984Y-110397702D01*
X147493282Y-110369050D01*
X147436049Y-110359500D01*
X147203951Y-110359500D01*
X147158164Y-110367140D01*
X146975015Y-110397702D01*
X146755504Y-110473061D01*
X146755495Y-110473064D01*
X146551371Y-110583531D01*
X146551365Y-110583535D01*
X146368222Y-110726081D01*
X146368219Y-110726084D01*
X146368216Y-110726086D01*
X146368216Y-110726087D01*
X146359806Y-110735223D01*
X146211016Y-110896852D01*
X146084075Y-111091151D01*
X145990842Y-111303699D01*
X145933866Y-111528691D01*
X145933864Y-111528702D01*
X145914700Y-111759993D01*
X145914700Y-111760006D01*
X98587042Y-111760006D01*
X98614091Y-111687483D01*
X98620500Y-111627873D01*
X98620500Y-110947870D01*
X107719500Y-110947870D01*
X107719501Y-110947876D01*
X107725908Y-111007483D01*
X107776202Y-111142328D01*
X107776206Y-111142335D01*
X107862452Y-111257544D01*
X107862455Y-111257547D01*
X107977664Y-111343793D01*
X107977671Y-111343797D01*
X108112517Y-111394091D01*
X108112516Y-111394091D01*
X108119444Y-111394835D01*
X108172127Y-111400500D01*
X110267872Y-111400499D01*
X110327483Y-111394091D01*
X110462331Y-111343796D01*
X110577546Y-111257546D01*
X110663796Y-111142331D01*
X110714091Y-111007483D01*
X110720500Y-110947873D01*
X110720499Y-109600000D01*
X120314551Y-109600000D01*
X120334317Y-109851151D01*
X120393126Y-110096110D01*
X120489533Y-110328859D01*
X120621160Y-110543653D01*
X120621161Y-110543656D01*
X120676604Y-110608571D01*
X120784776Y-110735224D01*
X120911138Y-110843147D01*
X120976343Y-110898838D01*
X120976346Y-110898839D01*
X121191140Y-111030466D01*
X121296087Y-111073936D01*
X121423889Y-111126873D01*
X121668852Y-111185683D01*
X121920000Y-111205449D01*
X122171148Y-111185683D01*
X122416111Y-111126873D01*
X122648859Y-111030466D01*
X122863659Y-110898836D01*
X123055224Y-110735224D01*
X123218836Y-110543659D01*
X123350466Y-110328859D01*
X123446873Y-110096111D01*
X123505683Y-109851148D01*
X123525449Y-109600000D01*
X125114551Y-109600000D01*
X125134317Y-109851151D01*
X125193126Y-110096110D01*
X125289533Y-110328859D01*
X125421160Y-110543653D01*
X125421161Y-110543656D01*
X125476604Y-110608571D01*
X125584776Y-110735224D01*
X125711138Y-110843147D01*
X125776343Y-110898838D01*
X125776346Y-110898839D01*
X125991140Y-111030466D01*
X126096087Y-111073936D01*
X126223889Y-111126873D01*
X126468852Y-111185683D01*
X126720000Y-111205449D01*
X126971148Y-111185683D01*
X127216111Y-111126873D01*
X127448859Y-111030466D01*
X127663659Y-110898836D01*
X127855224Y-110735224D01*
X128018836Y-110543659D01*
X128150466Y-110328859D01*
X128246873Y-110096111D01*
X128305683Y-109851148D01*
X128325449Y-109600000D01*
X128305683Y-109348852D01*
X128274749Y-109220000D01*
X131174540Y-109220000D01*
X131194326Y-109408256D01*
X131194327Y-109408259D01*
X131252818Y-109588277D01*
X131252821Y-109588284D01*
X131347467Y-109752216D01*
X131429134Y-109842916D01*
X131474129Y-109892888D01*
X131627265Y-110004148D01*
X131627270Y-110004151D01*
X131800192Y-110081142D01*
X131800197Y-110081144D01*
X131985354Y-110120500D01*
X131985355Y-110120500D01*
X132174644Y-110120500D01*
X132174646Y-110120500D01*
X132359803Y-110081144D01*
X132532730Y-110004151D01*
X132534776Y-110002664D01*
X132546452Y-109994182D01*
X132612258Y-109970702D01*
X132619337Y-109970500D01*
X164560663Y-109970500D01*
X164627702Y-109990185D01*
X164633548Y-109994182D01*
X164647265Y-110004148D01*
X164647270Y-110004151D01*
X164820192Y-110081142D01*
X164820197Y-110081144D01*
X165005354Y-110120500D01*
X165005355Y-110120500D01*
X165194644Y-110120500D01*
X165194646Y-110120500D01*
X165379803Y-110081144D01*
X165552730Y-110004151D01*
X165705871Y-109892888D01*
X165832533Y-109752216D01*
X165927179Y-109588284D01*
X165985674Y-109408256D01*
X166005460Y-109220000D01*
X165985674Y-109031744D01*
X165927179Y-108851716D01*
X165832533Y-108687784D01*
X165705871Y-108547112D01*
X165705870Y-108547111D01*
X165552734Y-108435851D01*
X165552729Y-108435848D01*
X165379807Y-108358857D01*
X165379802Y-108358855D01*
X165234001Y-108327865D01*
X165194646Y-108319500D01*
X165005354Y-108319500D01*
X164972897Y-108326398D01*
X164820197Y-108358855D01*
X164820192Y-108358857D01*
X164647270Y-108435848D01*
X164647265Y-108435851D01*
X164633548Y-108445818D01*
X164567742Y-108469298D01*
X164560663Y-108469500D01*
X132619337Y-108469500D01*
X132552298Y-108449815D01*
X132546452Y-108445818D01*
X132532734Y-108435851D01*
X132532729Y-108435848D01*
X132359807Y-108358857D01*
X132359802Y-108358855D01*
X132214001Y-108327865D01*
X132174646Y-108319500D01*
X131985354Y-108319500D01*
X131952897Y-108326398D01*
X131800197Y-108358855D01*
X131800192Y-108358857D01*
X131627270Y-108435848D01*
X131627265Y-108435851D01*
X131474129Y-108547111D01*
X131347466Y-108687785D01*
X131252821Y-108851715D01*
X131252818Y-108851722D01*
X131194327Y-109031740D01*
X131194326Y-109031744D01*
X131174540Y-109220000D01*
X128274749Y-109220000D01*
X128246873Y-109103889D01*
X128216988Y-109031740D01*
X128150466Y-108871140D01*
X128018839Y-108656346D01*
X128018838Y-108656343D01*
X127964183Y-108592351D01*
X127855224Y-108464776D01*
X127728571Y-108356604D01*
X127663656Y-108301161D01*
X127663653Y-108301160D01*
X127448859Y-108169533D01*
X127216110Y-108073126D01*
X126971151Y-108014317D01*
X126720000Y-107994551D01*
X126468848Y-108014317D01*
X126223889Y-108073126D01*
X125991140Y-108169533D01*
X125776346Y-108301160D01*
X125776343Y-108301161D01*
X125584776Y-108464776D01*
X125421161Y-108656343D01*
X125421160Y-108656346D01*
X125289533Y-108871140D01*
X125193126Y-109103889D01*
X125134317Y-109348848D01*
X125114551Y-109600000D01*
X123525449Y-109600000D01*
X123505683Y-109348852D01*
X123446873Y-109103889D01*
X123416988Y-109031740D01*
X123350466Y-108871140D01*
X123218839Y-108656346D01*
X123218838Y-108656343D01*
X123164183Y-108592351D01*
X123055224Y-108464776D01*
X122928571Y-108356604D01*
X122863656Y-108301161D01*
X122863653Y-108301160D01*
X122648859Y-108169533D01*
X122416110Y-108073126D01*
X122171151Y-108014317D01*
X121920000Y-107994551D01*
X121668848Y-108014317D01*
X121423889Y-108073126D01*
X121191140Y-108169533D01*
X120976346Y-108301160D01*
X120976343Y-108301161D01*
X120784776Y-108464776D01*
X120621161Y-108656343D01*
X120621160Y-108656346D01*
X120489533Y-108871140D01*
X120393126Y-109103889D01*
X120334317Y-109348848D01*
X120314551Y-109600000D01*
X110720499Y-109600000D01*
X110720499Y-108852128D01*
X110714091Y-108792517D01*
X110698541Y-108750826D01*
X110663797Y-108657671D01*
X110663793Y-108657664D01*
X110577547Y-108542455D01*
X110577544Y-108542452D01*
X110462335Y-108456206D01*
X110462328Y-108456202D01*
X110327482Y-108405908D01*
X110327483Y-108405908D01*
X110267883Y-108399501D01*
X110267881Y-108399500D01*
X110267873Y-108399500D01*
X110267864Y-108399500D01*
X108172129Y-108399500D01*
X108172123Y-108399501D01*
X108112516Y-108405908D01*
X107977671Y-108456202D01*
X107977664Y-108456206D01*
X107862455Y-108542452D01*
X107862452Y-108542455D01*
X107776206Y-108657664D01*
X107776202Y-108657671D01*
X107725908Y-108792517D01*
X107719501Y-108852116D01*
X107719501Y-108852123D01*
X107719500Y-108852135D01*
X107719500Y-110947870D01*
X98620500Y-110947870D01*
X98620499Y-108332128D01*
X98614091Y-108272517D01*
X98575680Y-108169533D01*
X98563797Y-108137671D01*
X98563793Y-108137664D01*
X98477547Y-108022455D01*
X98477544Y-108022452D01*
X98362335Y-107936206D01*
X98362328Y-107936202D01*
X98227482Y-107885908D01*
X98227483Y-107885908D01*
X98167883Y-107879501D01*
X98167881Y-107879500D01*
X98167873Y-107879500D01*
X98167864Y-107879500D01*
X94872129Y-107879500D01*
X94872123Y-107879501D01*
X94812516Y-107885908D01*
X94677671Y-107936202D01*
X94677664Y-107936206D01*
X94562455Y-108022452D01*
X94562452Y-108022455D01*
X94476206Y-108137664D01*
X94476202Y-108137671D01*
X94425908Y-108272517D01*
X94419501Y-108332116D01*
X94419501Y-108332123D01*
X94419500Y-108332135D01*
X94419500Y-111627870D01*
X75760500Y-111627870D01*
X75760499Y-109220000D01*
X77834540Y-109220000D01*
X77854326Y-109408256D01*
X77854327Y-109408259D01*
X77912818Y-109588277D01*
X77912821Y-109588284D01*
X78007467Y-109752216D01*
X78089134Y-109842916D01*
X78134129Y-109892888D01*
X78287265Y-110004148D01*
X78287270Y-110004151D01*
X78460192Y-110081142D01*
X78460197Y-110081144D01*
X78645354Y-110120500D01*
X78645355Y-110120500D01*
X78834644Y-110120500D01*
X78834646Y-110120500D01*
X79019803Y-110081144D01*
X79192730Y-110004151D01*
X79345871Y-109892888D01*
X79472533Y-109752216D01*
X79567179Y-109588284D01*
X79625674Y-109408256D01*
X79645460Y-109220000D01*
X79625674Y-109031744D01*
X79567179Y-108851716D01*
X79552607Y-108826476D01*
X79507113Y-108747677D01*
X79490500Y-108685677D01*
X79490500Y-107790000D01*
X190499117Y-107790000D01*
X190551317Y-107996135D01*
X190644516Y-108208609D01*
X190771414Y-108402842D01*
X190928558Y-108573545D01*
X190928562Y-108573548D01*
X191111644Y-108716047D01*
X191111648Y-108716050D01*
X191315697Y-108826476D01*
X191315706Y-108826479D01*
X191535139Y-108901811D01*
X191629999Y-108917640D01*
X191630000Y-108917639D01*
X191630000Y-108031683D01*
X191658819Y-108049209D01*
X191804404Y-108090000D01*
X191917622Y-108090000D01*
X192029783Y-108074584D01*
X192130000Y-108031053D01*
X192130000Y-108917640D01*
X192224860Y-108901811D01*
X192444293Y-108826479D01*
X192444302Y-108826476D01*
X192648351Y-108716050D01*
X192648355Y-108716047D01*
X192831437Y-108573548D01*
X192831441Y-108573545D01*
X192988585Y-108402842D01*
X193115483Y-108208609D01*
X193208682Y-107996135D01*
X193260883Y-107790000D01*
X192374852Y-107790000D01*
X192423559Y-107652953D01*
X192433877Y-107502114D01*
X192403116Y-107354085D01*
X192369910Y-107290000D01*
X193260883Y-107290000D01*
X193208682Y-107083864D01*
X193115483Y-106871390D01*
X192988585Y-106677157D01*
X192831441Y-106506454D01*
X192831437Y-106506451D01*
X192648355Y-106363952D01*
X192648351Y-106363949D01*
X192444302Y-106253523D01*
X192444293Y-106253520D01*
X192224861Y-106178188D01*
X192130000Y-106162359D01*
X192130000Y-107048316D01*
X192101181Y-107030791D01*
X191955596Y-106990000D01*
X191842378Y-106990000D01*
X191730217Y-107005416D01*
X191630000Y-107048946D01*
X191630000Y-106162359D01*
X191629999Y-106162359D01*
X191535138Y-106178188D01*
X191315706Y-106253520D01*
X191315697Y-106253523D01*
X191111648Y-106363949D01*
X191111644Y-106363952D01*
X190928562Y-106506451D01*
X190928558Y-106506454D01*
X190771414Y-106677157D01*
X190644516Y-106871390D01*
X190551317Y-107083864D01*
X190499117Y-107290000D01*
X191385148Y-107290000D01*
X191336441Y-107427047D01*
X191326123Y-107577886D01*
X191356884Y-107725915D01*
X191390090Y-107790000D01*
X190499117Y-107790000D01*
X79490500Y-107790000D01*
X79490500Y-107007870D01*
X79859500Y-107007870D01*
X79859501Y-107007876D01*
X79865908Y-107067483D01*
X79916202Y-107202328D01*
X79916206Y-107202335D01*
X80002452Y-107317544D01*
X80002455Y-107317547D01*
X80117664Y-107403793D01*
X80117671Y-107403797D01*
X80252517Y-107454091D01*
X80252516Y-107454091D01*
X80259444Y-107454835D01*
X80312127Y-107460500D01*
X82207872Y-107460499D01*
X82267483Y-107454091D01*
X82402331Y-107403796D01*
X82517546Y-107317546D01*
X82603796Y-107202331D01*
X82654091Y-107067483D01*
X82660500Y-107007873D01*
X82660500Y-106310000D01*
X83279117Y-106310000D01*
X83331317Y-106516135D01*
X83424516Y-106728609D01*
X83551414Y-106922842D01*
X83708558Y-107093545D01*
X83708562Y-107093548D01*
X83891644Y-107236047D01*
X83891648Y-107236050D01*
X84095697Y-107346476D01*
X84095706Y-107346479D01*
X84315139Y-107421811D01*
X84409999Y-107437640D01*
X84410000Y-107437639D01*
X84410000Y-106551683D01*
X84438819Y-106569209D01*
X84584404Y-106610000D01*
X84697622Y-106610000D01*
X84809783Y-106594584D01*
X84910000Y-106551053D01*
X84910000Y-107437640D01*
X85004860Y-107421811D01*
X85224293Y-107346479D01*
X85224302Y-107346476D01*
X85428351Y-107236050D01*
X85428355Y-107236047D01*
X85611437Y-107093548D01*
X85611441Y-107093545D01*
X85768585Y-106922842D01*
X85895483Y-106728609D01*
X85988682Y-106516135D01*
X86040883Y-106310000D01*
X86679117Y-106310000D01*
X86731317Y-106516135D01*
X86824516Y-106728609D01*
X86951414Y-106922842D01*
X87108558Y-107093545D01*
X87108562Y-107093548D01*
X87291644Y-107236047D01*
X87291648Y-107236050D01*
X87495697Y-107346476D01*
X87495706Y-107346479D01*
X87715139Y-107421811D01*
X87809999Y-107437640D01*
X87810000Y-107437639D01*
X87810000Y-106551683D01*
X87838819Y-106569209D01*
X87984404Y-106610000D01*
X88097622Y-106610000D01*
X88209783Y-106594584D01*
X88310000Y-106551053D01*
X88310000Y-107437640D01*
X88404860Y-107421811D01*
X88624293Y-107346479D01*
X88624302Y-107346476D01*
X88828351Y-107236050D01*
X88828355Y-107236047D01*
X89011437Y-107093548D01*
X89011441Y-107093545D01*
X89168585Y-106922842D01*
X89295483Y-106728609D01*
X89388682Y-106516135D01*
X89440883Y-106310000D01*
X88554852Y-106310000D01*
X88603559Y-106172953D01*
X88613877Y-106022114D01*
X88583116Y-105874085D01*
X88549910Y-105810000D01*
X89440883Y-105810000D01*
X89388682Y-105603864D01*
X89295483Y-105391390D01*
X89168585Y-105197157D01*
X89011441Y-105026454D01*
X89011437Y-105026451D01*
X88848980Y-104900005D01*
X107714859Y-104900005D01*
X107735385Y-105147729D01*
X107735387Y-105147738D01*
X107796412Y-105388717D01*
X107896266Y-105616364D01*
X107996564Y-105769882D01*
X108736923Y-105029523D01*
X108760507Y-105109844D01*
X108838239Y-105230798D01*
X108946900Y-105324952D01*
X109077685Y-105384680D01*
X109087466Y-105386086D01*
X108349942Y-106123609D01*
X108396768Y-106160055D01*
X108396770Y-106160056D01*
X108615385Y-106278364D01*
X108615396Y-106278369D01*
X108850506Y-106359083D01*
X109095707Y-106400000D01*
X109344293Y-106400000D01*
X109589493Y-106359083D01*
X109824603Y-106278369D01*
X109824614Y-106278364D01*
X110043228Y-106160057D01*
X110043231Y-106160055D01*
X110090056Y-106123609D01*
X109352533Y-105386086D01*
X109362315Y-105384680D01*
X109493100Y-105324952D01*
X109601761Y-105230798D01*
X109679493Y-105109844D01*
X109703076Y-105029524D01*
X110443434Y-105769882D01*
X110543731Y-105616369D01*
X110643587Y-105388717D01*
X110704612Y-105147738D01*
X110704614Y-105147729D01*
X110725141Y-104900005D01*
X110725141Y-104900000D01*
X120314551Y-104900000D01*
X120334317Y-105151151D01*
X120393126Y-105396110D01*
X120489533Y-105628859D01*
X120621160Y-105843653D01*
X120621161Y-105843656D01*
X120621164Y-105843659D01*
X120784776Y-106035224D01*
X120858144Y-106097886D01*
X120976343Y-106198838D01*
X120976346Y-106198839D01*
X121191140Y-106330466D01*
X121422737Y-106426396D01*
X121423889Y-106426873D01*
X121668852Y-106485683D01*
X121920000Y-106505449D01*
X122171148Y-106485683D01*
X122416111Y-106426873D01*
X122648859Y-106330466D01*
X122863659Y-106198836D01*
X123055224Y-106035224D01*
X123218836Y-105843659D01*
X123350466Y-105628859D01*
X123446873Y-105396111D01*
X123505683Y-105151148D01*
X123525449Y-104900000D01*
X125115052Y-104900000D01*
X125134812Y-105151072D01*
X125193603Y-105395956D01*
X125289980Y-105628631D01*
X125421568Y-105843362D01*
X125422266Y-105844179D01*
X126157226Y-105109219D01*
X126195901Y-105202588D01*
X126292075Y-105327925D01*
X126417412Y-105424099D01*
X126510779Y-105462772D01*
X125775819Y-106197732D01*
X125775819Y-106197733D01*
X125776634Y-106198429D01*
X125991368Y-106330019D01*
X126224043Y-106426396D01*
X126468927Y-106485187D01*
X126720000Y-106504947D01*
X126971072Y-106485187D01*
X127215956Y-106426396D01*
X127448631Y-106330019D01*
X127663361Y-106198432D01*
X127663363Y-106198430D01*
X127664180Y-106197732D01*
X126929220Y-105462772D01*
X127022588Y-105424099D01*
X127147925Y-105327925D01*
X127244099Y-105202589D01*
X127282772Y-105109220D01*
X128017732Y-105844180D01*
X128018430Y-105843363D01*
X128018432Y-105843361D01*
X128020488Y-105840006D01*
X194174700Y-105840006D01*
X194193864Y-106071297D01*
X194193866Y-106071308D01*
X194250842Y-106296300D01*
X194344075Y-106508848D01*
X194471016Y-106703147D01*
X194471019Y-106703151D01*
X194471021Y-106703153D01*
X194628216Y-106873913D01*
X194628219Y-106873915D01*
X194628222Y-106873918D01*
X194811365Y-107016464D01*
X194811371Y-107016468D01*
X194811374Y-107016470D01*
X195015497Y-107126936D01*
X195114914Y-107161066D01*
X195235015Y-107202297D01*
X195235017Y-107202297D01*
X195235019Y-107202298D01*
X195463951Y-107240500D01*
X195463952Y-107240500D01*
X195696048Y-107240500D01*
X195696049Y-107240500D01*
X195924981Y-107202298D01*
X196144503Y-107126936D01*
X196348626Y-107016470D01*
X196359672Y-107007873D01*
X196446875Y-106940000D01*
X196531784Y-106873913D01*
X196688979Y-106703153D01*
X196815924Y-106508849D01*
X196909157Y-106296300D01*
X196966134Y-106071305D01*
X196984997Y-105843659D01*
X196985300Y-105840006D01*
X196985300Y-105839993D01*
X196966135Y-105608702D01*
X196966133Y-105608691D01*
X196909157Y-105383699D01*
X196815924Y-105171151D01*
X196688983Y-104976852D01*
X196688980Y-104976849D01*
X196688979Y-104976847D01*
X196531784Y-104806087D01*
X196531779Y-104806083D01*
X196531777Y-104806081D01*
X196348634Y-104663535D01*
X196348628Y-104663531D01*
X196144504Y-104553064D01*
X196144495Y-104553061D01*
X195924984Y-104477702D01*
X195753282Y-104449050D01*
X195696049Y-104439500D01*
X195463951Y-104439500D01*
X195418164Y-104447140D01*
X195235015Y-104477702D01*
X195015504Y-104553061D01*
X195015495Y-104553064D01*
X194811371Y-104663531D01*
X194811365Y-104663535D01*
X194628222Y-104806081D01*
X194628219Y-104806084D01*
X194628216Y-104806086D01*
X194628216Y-104806087D01*
X194607942Y-104828111D01*
X194471016Y-104976852D01*
X194344075Y-105171151D01*
X194250842Y-105383699D01*
X194193866Y-105608691D01*
X194193864Y-105608702D01*
X194174700Y-105839993D01*
X194174700Y-105840006D01*
X128020488Y-105840006D01*
X128150019Y-105628631D01*
X128246396Y-105395956D01*
X128305187Y-105151072D01*
X128314098Y-105037844D01*
X184070000Y-105037844D01*
X184076401Y-105097372D01*
X184076403Y-105097379D01*
X184126645Y-105232086D01*
X184126649Y-105232093D01*
X184212809Y-105347187D01*
X184212812Y-105347190D01*
X184327906Y-105433350D01*
X184327913Y-105433354D01*
X184462620Y-105483596D01*
X184462627Y-105483598D01*
X184522155Y-105489999D01*
X184522172Y-105490000D01*
X185170000Y-105490000D01*
X185170000Y-104575501D01*
X185277685Y-104624680D01*
X185384237Y-104640000D01*
X185455763Y-104640000D01*
X185562315Y-104624680D01*
X185670000Y-104575501D01*
X185670000Y-105490000D01*
X186317828Y-105490000D01*
X186317844Y-105489999D01*
X186377372Y-105483598D01*
X186377379Y-105483596D01*
X186512086Y-105433354D01*
X186512093Y-105433350D01*
X186627187Y-105347190D01*
X186627190Y-105347187D01*
X186713350Y-105232093D01*
X186713354Y-105232086D01*
X186763596Y-105097379D01*
X186763598Y-105097372D01*
X186769999Y-105037844D01*
X186770000Y-105037827D01*
X186770000Y-104390000D01*
X190499117Y-104390000D01*
X190551317Y-104596135D01*
X190644516Y-104808609D01*
X190771414Y-105002842D01*
X190928558Y-105173545D01*
X190928562Y-105173548D01*
X191111644Y-105316047D01*
X191111648Y-105316050D01*
X191315697Y-105426476D01*
X191315706Y-105426479D01*
X191535139Y-105501811D01*
X191629999Y-105517640D01*
X191630000Y-105517639D01*
X191630000Y-104631683D01*
X191658819Y-104649209D01*
X191804404Y-104690000D01*
X191917622Y-104690000D01*
X192029783Y-104674584D01*
X192130000Y-104631053D01*
X192130000Y-105517640D01*
X192224860Y-105501811D01*
X192444293Y-105426479D01*
X192444302Y-105426476D01*
X192648351Y-105316050D01*
X192648355Y-105316047D01*
X192831437Y-105173548D01*
X192831441Y-105173545D01*
X192988585Y-105002842D01*
X193115483Y-104808609D01*
X193208682Y-104596135D01*
X193260883Y-104390000D01*
X192374852Y-104390000D01*
X192423559Y-104252953D01*
X192433877Y-104102114D01*
X192403116Y-103954085D01*
X192369910Y-103890000D01*
X193260883Y-103890000D01*
X193208682Y-103683864D01*
X193115483Y-103471390D01*
X192988585Y-103277157D01*
X192831441Y-103106454D01*
X192831437Y-103106451D01*
X192648355Y-102963952D01*
X192648351Y-102963949D01*
X192444302Y-102853523D01*
X192444293Y-102853520D01*
X192224861Y-102778188D01*
X192130000Y-102762359D01*
X192130000Y-103648316D01*
X192101181Y-103630791D01*
X191955596Y-103590000D01*
X191842378Y-103590000D01*
X191730217Y-103605416D01*
X191630000Y-103648946D01*
X191630000Y-102762359D01*
X191629999Y-102762359D01*
X191535138Y-102778188D01*
X191315706Y-102853520D01*
X191315697Y-102853523D01*
X191111648Y-102963949D01*
X191111644Y-102963952D01*
X190928562Y-103106451D01*
X190928558Y-103106454D01*
X190771414Y-103277157D01*
X190644516Y-103471390D01*
X190551317Y-103683864D01*
X190499117Y-103890000D01*
X191385148Y-103890000D01*
X191336441Y-104027047D01*
X191326123Y-104177886D01*
X191356884Y-104325915D01*
X191390090Y-104390000D01*
X190499117Y-104390000D01*
X186770000Y-104390000D01*
X185853686Y-104390000D01*
X185879493Y-104349844D01*
X185920000Y-104211889D01*
X185920000Y-104068111D01*
X185879493Y-103930156D01*
X185853686Y-103890000D01*
X186770000Y-103890000D01*
X186770000Y-103242172D01*
X186769999Y-103242155D01*
X186763598Y-103182627D01*
X186763596Y-103182620D01*
X186713354Y-103047913D01*
X186713350Y-103047906D01*
X186627190Y-102932812D01*
X186627187Y-102932809D01*
X186512093Y-102846649D01*
X186512086Y-102846645D01*
X186377379Y-102796403D01*
X186377372Y-102796401D01*
X186317844Y-102790000D01*
X185670000Y-102790000D01*
X185670000Y-103704498D01*
X185562315Y-103655320D01*
X185455763Y-103640000D01*
X185384237Y-103640000D01*
X185277685Y-103655320D01*
X185170000Y-103704498D01*
X185170000Y-102790000D01*
X184522155Y-102790000D01*
X184462627Y-102796401D01*
X184462620Y-102796403D01*
X184327913Y-102846645D01*
X184327906Y-102846649D01*
X184212812Y-102932809D01*
X184212809Y-102932812D01*
X184126649Y-103047906D01*
X184126645Y-103047913D01*
X184076403Y-103182620D01*
X184076401Y-103182627D01*
X184070000Y-103242155D01*
X184070000Y-103890000D01*
X184986314Y-103890000D01*
X184960507Y-103930156D01*
X184920000Y-104068111D01*
X184920000Y-104211889D01*
X184960507Y-104349844D01*
X184986314Y-104390000D01*
X184070000Y-104390000D01*
X184070000Y-105037844D01*
X128314098Y-105037844D01*
X128324947Y-104900000D01*
X128305187Y-104648927D01*
X128246396Y-104404043D01*
X128150019Y-104171368D01*
X128018429Y-103956634D01*
X128017733Y-103955819D01*
X128017732Y-103955819D01*
X127282772Y-104690779D01*
X127244099Y-104597412D01*
X127147925Y-104472075D01*
X127022588Y-104375901D01*
X126929220Y-104337227D01*
X127664179Y-103602266D01*
X127663362Y-103601568D01*
X127448631Y-103469980D01*
X127215956Y-103373603D01*
X126971072Y-103314812D01*
X126720000Y-103295052D01*
X126468927Y-103314812D01*
X126224043Y-103373603D01*
X125991368Y-103469980D01*
X125776637Y-103601567D01*
X125775819Y-103602266D01*
X126510779Y-104337226D01*
X126417412Y-104375901D01*
X126292075Y-104472075D01*
X126195901Y-104597411D01*
X126157226Y-104690779D01*
X125422266Y-103955819D01*
X125421567Y-103956637D01*
X125289980Y-104171368D01*
X125193603Y-104404043D01*
X125134812Y-104648927D01*
X125115052Y-104900000D01*
X123525449Y-104900000D01*
X123505683Y-104648852D01*
X123446873Y-104403889D01*
X123384354Y-104252953D01*
X123350466Y-104171140D01*
X123219017Y-103956637D01*
X123218838Y-103956345D01*
X123218838Y-103956343D01*
X123162175Y-103890000D01*
X123055224Y-103764776D01*
X122927068Y-103655320D01*
X122863656Y-103601161D01*
X122863653Y-103601160D01*
X122648859Y-103469533D01*
X122416110Y-103373126D01*
X122171151Y-103314317D01*
X121920000Y-103294551D01*
X121668848Y-103314317D01*
X121423889Y-103373126D01*
X121191140Y-103469533D01*
X120976346Y-103601160D01*
X120976343Y-103601161D01*
X120784776Y-103764776D01*
X120621161Y-103956343D01*
X120621160Y-103956346D01*
X120489533Y-104171140D01*
X120393126Y-104403889D01*
X120334317Y-104648848D01*
X120314551Y-104900000D01*
X110725141Y-104900000D01*
X110725141Y-104899994D01*
X110704614Y-104652270D01*
X110704612Y-104652261D01*
X110643587Y-104411282D01*
X110543731Y-104183630D01*
X110443434Y-104030116D01*
X109703076Y-104770475D01*
X109679493Y-104690156D01*
X109601761Y-104569202D01*
X109493100Y-104475048D01*
X109362315Y-104415320D01*
X109352534Y-104413913D01*
X110090057Y-103676390D01*
X110090056Y-103676389D01*
X110043229Y-103639943D01*
X109824614Y-103521635D01*
X109824603Y-103521630D01*
X109589493Y-103440916D01*
X109344293Y-103400000D01*
X109095707Y-103400000D01*
X108850506Y-103440916D01*
X108615396Y-103521630D01*
X108615390Y-103521632D01*
X108396761Y-103639949D01*
X108349942Y-103676388D01*
X108349942Y-103676390D01*
X109087466Y-104413913D01*
X109077685Y-104415320D01*
X108946900Y-104475048D01*
X108838239Y-104569202D01*
X108760507Y-104690156D01*
X108736923Y-104770475D01*
X107996564Y-104030116D01*
X107896267Y-104183632D01*
X107796412Y-104411282D01*
X107735387Y-104652261D01*
X107735385Y-104652270D01*
X107714859Y-104899994D01*
X107714859Y-104900005D01*
X88848980Y-104900005D01*
X88828355Y-104883952D01*
X88828351Y-104883949D01*
X88624302Y-104773523D01*
X88624293Y-104773520D01*
X88404861Y-104698188D01*
X88310000Y-104682359D01*
X88310000Y-105568316D01*
X88281181Y-105550791D01*
X88135596Y-105510000D01*
X88022378Y-105510000D01*
X87910217Y-105525416D01*
X87810000Y-105568946D01*
X87810000Y-104682359D01*
X87809999Y-104682359D01*
X87715138Y-104698188D01*
X87495706Y-104773520D01*
X87495697Y-104773523D01*
X87291648Y-104883949D01*
X87291644Y-104883952D01*
X87108562Y-105026451D01*
X87108558Y-105026454D01*
X86951414Y-105197157D01*
X86824516Y-105391390D01*
X86731317Y-105603864D01*
X86679117Y-105810000D01*
X87565148Y-105810000D01*
X87516441Y-105947047D01*
X87506123Y-106097886D01*
X87536884Y-106245915D01*
X87570090Y-106310000D01*
X86679117Y-106310000D01*
X86040883Y-106310000D01*
X85154852Y-106310000D01*
X85203559Y-106172953D01*
X85213877Y-106022114D01*
X85183116Y-105874085D01*
X85149910Y-105810000D01*
X86040883Y-105810000D01*
X85988682Y-105603864D01*
X85895483Y-105391390D01*
X85768585Y-105197157D01*
X85611441Y-105026454D01*
X85611437Y-105026451D01*
X85428355Y-104883952D01*
X85428351Y-104883949D01*
X85224302Y-104773523D01*
X85224293Y-104773520D01*
X85004861Y-104698188D01*
X84910000Y-104682359D01*
X84910000Y-105568316D01*
X84881181Y-105550791D01*
X84735596Y-105510000D01*
X84622378Y-105510000D01*
X84510217Y-105525416D01*
X84410000Y-105568946D01*
X84410000Y-104682359D01*
X84409999Y-104682359D01*
X84315138Y-104698188D01*
X84095706Y-104773520D01*
X84095697Y-104773523D01*
X83891648Y-104883949D01*
X83891644Y-104883952D01*
X83708562Y-105026451D01*
X83708558Y-105026454D01*
X83551414Y-105197157D01*
X83424516Y-105391390D01*
X83331317Y-105603864D01*
X83279117Y-105810000D01*
X84165148Y-105810000D01*
X84116441Y-105947047D01*
X84106123Y-106097886D01*
X84136884Y-106245915D01*
X84170090Y-106310000D01*
X83279117Y-106310000D01*
X82660500Y-106310000D01*
X82660499Y-105112128D01*
X82654091Y-105052517D01*
X82648618Y-105037844D01*
X82603797Y-104917671D01*
X82603793Y-104917664D01*
X82517547Y-104802455D01*
X82517544Y-104802452D01*
X82402335Y-104716206D01*
X82402328Y-104716202D01*
X82267482Y-104665908D01*
X82267483Y-104665908D01*
X82207883Y-104659501D01*
X82207881Y-104659500D01*
X82207873Y-104659500D01*
X82207864Y-104659500D01*
X80312129Y-104659500D01*
X80312123Y-104659501D01*
X80252516Y-104665908D01*
X80117671Y-104716202D01*
X80117664Y-104716206D01*
X80002455Y-104802452D01*
X80002452Y-104802455D01*
X79916206Y-104917664D01*
X79916202Y-104917671D01*
X79865908Y-105052517D01*
X79859745Y-105109844D01*
X79859501Y-105112123D01*
X79859500Y-105112135D01*
X79859500Y-107007870D01*
X79490500Y-107007870D01*
X79490500Y-102360006D01*
X81554700Y-102360006D01*
X81573864Y-102591297D01*
X81573866Y-102591308D01*
X81630842Y-102816300D01*
X81724075Y-103028848D01*
X81851016Y-103223147D01*
X81851019Y-103223151D01*
X81851021Y-103223153D01*
X82008216Y-103393913D01*
X82008219Y-103393915D01*
X82008222Y-103393918D01*
X82191365Y-103536464D01*
X82191371Y-103536468D01*
X82191374Y-103536470D01*
X82395497Y-103646936D01*
X82481288Y-103676388D01*
X82615015Y-103722297D01*
X82615017Y-103722297D01*
X82615019Y-103722298D01*
X82843951Y-103760500D01*
X82843952Y-103760500D01*
X83076048Y-103760500D01*
X83076049Y-103760500D01*
X83304981Y-103722298D01*
X83524503Y-103646936D01*
X83728626Y-103536470D01*
X83739942Y-103527663D01*
X83808997Y-103473915D01*
X83911784Y-103393913D01*
X84068979Y-103223153D01*
X84195924Y-103028849D01*
X84289157Y-102816300D01*
X84346134Y-102591305D01*
X84350507Y-102538529D01*
X84365300Y-102360006D01*
X84954700Y-102360006D01*
X84973864Y-102591297D01*
X84973866Y-102591308D01*
X85030842Y-102816300D01*
X85124075Y-103028848D01*
X85251016Y-103223147D01*
X85251019Y-103223151D01*
X85251021Y-103223153D01*
X85408216Y-103393913D01*
X85408219Y-103393915D01*
X85408222Y-103393918D01*
X85591365Y-103536464D01*
X85591371Y-103536468D01*
X85591374Y-103536470D01*
X85795497Y-103646936D01*
X85881288Y-103676388D01*
X86015015Y-103722297D01*
X86015017Y-103722297D01*
X86015019Y-103722298D01*
X86243951Y-103760500D01*
X86243952Y-103760500D01*
X86476048Y-103760500D01*
X86476049Y-103760500D01*
X86704981Y-103722298D01*
X86924503Y-103646936D01*
X87128626Y-103536470D01*
X87139942Y-103527663D01*
X87208997Y-103473915D01*
X87311784Y-103393913D01*
X87468979Y-103223153D01*
X87595924Y-103028849D01*
X87689157Y-102816300D01*
X87746134Y-102591305D01*
X87750507Y-102538529D01*
X87765300Y-102360006D01*
X87765300Y-102359993D01*
X87746135Y-102128702D01*
X87746133Y-102128691D01*
X87689157Y-101903699D01*
X87595924Y-101691151D01*
X87468983Y-101496852D01*
X87468980Y-101496849D01*
X87468979Y-101496847D01*
X87442304Y-101467870D01*
X135059500Y-101467870D01*
X135059501Y-101467876D01*
X135065908Y-101527483D01*
X135116202Y-101662328D01*
X135116206Y-101662335D01*
X135202452Y-101777544D01*
X135202455Y-101777547D01*
X135317664Y-101863793D01*
X135317671Y-101863797D01*
X135452517Y-101914091D01*
X135452516Y-101914091D01*
X135459444Y-101914835D01*
X135512127Y-101920500D01*
X138807872Y-101920499D01*
X138867483Y-101914091D01*
X139002331Y-101863796D01*
X139117546Y-101777546D01*
X139203796Y-101662331D01*
X139254091Y-101527483D01*
X139260500Y-101467873D01*
X139260500Y-101349999D01*
X179061127Y-101349999D01*
X179061128Y-101350000D01*
X180024314Y-101350000D01*
X180012359Y-101361955D01*
X179954835Y-101474852D01*
X179935014Y-101600000D01*
X179954835Y-101725148D01*
X180012359Y-101838045D01*
X180024314Y-101850000D01*
X179061128Y-101850000D01*
X179113730Y-102046317D01*
X179113734Y-102046326D01*
X179209865Y-102252482D01*
X179340342Y-102438820D01*
X179501179Y-102599657D01*
X179687517Y-102730134D01*
X179893673Y-102826265D01*
X179893682Y-102826269D01*
X180089999Y-102878872D01*
X180090000Y-102878871D01*
X180090000Y-101915686D01*
X180101955Y-101927641D01*
X180214852Y-101985165D01*
X180308519Y-102000000D01*
X180371481Y-102000000D01*
X180465148Y-101985165D01*
X180578045Y-101927641D01*
X180590000Y-101915686D01*
X180590000Y-102878872D01*
X180786317Y-102826269D01*
X180786326Y-102826265D01*
X180992482Y-102730134D01*
X181178820Y-102599657D01*
X181338471Y-102440006D01*
X194174700Y-102440006D01*
X194193864Y-102671297D01*
X194193866Y-102671308D01*
X194250842Y-102896300D01*
X194344075Y-103108848D01*
X194471016Y-103303147D01*
X194471019Y-103303151D01*
X194471021Y-103303153D01*
X194628216Y-103473913D01*
X194628219Y-103473915D01*
X194628222Y-103473918D01*
X194811365Y-103616464D01*
X194811371Y-103616468D01*
X194811374Y-103616470D01*
X195015497Y-103726936D01*
X195096764Y-103754835D01*
X195235015Y-103802297D01*
X195235017Y-103802297D01*
X195235019Y-103802298D01*
X195463951Y-103840500D01*
X195463952Y-103840500D01*
X195696048Y-103840500D01*
X195696049Y-103840500D01*
X195924981Y-103802298D01*
X196144503Y-103726936D01*
X196348626Y-103616470D01*
X196366876Y-103602266D01*
X196462718Y-103527669D01*
X196531784Y-103473913D01*
X196688979Y-103303153D01*
X196815924Y-103108849D01*
X196909157Y-102896300D01*
X196966134Y-102671305D01*
X196968075Y-102647883D01*
X196985300Y-102440006D01*
X196985300Y-102439993D01*
X196966135Y-102208702D01*
X196966133Y-102208691D01*
X196909157Y-101983699D01*
X196815924Y-101771151D01*
X196704110Y-101600005D01*
X204234859Y-101600005D01*
X204255385Y-101847729D01*
X204255387Y-101847738D01*
X204316412Y-102088717D01*
X204416266Y-102316364D01*
X204516564Y-102469882D01*
X205256923Y-101729523D01*
X205280507Y-101809844D01*
X205358239Y-101930798D01*
X205466900Y-102024952D01*
X205597685Y-102084680D01*
X205607466Y-102086086D01*
X204869942Y-102823609D01*
X204916768Y-102860055D01*
X204916770Y-102860056D01*
X205135385Y-102978364D01*
X205135396Y-102978369D01*
X205370506Y-103059083D01*
X205615707Y-103100000D01*
X205864293Y-103100000D01*
X206109493Y-103059083D01*
X206344603Y-102978369D01*
X206344614Y-102978364D01*
X206563228Y-102860057D01*
X206563231Y-102860055D01*
X206610056Y-102823609D01*
X206434317Y-102647870D01*
X209239500Y-102647870D01*
X209239501Y-102647876D01*
X209245908Y-102707483D01*
X209296202Y-102842328D01*
X209296206Y-102842335D01*
X209382452Y-102957544D01*
X209382455Y-102957547D01*
X209497664Y-103043793D01*
X209497671Y-103043797D01*
X209632517Y-103094091D01*
X209632516Y-103094091D01*
X209639444Y-103094835D01*
X209692127Y-103100500D01*
X211787872Y-103100499D01*
X211847483Y-103094091D01*
X211982331Y-103043796D01*
X212097546Y-102957546D01*
X212183796Y-102842331D01*
X212234091Y-102707483D01*
X212240500Y-102647873D01*
X212240500Y-101600001D01*
X217214838Y-101600001D01*
X217233450Y-101812741D01*
X217233452Y-101812752D01*
X217288721Y-102019022D01*
X217288723Y-102019026D01*
X217288724Y-102019030D01*
X217318924Y-102083793D01*
X217378977Y-102212578D01*
X217501472Y-102387521D01*
X217652478Y-102538527D01*
X217652481Y-102538529D01*
X217827419Y-102661021D01*
X217827421Y-102661022D01*
X217827420Y-102661022D01*
X217849479Y-102671308D01*
X218020970Y-102751276D01*
X218020983Y-102751279D01*
X218026064Y-102753130D01*
X218025390Y-102754978D01*
X218077680Y-102786857D01*
X218108204Y-102849707D01*
X218099903Y-102919082D01*
X218055413Y-102972956D01*
X218025904Y-102986432D01*
X218026236Y-102987342D01*
X218021140Y-102989197D01*
X217827671Y-103079412D01*
X217827669Y-103079413D01*
X217771969Y-103118415D01*
X217771968Y-103118415D01*
X218395600Y-103742046D01*
X218314852Y-103754835D01*
X218201955Y-103812359D01*
X218112359Y-103901955D01*
X218054835Y-104014852D01*
X218042046Y-104095599D01*
X217418415Y-103471968D01*
X217418415Y-103471969D01*
X217379413Y-103527669D01*
X217379412Y-103527671D01*
X217289197Y-103721140D01*
X217289194Y-103721146D01*
X217233945Y-103927337D01*
X217233944Y-103927345D01*
X217215340Y-104139997D01*
X217215340Y-104140002D01*
X217233944Y-104352654D01*
X217233945Y-104352662D01*
X217289194Y-104558853D01*
X217289197Y-104558859D01*
X217379413Y-104752329D01*
X217418415Y-104808030D01*
X218042046Y-104184399D01*
X218054835Y-104265148D01*
X218112359Y-104378045D01*
X218201955Y-104467641D01*
X218314852Y-104525165D01*
X218395599Y-104537953D01*
X217771968Y-105161584D01*
X217827663Y-105200582D01*
X217827669Y-105200586D01*
X218021140Y-105290802D01*
X218021146Y-105290805D01*
X218227337Y-105346054D01*
X218227345Y-105346055D01*
X218439998Y-105364660D01*
X218440002Y-105364660D01*
X218652654Y-105346055D01*
X218652662Y-105346054D01*
X218858853Y-105290805D01*
X218858864Y-105290801D01*
X219052325Y-105200589D01*
X219108030Y-105161583D01*
X218484401Y-104537953D01*
X218565148Y-104525165D01*
X218678045Y-104467641D01*
X218767641Y-104378045D01*
X218825165Y-104265148D01*
X218837953Y-104184400D01*
X219461583Y-104808029D01*
X219500589Y-104752325D01*
X219590801Y-104558864D01*
X219590805Y-104558853D01*
X219646054Y-104352662D01*
X219646055Y-104352654D01*
X219664660Y-104140002D01*
X219664660Y-104139997D01*
X219646055Y-103927345D01*
X219646054Y-103927337D01*
X219590805Y-103721146D01*
X219590802Y-103721140D01*
X219500586Y-103527669D01*
X219500582Y-103527663D01*
X219461584Y-103471968D01*
X218837953Y-104095599D01*
X218825165Y-104014852D01*
X218767641Y-103901955D01*
X218678045Y-103812359D01*
X218565148Y-103754835D01*
X218484400Y-103742046D01*
X219108030Y-103118415D01*
X219052329Y-103079413D01*
X218858859Y-102989197D01*
X218853764Y-102987342D01*
X218854455Y-102985443D01*
X218802325Y-102953667D01*
X218771797Y-102890820D01*
X218780093Y-102821444D01*
X218824579Y-102767567D01*
X218854257Y-102754014D01*
X218853936Y-102753130D01*
X218859013Y-102751280D01*
X218859030Y-102751276D01*
X219052581Y-102661021D01*
X219227519Y-102538529D01*
X219378529Y-102387519D01*
X219501021Y-102212581D01*
X219591276Y-102019030D01*
X219646549Y-101812747D01*
X219665162Y-101600000D01*
X219665161Y-101599994D01*
X219659844Y-101539215D01*
X219646549Y-101387253D01*
X219591276Y-101180970D01*
X219501021Y-100987419D01*
X219378529Y-100812481D01*
X219378527Y-100812478D01*
X219227521Y-100661472D01*
X219068643Y-100550226D01*
X219052581Y-100538979D01*
X219052580Y-100538978D01*
X219052578Y-100538977D01*
X219052579Y-100538977D01*
X218923547Y-100478809D01*
X218859030Y-100448724D01*
X218859023Y-100448722D01*
X218853936Y-100446870D01*
X218854709Y-100444746D01*
X218803305Y-100413424D01*
X218772766Y-100350581D01*
X218781050Y-100281204D01*
X218825528Y-100227320D01*
X218854315Y-100214172D01*
X218853936Y-100213130D01*
X218859013Y-100211280D01*
X218859030Y-100211276D01*
X219052581Y-100121021D01*
X219227519Y-99998529D01*
X219378529Y-99847519D01*
X219501021Y-99672581D01*
X219591276Y-99479030D01*
X219646549Y-99272747D01*
X219665162Y-99060000D01*
X219646549Y-98847253D01*
X219591276Y-98640970D01*
X219501021Y-98447419D01*
X219403124Y-98307607D01*
X219378527Y-98272478D01*
X219227521Y-98121472D01*
X219052578Y-97998977D01*
X219052579Y-97998977D01*
X218893453Y-97924776D01*
X218859030Y-97908724D01*
X218859026Y-97908723D01*
X218859022Y-97908721D01*
X218652752Y-97853452D01*
X218652748Y-97853451D01*
X218652747Y-97853451D01*
X218652746Y-97853450D01*
X218652741Y-97853450D01*
X218440002Y-97834838D01*
X218439998Y-97834838D01*
X218227258Y-97853450D01*
X218227247Y-97853452D01*
X218020977Y-97908721D01*
X218020968Y-97908725D01*
X217827421Y-97998977D01*
X217652478Y-98121472D01*
X217501472Y-98272478D01*
X217378977Y-98447421D01*
X217288725Y-98640968D01*
X217288721Y-98640977D01*
X217233452Y-98847247D01*
X217233450Y-98847258D01*
X217214838Y-99059998D01*
X217214838Y-99060001D01*
X217233450Y-99272741D01*
X217233452Y-99272752D01*
X217288721Y-99479022D01*
X217288723Y-99479026D01*
X217288724Y-99479030D01*
X217310269Y-99525232D01*
X217378977Y-99672578D01*
X217501472Y-99847521D01*
X217652478Y-99998527D01*
X217652481Y-99998529D01*
X217827419Y-100121021D01*
X217827421Y-100121022D01*
X217827420Y-100121022D01*
X217879159Y-100145148D01*
X218020970Y-100211276D01*
X218020983Y-100211279D01*
X218026064Y-100213130D01*
X218025292Y-100215250D01*
X218076710Y-100246594D01*
X218107237Y-100309442D01*
X218098939Y-100378817D01*
X218054452Y-100432693D01*
X218025685Y-100445830D01*
X218026064Y-100446870D01*
X218020972Y-100448723D01*
X218020970Y-100448724D01*
X218020968Y-100448725D01*
X217827421Y-100538977D01*
X217652478Y-100661472D01*
X217501472Y-100812478D01*
X217378977Y-100987421D01*
X217326481Y-101100000D01*
X217291486Y-101175048D01*
X217288725Y-101180968D01*
X217288721Y-101180977D01*
X217233452Y-101387247D01*
X217233450Y-101387258D01*
X217214838Y-101599998D01*
X217214838Y-101600001D01*
X212240500Y-101600001D01*
X212240499Y-100552128D01*
X212234091Y-100492517D01*
X212225642Y-100469865D01*
X212183797Y-100357671D01*
X212183793Y-100357664D01*
X212097547Y-100242455D01*
X212097544Y-100242452D01*
X211982335Y-100156206D01*
X211982328Y-100156202D01*
X211847482Y-100105908D01*
X211847483Y-100105908D01*
X211787883Y-100099501D01*
X211787881Y-100099500D01*
X211787873Y-100099500D01*
X211787864Y-100099500D01*
X209692129Y-100099500D01*
X209692123Y-100099501D01*
X209632516Y-100105908D01*
X209497671Y-100156202D01*
X209497664Y-100156206D01*
X209382455Y-100242452D01*
X209382452Y-100242455D01*
X209296206Y-100357664D01*
X209296202Y-100357671D01*
X209245908Y-100492517D01*
X209239704Y-100550226D01*
X209239501Y-100552123D01*
X209239500Y-100552135D01*
X209239500Y-102647870D01*
X206434317Y-102647870D01*
X205872533Y-102086086D01*
X205882315Y-102084680D01*
X206013100Y-102024952D01*
X206121761Y-101930798D01*
X206199493Y-101809844D01*
X206223076Y-101729524D01*
X206963434Y-102469882D01*
X207063731Y-102316369D01*
X207163587Y-102088717D01*
X207224612Y-101847738D01*
X207224614Y-101847729D01*
X207245141Y-101600005D01*
X207245141Y-101599994D01*
X207224614Y-101352270D01*
X207224612Y-101352261D01*
X207163587Y-101111282D01*
X207063731Y-100883630D01*
X206963434Y-100730116D01*
X206223076Y-101470475D01*
X206199493Y-101390156D01*
X206121761Y-101269202D01*
X206013100Y-101175048D01*
X205882315Y-101115320D01*
X205872534Y-101113913D01*
X206610057Y-100376390D01*
X206610056Y-100376389D01*
X206563229Y-100339943D01*
X206344614Y-100221635D01*
X206344603Y-100221630D01*
X206109493Y-100140916D01*
X205864293Y-100100000D01*
X205615707Y-100100000D01*
X205370506Y-100140916D01*
X205135396Y-100221630D01*
X205135390Y-100221632D01*
X204916761Y-100339949D01*
X204869942Y-100376388D01*
X204869942Y-100376390D01*
X205607466Y-101113913D01*
X205597685Y-101115320D01*
X205466900Y-101175048D01*
X205358239Y-101269202D01*
X205280507Y-101390156D01*
X205256923Y-101470475D01*
X204516564Y-100730116D01*
X204416267Y-100883632D01*
X204316412Y-101111282D01*
X204255387Y-101352261D01*
X204255385Y-101352270D01*
X204234859Y-101599994D01*
X204234859Y-101600005D01*
X196704110Y-101600005D01*
X196688983Y-101576852D01*
X196688980Y-101576849D01*
X196688979Y-101576847D01*
X196531784Y-101406087D01*
X196531779Y-101406083D01*
X196531777Y-101406081D01*
X196348634Y-101263535D01*
X196348628Y-101263531D01*
X196144504Y-101153064D01*
X196144495Y-101153061D01*
X195924984Y-101077702D01*
X195753282Y-101049050D01*
X195696049Y-101039500D01*
X195463951Y-101039500D01*
X195418164Y-101047140D01*
X195235015Y-101077702D01*
X195015504Y-101153061D01*
X195015495Y-101153064D01*
X194811371Y-101263531D01*
X194811365Y-101263535D01*
X194628222Y-101406081D01*
X194628219Y-101406084D01*
X194471016Y-101576852D01*
X194344075Y-101771151D01*
X194250842Y-101983699D01*
X194193866Y-102208691D01*
X194193864Y-102208702D01*
X194174700Y-102439993D01*
X194174700Y-102440006D01*
X181338471Y-102440006D01*
X181339657Y-102438820D01*
X181470134Y-102252482D01*
X181566265Y-102046326D01*
X181566269Y-102046317D01*
X181618872Y-101850000D01*
X180655686Y-101850000D01*
X180667641Y-101838045D01*
X180725165Y-101725148D01*
X180731069Y-101687870D01*
X190479500Y-101687870D01*
X190479501Y-101687876D01*
X190485908Y-101747483D01*
X190536202Y-101882328D01*
X190536206Y-101882335D01*
X190622452Y-101997544D01*
X190622455Y-101997547D01*
X190737664Y-102083793D01*
X190737671Y-102083797D01*
X190872517Y-102134091D01*
X190872516Y-102134091D01*
X190879444Y-102134835D01*
X190932127Y-102140500D01*
X192827872Y-102140499D01*
X192887483Y-102134091D01*
X193022331Y-102083796D01*
X193137546Y-101997546D01*
X193223796Y-101882331D01*
X193274091Y-101747483D01*
X193280500Y-101687873D01*
X193280499Y-99792128D01*
X193274091Y-99732517D01*
X193251736Y-99672581D01*
X193223797Y-99597671D01*
X193223793Y-99597664D01*
X193137547Y-99482455D01*
X193137544Y-99482452D01*
X193022335Y-99396206D01*
X193022328Y-99396202D01*
X192887482Y-99345908D01*
X192887483Y-99345908D01*
X192827883Y-99339501D01*
X192827881Y-99339500D01*
X192827873Y-99339500D01*
X192827864Y-99339500D01*
X190932129Y-99339500D01*
X190932123Y-99339501D01*
X190872516Y-99345908D01*
X190737671Y-99396202D01*
X190737664Y-99396206D01*
X190622455Y-99482452D01*
X190622452Y-99482455D01*
X190536206Y-99597664D01*
X190536202Y-99597671D01*
X190485908Y-99732517D01*
X190479851Y-99788859D01*
X190479501Y-99792123D01*
X190479500Y-99792135D01*
X190479500Y-101687870D01*
X180731069Y-101687870D01*
X180744986Y-101600000D01*
X180725165Y-101474852D01*
X180667641Y-101361955D01*
X180655686Y-101350000D01*
X181618872Y-101350000D01*
X181618872Y-101349999D01*
X181566269Y-101153682D01*
X181566265Y-101153673D01*
X181470134Y-100947517D01*
X181339657Y-100761179D01*
X181178820Y-100600342D01*
X180992482Y-100469865D01*
X180786328Y-100373734D01*
X180590000Y-100321127D01*
X180590000Y-101284314D01*
X180578045Y-101272359D01*
X180465148Y-101214835D01*
X180371481Y-101200000D01*
X180308519Y-101200000D01*
X180214852Y-101214835D01*
X180101955Y-101272359D01*
X180090000Y-101284314D01*
X180090000Y-100321127D01*
X179893671Y-100373734D01*
X179687517Y-100469865D01*
X179501179Y-100600342D01*
X179340342Y-100761179D01*
X179209865Y-100947517D01*
X179113734Y-101153673D01*
X179113730Y-101153682D01*
X179061127Y-101349999D01*
X139260500Y-101349999D01*
X139260499Y-99060000D01*
X145714551Y-99060000D01*
X145734317Y-99311151D01*
X145793126Y-99556110D01*
X145889533Y-99788859D01*
X146021160Y-100003653D01*
X146021161Y-100003656D01*
X146061860Y-100051308D01*
X146184776Y-100195224D01*
X146277080Y-100274059D01*
X146376343Y-100358838D01*
X146376345Y-100358838D01*
X146379195Y-100360585D01*
X146591140Y-100490466D01*
X146783888Y-100570304D01*
X146823889Y-100586873D01*
X147068852Y-100645683D01*
X147320000Y-100665449D01*
X147571148Y-100645683D01*
X147816111Y-100586873D01*
X148048859Y-100490466D01*
X148263659Y-100358836D01*
X148455224Y-100195224D01*
X148618836Y-100003659D01*
X148731379Y-99820006D01*
X156074700Y-99820006D01*
X156093864Y-100051297D01*
X156093866Y-100051308D01*
X156150842Y-100276300D01*
X156244075Y-100488848D01*
X156371016Y-100683147D01*
X156371019Y-100683151D01*
X156371021Y-100683153D01*
X156528216Y-100853913D01*
X156528219Y-100853915D01*
X156528222Y-100853918D01*
X156711365Y-100996464D01*
X156711371Y-100996468D01*
X156711374Y-100996470D01*
X156915497Y-101106936D01*
X157029487Y-101146068D01*
X157135015Y-101182297D01*
X157135017Y-101182297D01*
X157135019Y-101182298D01*
X157363951Y-101220500D01*
X157363952Y-101220500D01*
X157596048Y-101220500D01*
X157596049Y-101220500D01*
X157824981Y-101182298D01*
X158044503Y-101106936D01*
X158248626Y-100996470D01*
X158431784Y-100853913D01*
X158588979Y-100683153D01*
X158646191Y-100595582D01*
X158699337Y-100550226D01*
X158768568Y-100540802D01*
X158831904Y-100570304D01*
X158853809Y-100595583D01*
X158911016Y-100683147D01*
X158911019Y-100683151D01*
X158911021Y-100683153D01*
X159068216Y-100853913D01*
X159068219Y-100853915D01*
X159068222Y-100853918D01*
X159251365Y-100996464D01*
X159251371Y-100996468D01*
X159251374Y-100996470D01*
X159455497Y-101106936D01*
X159569487Y-101146068D01*
X159675015Y-101182297D01*
X159675017Y-101182297D01*
X159675019Y-101182298D01*
X159903951Y-101220500D01*
X159903952Y-101220500D01*
X160136048Y-101220500D01*
X160136049Y-101220500D01*
X160364981Y-101182298D01*
X160584503Y-101106936D01*
X160788626Y-100996470D01*
X160971784Y-100853913D01*
X161128979Y-100683153D01*
X161255924Y-100488849D01*
X161349157Y-100276300D01*
X161406134Y-100051305D01*
X161406135Y-100051297D01*
X161408728Y-100020002D01*
X171415034Y-100020002D01*
X171434858Y-100246594D01*
X171434860Y-100246610D01*
X171493730Y-100466317D01*
X171493735Y-100466331D01*
X171589863Y-100672478D01*
X171640974Y-100745472D01*
X172322046Y-100064400D01*
X172334835Y-100145148D01*
X172392359Y-100258045D01*
X172481955Y-100347641D01*
X172594852Y-100405165D01*
X172675599Y-100417953D01*
X171994526Y-101099025D01*
X172067513Y-101150132D01*
X172067521Y-101150136D01*
X172273668Y-101246264D01*
X172273682Y-101246269D01*
X172493389Y-101305139D01*
X172493400Y-101305141D01*
X172719998Y-101324966D01*
X172720002Y-101324966D01*
X172946599Y-101305141D01*
X172946610Y-101305139D01*
X173166317Y-101246269D01*
X173166331Y-101246264D01*
X173372478Y-101150136D01*
X173445471Y-101099024D01*
X172764400Y-100417953D01*
X172845148Y-100405165D01*
X172958045Y-100347641D01*
X173047641Y-100258045D01*
X173105165Y-100145148D01*
X173117953Y-100064400D01*
X173799024Y-100745471D01*
X173850136Y-100672478D01*
X173946264Y-100466331D01*
X173946269Y-100466317D01*
X174005139Y-100246610D01*
X174005142Y-100246594D01*
X174024966Y-100020002D01*
X174024966Y-100019997D01*
X174005141Y-99793400D01*
X174005139Y-99793389D01*
X173946269Y-99573682D01*
X173946264Y-99573668D01*
X173850136Y-99367521D01*
X173850132Y-99367513D01*
X173799025Y-99294526D01*
X173117953Y-99975598D01*
X173105165Y-99894852D01*
X173047641Y-99781955D01*
X172958045Y-99692359D01*
X172845148Y-99634835D01*
X172764401Y-99622046D01*
X173445472Y-98940974D01*
X173372478Y-98889863D01*
X173166331Y-98793735D01*
X173166317Y-98793730D01*
X172946610Y-98734860D01*
X172946599Y-98734858D01*
X172720002Y-98715034D01*
X172719998Y-98715034D01*
X172493400Y-98734858D01*
X172493389Y-98734860D01*
X172273682Y-98793730D01*
X172273673Y-98793734D01*
X172067516Y-98889866D01*
X172067512Y-98889868D01*
X171994526Y-98940973D01*
X171994526Y-98940974D01*
X172675599Y-99622046D01*
X172594852Y-99634835D01*
X172481955Y-99692359D01*
X172392359Y-99781955D01*
X172334835Y-99894852D01*
X172322046Y-99975598D01*
X171640974Y-99294526D01*
X171640973Y-99294526D01*
X171589868Y-99367512D01*
X171589866Y-99367516D01*
X171493734Y-99573673D01*
X171493730Y-99573682D01*
X171434860Y-99793389D01*
X171434858Y-99793400D01*
X171415034Y-100019997D01*
X171415034Y-100020002D01*
X161408728Y-100020002D01*
X161425300Y-99820006D01*
X161425300Y-99819993D01*
X161406135Y-99588702D01*
X161406133Y-99588691D01*
X161349157Y-99363699D01*
X161255924Y-99151151D01*
X161128983Y-98956852D01*
X161128980Y-98956849D01*
X161128979Y-98956847D01*
X160971784Y-98786087D01*
X160971779Y-98786083D01*
X160971777Y-98786081D01*
X160788634Y-98643535D01*
X160788628Y-98643531D01*
X160584504Y-98533064D01*
X160584495Y-98533061D01*
X160364984Y-98457702D01*
X160193282Y-98429050D01*
X160136049Y-98419500D01*
X159903951Y-98419500D01*
X159858164Y-98427140D01*
X159675015Y-98457702D01*
X159455504Y-98533061D01*
X159455495Y-98533064D01*
X159251371Y-98643531D01*
X159251365Y-98643535D01*
X159068222Y-98786081D01*
X159068219Y-98786084D01*
X159068216Y-98786086D01*
X159068216Y-98786087D01*
X159011914Y-98847247D01*
X158911016Y-98956852D01*
X158853809Y-99044416D01*
X158800662Y-99089773D01*
X158731431Y-99099197D01*
X158668095Y-99069695D01*
X158646191Y-99044416D01*
X158588983Y-98956852D01*
X158588980Y-98956849D01*
X158588979Y-98956847D01*
X158431784Y-98786087D01*
X158431779Y-98786083D01*
X158431777Y-98786081D01*
X158248634Y-98643535D01*
X158248628Y-98643531D01*
X158044504Y-98533064D01*
X158044495Y-98533061D01*
X157824984Y-98457702D01*
X157653282Y-98429050D01*
X157596049Y-98419500D01*
X157363951Y-98419500D01*
X157318164Y-98427140D01*
X157135015Y-98457702D01*
X156915504Y-98533061D01*
X156915495Y-98533064D01*
X156711371Y-98643531D01*
X156711365Y-98643535D01*
X156528222Y-98786081D01*
X156528219Y-98786084D01*
X156528216Y-98786086D01*
X156528216Y-98786087D01*
X156471914Y-98847247D01*
X156371016Y-98956852D01*
X156244075Y-99151151D01*
X156150842Y-99363699D01*
X156093866Y-99588691D01*
X156093864Y-99588702D01*
X156074700Y-99819993D01*
X156074700Y-99820006D01*
X148731379Y-99820006D01*
X148750466Y-99788859D01*
X148846873Y-99556111D01*
X148905683Y-99311148D01*
X148925449Y-99060000D01*
X148905683Y-98808852D01*
X148846873Y-98563889D01*
X148798630Y-98447419D01*
X148750466Y-98331140D01*
X148618839Y-98116346D01*
X148618838Y-98116343D01*
X148518599Y-97998979D01*
X148455224Y-97924776D01*
X148281269Y-97776204D01*
X148263656Y-97761161D01*
X148263653Y-97761160D01*
X148048859Y-97629533D01*
X147816110Y-97533126D01*
X147571151Y-97474317D01*
X147320000Y-97454551D01*
X147068848Y-97474317D01*
X146823889Y-97533126D01*
X146591140Y-97629533D01*
X146376346Y-97761160D01*
X146376343Y-97761161D01*
X146184776Y-97924776D01*
X146021161Y-98116343D01*
X146021160Y-98116346D01*
X145889533Y-98331140D01*
X145793126Y-98563889D01*
X145734317Y-98808848D01*
X145714551Y-99060000D01*
X139260499Y-99060000D01*
X139260499Y-98172128D01*
X139254091Y-98112517D01*
X139211743Y-97998977D01*
X139203797Y-97977671D01*
X139203793Y-97977664D01*
X139117547Y-97862455D01*
X139117544Y-97862452D01*
X139002335Y-97776206D01*
X139002328Y-97776202D01*
X138867482Y-97725908D01*
X138867483Y-97725908D01*
X138807883Y-97719501D01*
X138807881Y-97719500D01*
X138807873Y-97719500D01*
X138807864Y-97719500D01*
X135512129Y-97719500D01*
X135512123Y-97719501D01*
X135452516Y-97725908D01*
X135317671Y-97776202D01*
X135317664Y-97776206D01*
X135202455Y-97862452D01*
X135202452Y-97862455D01*
X135116206Y-97977664D01*
X135116202Y-97977671D01*
X135065908Y-98112517D01*
X135059501Y-98172116D01*
X135059501Y-98172123D01*
X135059500Y-98172135D01*
X135059500Y-101467870D01*
X87442304Y-101467870D01*
X87311784Y-101326087D01*
X87311779Y-101326083D01*
X87311777Y-101326081D01*
X87128634Y-101183535D01*
X87128628Y-101183531D01*
X86924504Y-101073064D01*
X86924495Y-101073061D01*
X86704984Y-100997702D01*
X86533282Y-100969050D01*
X86476049Y-100959500D01*
X86243951Y-100959500D01*
X86198164Y-100967140D01*
X86015015Y-100997702D01*
X85795504Y-101073061D01*
X85795495Y-101073064D01*
X85591371Y-101183531D01*
X85591365Y-101183535D01*
X85408222Y-101326081D01*
X85408219Y-101326084D01*
X85251016Y-101496852D01*
X85124075Y-101691151D01*
X85030842Y-101903699D01*
X84973866Y-102128691D01*
X84973864Y-102128702D01*
X84954700Y-102359993D01*
X84954700Y-102360006D01*
X84365300Y-102360006D01*
X84365300Y-102359993D01*
X84346135Y-102128702D01*
X84346133Y-102128691D01*
X84289157Y-101903699D01*
X84195924Y-101691151D01*
X84068983Y-101496852D01*
X84068980Y-101496849D01*
X84068979Y-101496847D01*
X83911784Y-101326087D01*
X83911779Y-101326083D01*
X83911777Y-101326081D01*
X83728634Y-101183535D01*
X83728628Y-101183531D01*
X83524504Y-101073064D01*
X83524495Y-101073061D01*
X83304984Y-100997702D01*
X83133282Y-100969050D01*
X83076049Y-100959500D01*
X82843951Y-100959500D01*
X82798164Y-100967140D01*
X82615015Y-100997702D01*
X82395504Y-101073061D01*
X82395495Y-101073064D01*
X82191371Y-101183531D01*
X82191365Y-101183535D01*
X82008222Y-101326081D01*
X82008219Y-101326084D01*
X81851016Y-101496852D01*
X81724075Y-101691151D01*
X81630842Y-101903699D01*
X81573866Y-102128691D01*
X81573864Y-102128702D01*
X81554700Y-102359993D01*
X81554700Y-102360006D01*
X79490500Y-102360006D01*
X79490500Y-99594321D01*
X79507113Y-99532321D01*
X79535903Y-99482455D01*
X79567179Y-99428284D01*
X79625674Y-99248256D01*
X79645460Y-99060000D01*
X79625674Y-98871744D01*
X79567179Y-98691716D01*
X79472533Y-98527784D01*
X79345871Y-98387112D01*
X79345870Y-98387111D01*
X79192734Y-98275851D01*
X79192729Y-98275848D01*
X79019807Y-98198857D01*
X79019802Y-98198855D01*
X78874001Y-98167865D01*
X78834646Y-98159500D01*
X78645354Y-98159500D01*
X78612897Y-98166398D01*
X78460197Y-98198855D01*
X78460192Y-98198857D01*
X78287270Y-98275848D01*
X78287265Y-98275851D01*
X78134129Y-98387111D01*
X78007466Y-98527785D01*
X77912821Y-98691715D01*
X77912818Y-98691722D01*
X77862282Y-98847258D01*
X77854326Y-98871744D01*
X77834540Y-99060000D01*
X77854326Y-99248256D01*
X77854327Y-99248259D01*
X77912818Y-99428277D01*
X77912821Y-99428284D01*
X77972887Y-99532321D01*
X77989500Y-99594321D01*
X77989500Y-108685677D01*
X77972887Y-108747677D01*
X77912821Y-108851714D01*
X77854327Y-109031740D01*
X77854326Y-109031744D01*
X77834540Y-109220000D01*
X75760499Y-109220000D01*
X75760499Y-108332128D01*
X75754091Y-108272517D01*
X75715680Y-108169533D01*
X75703797Y-108137671D01*
X75703793Y-108137664D01*
X75617547Y-108022455D01*
X75617544Y-108022452D01*
X75502335Y-107936206D01*
X75502328Y-107936202D01*
X75367482Y-107885908D01*
X75367483Y-107885908D01*
X75307883Y-107879501D01*
X75307881Y-107879500D01*
X75307873Y-107879500D01*
X75307864Y-107879500D01*
X72012129Y-107879500D01*
X72012123Y-107879501D01*
X71952516Y-107885908D01*
X71817671Y-107936202D01*
X71817664Y-107936206D01*
X71702455Y-108022452D01*
X71702452Y-108022455D01*
X71616206Y-108137664D01*
X71616202Y-108137671D01*
X71565908Y-108272517D01*
X71559501Y-108332116D01*
X71559501Y-108332123D01*
X71559500Y-108332135D01*
X71559500Y-111627870D01*
X59722875Y-111627870D01*
X59857053Y-111518708D01*
X60053189Y-111308698D01*
X60218901Y-111073936D01*
X60351104Y-110818797D01*
X60447334Y-110548032D01*
X60505798Y-110266686D01*
X60525408Y-109980000D01*
X60505798Y-109693314D01*
X60447334Y-109411968D01*
X60351105Y-109141206D01*
X60351106Y-109141206D01*
X60218901Y-108886064D01*
X60053187Y-108651299D01*
X59883397Y-108469500D01*
X59857053Y-108441292D01*
X59684812Y-108301164D01*
X59634146Y-108259944D01*
X59388617Y-108110634D01*
X59125063Y-107996158D01*
X59125061Y-107996157D01*
X59125058Y-107996156D01*
X58995578Y-107959877D01*
X58848364Y-107918630D01*
X58848359Y-107918629D01*
X58848358Y-107918629D01*
X58684705Y-107896135D01*
X58563679Y-107879500D01*
X58563678Y-107879500D01*
X58276322Y-107879500D01*
X58276321Y-107879500D01*
X57991642Y-107918629D01*
X57991635Y-107918630D01*
X57783861Y-107976845D01*
X57714942Y-107996156D01*
X57714939Y-107996156D01*
X57714936Y-107996158D01*
X57714935Y-107996158D01*
X57451382Y-108110634D01*
X57205853Y-108259944D01*
X56982950Y-108441289D01*
X56786812Y-108651299D01*
X56621098Y-108886064D01*
X56488894Y-109141206D01*
X56392667Y-109411962D01*
X56392666Y-109411965D01*
X56334201Y-109693319D01*
X56314592Y-109980000D01*
X52205300Y-109980000D01*
X52205300Y-109979993D01*
X52186135Y-109748702D01*
X52186133Y-109748691D01*
X52129157Y-109523699D01*
X52035924Y-109311151D01*
X51908983Y-109116852D01*
X51908980Y-109116849D01*
X51908979Y-109116847D01*
X51751784Y-108946087D01*
X51573773Y-108807536D01*
X51532961Y-108750826D01*
X51529286Y-108681053D01*
X51563917Y-108620370D01*
X51573772Y-108611831D01*
X51598797Y-108592352D01*
X51598798Y-108592350D01*
X50932534Y-107926086D01*
X50942315Y-107924680D01*
X51073100Y-107864952D01*
X51181761Y-107770798D01*
X51259493Y-107649844D01*
X51283076Y-107569523D01*
X51951186Y-108237633D01*
X52035482Y-108108611D01*
X52128682Y-107896135D01*
X52185638Y-107671218D01*
X52204798Y-107440005D01*
X52204798Y-107439994D01*
X52185638Y-107208781D01*
X52128682Y-106983864D01*
X52035484Y-106771393D01*
X51951186Y-106642365D01*
X51283076Y-107310475D01*
X51259493Y-107230156D01*
X51181761Y-107109202D01*
X51073100Y-107015048D01*
X50942315Y-106955320D01*
X50932532Y-106953913D01*
X51598797Y-106287647D01*
X51598797Y-106287645D01*
X51568360Y-106263955D01*
X51568354Y-106263951D01*
X51364302Y-106153523D01*
X51364293Y-106153520D01*
X51144860Y-106078188D01*
X50916007Y-106040000D01*
X50683993Y-106040000D01*
X50455139Y-106078188D01*
X50235706Y-106153520D01*
X50235697Y-106153523D01*
X50031650Y-106263949D01*
X50001200Y-106287647D01*
X50667467Y-106953913D01*
X50657685Y-106955320D01*
X50526900Y-107015048D01*
X50418239Y-107109202D01*
X50340507Y-107230156D01*
X50316922Y-107310476D01*
X49648811Y-106642365D01*
X49564516Y-106771390D01*
X49471317Y-106983864D01*
X49414361Y-107208781D01*
X49395202Y-107439994D01*
X49395202Y-107440005D01*
X49414361Y-107671218D01*
X49471317Y-107896135D01*
X49564515Y-108108606D01*
X49648812Y-108237633D01*
X50316922Y-107569523D01*
X50340507Y-107649844D01*
X50418239Y-107770798D01*
X50526900Y-107864952D01*
X50657685Y-107924680D01*
X50667466Y-107926086D01*
X50001201Y-108592351D01*
X50026226Y-108611829D01*
X50067038Y-108668539D01*
X50070713Y-108738312D01*
X50036081Y-108798995D01*
X50026226Y-108807535D01*
X49848218Y-108946085D01*
X49691016Y-109116852D01*
X49564075Y-109311151D01*
X49470842Y-109523699D01*
X49413866Y-109748691D01*
X49413864Y-109748702D01*
X49394700Y-109979993D01*
X49394700Y-109980006D01*
X43180500Y-109980006D01*
X43180500Y-99820000D01*
X56314592Y-99820000D01*
X56334201Y-100106680D01*
X56334201Y-100106684D01*
X56334202Y-100106686D01*
X56344492Y-100156204D01*
X56392666Y-100388034D01*
X56392667Y-100388037D01*
X56488894Y-100658793D01*
X56488893Y-100658793D01*
X56621098Y-100913935D01*
X56786812Y-101148700D01*
X56871923Y-101239831D01*
X56982947Y-101358708D01*
X57205853Y-101540055D01*
X57448928Y-101687873D01*
X57451382Y-101689365D01*
X57638237Y-101770526D01*
X57714942Y-101803844D01*
X57991642Y-101881371D01*
X58229694Y-101914091D01*
X58276321Y-101920500D01*
X58276322Y-101920500D01*
X58563679Y-101920500D01*
X58610306Y-101914091D01*
X58848358Y-101881371D01*
X59125058Y-101803844D01*
X59238015Y-101754779D01*
X59388617Y-101689365D01*
X59388620Y-101689363D01*
X59388625Y-101689361D01*
X59634147Y-101540055D01*
X59722875Y-101467870D01*
X71559500Y-101467870D01*
X71559501Y-101467876D01*
X71565908Y-101527483D01*
X71616202Y-101662328D01*
X71616206Y-101662335D01*
X71702452Y-101777544D01*
X71702455Y-101777547D01*
X71817664Y-101863793D01*
X71817671Y-101863797D01*
X71952517Y-101914091D01*
X71952516Y-101914091D01*
X71959444Y-101914835D01*
X72012127Y-101920500D01*
X75307872Y-101920499D01*
X75367483Y-101914091D01*
X75502331Y-101863796D01*
X75617546Y-101777546D01*
X75703796Y-101662331D01*
X75754091Y-101527483D01*
X75760500Y-101467873D01*
X75760499Y-98172128D01*
X75754091Y-98112517D01*
X75711743Y-97998977D01*
X75703797Y-97977671D01*
X75703793Y-97977664D01*
X75617547Y-97862455D01*
X75617544Y-97862452D01*
X75502335Y-97776206D01*
X75502328Y-97776202D01*
X75367482Y-97725908D01*
X75367483Y-97725908D01*
X75307883Y-97719501D01*
X75307881Y-97719500D01*
X75307873Y-97719500D01*
X75307864Y-97719500D01*
X72012129Y-97719500D01*
X72012123Y-97719501D01*
X71952516Y-97725908D01*
X71817671Y-97776202D01*
X71817664Y-97776206D01*
X71702455Y-97862452D01*
X71702452Y-97862455D01*
X71616206Y-97977664D01*
X71616202Y-97977671D01*
X71565908Y-98112517D01*
X71559501Y-98172116D01*
X71559501Y-98172123D01*
X71559500Y-98172135D01*
X71559500Y-101467870D01*
X59722875Y-101467870D01*
X59857053Y-101358708D01*
X60053189Y-101148698D01*
X60218901Y-100913936D01*
X60351104Y-100658797D01*
X60447334Y-100388032D01*
X60505798Y-100106686D01*
X60525408Y-99820000D01*
X60505798Y-99533314D01*
X60447334Y-99251968D01*
X60351105Y-98981206D01*
X60351106Y-98981206D01*
X60218901Y-98726064D01*
X60053187Y-98491299D01*
X59955881Y-98387111D01*
X59857053Y-98281292D01*
X59654303Y-98116343D01*
X59634146Y-98099944D01*
X59388617Y-97950634D01*
X59125063Y-97836158D01*
X59125061Y-97836157D01*
X59125058Y-97836156D01*
X58995578Y-97799877D01*
X58848364Y-97758630D01*
X58848359Y-97758629D01*
X58848358Y-97758629D01*
X58685905Y-97736300D01*
X58563679Y-97719500D01*
X58563678Y-97719500D01*
X58276322Y-97719500D01*
X58276321Y-97719500D01*
X57991642Y-97758629D01*
X57991635Y-97758630D01*
X57793694Y-97814091D01*
X57714942Y-97836156D01*
X57714939Y-97836156D01*
X57714936Y-97836158D01*
X57714935Y-97836158D01*
X57451382Y-97950634D01*
X57205853Y-98099944D01*
X56982950Y-98281289D01*
X56786812Y-98491299D01*
X56621098Y-98726064D01*
X56488894Y-98981206D01*
X56392667Y-99251962D01*
X56392666Y-99251965D01*
X56334201Y-99533319D01*
X56314592Y-99820000D01*
X43180500Y-99820000D01*
X43180500Y-97280006D01*
X49394700Y-97280006D01*
X49413864Y-97511297D01*
X49413866Y-97511308D01*
X49470842Y-97736300D01*
X49564075Y-97948848D01*
X49691016Y-98143147D01*
X49691019Y-98143151D01*
X49691021Y-98143153D01*
X49848216Y-98313913D01*
X49848219Y-98313915D01*
X49848222Y-98313918D01*
X50031365Y-98456464D01*
X50031371Y-98456468D01*
X50031374Y-98456470D01*
X50235497Y-98566936D01*
X50349487Y-98606068D01*
X50455015Y-98642297D01*
X50455017Y-98642297D01*
X50455019Y-98642298D01*
X50683951Y-98680500D01*
X50683952Y-98680500D01*
X50916048Y-98680500D01*
X50916049Y-98680500D01*
X51144981Y-98642298D01*
X51364503Y-98566936D01*
X51568626Y-98456470D01*
X51751784Y-98313913D01*
X51908979Y-98143153D01*
X52035924Y-97948849D01*
X52129157Y-97736300D01*
X52186134Y-97511305D01*
X52198019Y-97367872D01*
X52198019Y-97367870D01*
X171419500Y-97367870D01*
X171419501Y-97367876D01*
X171425908Y-97427483D01*
X171476202Y-97562328D01*
X171476206Y-97562335D01*
X171562452Y-97677544D01*
X171562455Y-97677547D01*
X171677664Y-97763793D01*
X171677671Y-97763797D01*
X171812517Y-97814091D01*
X171812516Y-97814091D01*
X171819444Y-97814835D01*
X171872127Y-97820500D01*
X173567872Y-97820499D01*
X173627483Y-97814091D01*
X173762331Y-97763796D01*
X173877546Y-97677546D01*
X173963796Y-97562331D01*
X174014091Y-97427483D01*
X174020500Y-97367873D01*
X174020499Y-95672128D01*
X174014091Y-95612517D01*
X174001514Y-95578797D01*
X173963797Y-95477671D01*
X173963793Y-95477664D01*
X173877547Y-95362455D01*
X173877544Y-95362452D01*
X173762335Y-95276206D01*
X173762328Y-95276202D01*
X173627482Y-95225908D01*
X173627483Y-95225908D01*
X173567883Y-95219501D01*
X173567881Y-95219500D01*
X173567873Y-95219500D01*
X173567864Y-95219500D01*
X171872129Y-95219500D01*
X171872123Y-95219501D01*
X171812516Y-95225908D01*
X171677671Y-95276202D01*
X171677664Y-95276206D01*
X171562455Y-95362452D01*
X171562452Y-95362455D01*
X171476206Y-95477664D01*
X171476202Y-95477671D01*
X171425908Y-95612517D01*
X171419501Y-95672116D01*
X171419501Y-95672123D01*
X171419500Y-95672135D01*
X171419500Y-97367870D01*
X52198019Y-97367870D01*
X52205300Y-97280006D01*
X52205300Y-97279993D01*
X52186135Y-97048702D01*
X52186133Y-97048691D01*
X52129157Y-96823699D01*
X52035924Y-96611151D01*
X51908983Y-96416852D01*
X51908980Y-96416849D01*
X51908979Y-96416847D01*
X51751784Y-96246087D01*
X51573773Y-96107536D01*
X51532961Y-96050826D01*
X51529286Y-95981053D01*
X51563917Y-95920370D01*
X51573772Y-95911831D01*
X51598797Y-95892352D01*
X51598798Y-95892350D01*
X50932534Y-95226086D01*
X50942315Y-95224680D01*
X51073100Y-95164952D01*
X51181761Y-95070798D01*
X51259493Y-94949844D01*
X51283076Y-94869523D01*
X51951186Y-95537633D01*
X52035482Y-95408611D01*
X52128682Y-95196135D01*
X52185638Y-94971218D01*
X52204798Y-94740005D01*
X52204798Y-94739994D01*
X52185638Y-94508781D01*
X52180882Y-94489999D01*
X94432192Y-94489999D01*
X94432193Y-94490000D01*
X95759917Y-94490000D01*
X95735123Y-94560857D01*
X95714938Y-94740000D01*
X95735123Y-94919143D01*
X95759917Y-94990000D01*
X94432193Y-94990000D01*
X94434697Y-95026619D01*
X94493146Y-95307888D01*
X94493150Y-95307902D01*
X94589355Y-95578595D01*
X94721527Y-95833676D01*
X94887204Y-96068385D01*
X94887204Y-96068386D01*
X95083288Y-96278341D01*
X95306135Y-96459641D01*
X95306146Y-96459648D01*
X95551607Y-96608917D01*
X95815108Y-96723371D01*
X96091737Y-96800879D01*
X96091746Y-96800881D01*
X96269999Y-96825380D01*
X96270000Y-96825380D01*
X96270000Y-95500083D01*
X96340857Y-95524877D01*
X96475074Y-95540000D01*
X96564926Y-95540000D01*
X96699143Y-95524877D01*
X96770000Y-95500083D01*
X96770000Y-96825380D01*
X96948253Y-96800881D01*
X96948262Y-96800879D01*
X97224891Y-96723371D01*
X97488392Y-96608917D01*
X97733853Y-96459648D01*
X97733864Y-96459641D01*
X97956711Y-96278341D01*
X98152795Y-96068386D01*
X98152795Y-96068385D01*
X98318472Y-95833676D01*
X98450644Y-95578595D01*
X98546849Y-95307902D01*
X98546853Y-95307888D01*
X98605302Y-95026619D01*
X98607807Y-94990000D01*
X97280083Y-94990000D01*
X97304877Y-94919143D01*
X97325062Y-94740000D01*
X104574592Y-94740000D01*
X104594201Y-95026680D01*
X104594201Y-95026684D01*
X104594202Y-95026686D01*
X104603687Y-95072331D01*
X104652666Y-95308034D01*
X104652667Y-95308037D01*
X104748894Y-95578793D01*
X104748893Y-95578793D01*
X104881098Y-95833935D01*
X105046812Y-96068700D01*
X105083082Y-96107535D01*
X105242947Y-96278708D01*
X105465853Y-96460055D01*
X105666926Y-96582331D01*
X105711382Y-96609365D01*
X105898237Y-96690526D01*
X105974942Y-96723844D01*
X106251642Y-96801371D01*
X106489694Y-96834091D01*
X106536321Y-96840500D01*
X106536322Y-96840500D01*
X106823679Y-96840500D01*
X106870306Y-96834091D01*
X107108358Y-96801371D01*
X107385058Y-96723844D01*
X107498015Y-96674779D01*
X107648617Y-96609365D01*
X107648620Y-96609363D01*
X107648625Y-96609361D01*
X107894147Y-96460055D01*
X107982875Y-96387870D01*
X119819500Y-96387870D01*
X119819501Y-96387876D01*
X119825908Y-96447483D01*
X119876202Y-96582328D01*
X119876206Y-96582335D01*
X119962452Y-96697544D01*
X119962455Y-96697547D01*
X120077664Y-96783793D01*
X120077671Y-96783797D01*
X120212517Y-96834091D01*
X120212516Y-96834091D01*
X120219444Y-96834835D01*
X120272127Y-96840500D01*
X123567872Y-96840499D01*
X123627483Y-96834091D01*
X123762331Y-96783796D01*
X123877546Y-96697546D01*
X123963796Y-96582331D01*
X124014091Y-96447483D01*
X124020500Y-96387873D01*
X124020499Y-94360000D01*
X145714551Y-94360000D01*
X145734317Y-94611151D01*
X145793126Y-94856110D01*
X145889533Y-95088859D01*
X146021160Y-95303653D01*
X146021161Y-95303656D01*
X146076604Y-95368571D01*
X146184776Y-95495224D01*
X146333066Y-95621875D01*
X146376343Y-95658838D01*
X146376346Y-95658839D01*
X146591140Y-95790466D01*
X146696087Y-95833936D01*
X146823889Y-95886873D01*
X147068852Y-95945683D01*
X147320000Y-95965449D01*
X147571148Y-95945683D01*
X147816111Y-95886873D01*
X148048859Y-95790466D01*
X148263659Y-95658836D01*
X148455224Y-95495224D01*
X148618836Y-95303659D01*
X148750466Y-95088859D01*
X148837860Y-94877870D01*
X222169500Y-94877870D01*
X222169501Y-94877876D01*
X222175908Y-94937483D01*
X222226202Y-95072328D01*
X222226206Y-95072335D01*
X222312452Y-95187544D01*
X222312455Y-95187547D01*
X222427664Y-95273793D01*
X222427671Y-95273797D01*
X222562517Y-95324091D01*
X222562516Y-95324091D01*
X222569444Y-95324835D01*
X222622127Y-95330500D01*
X224417872Y-95330499D01*
X224477483Y-95324091D01*
X224612331Y-95273796D01*
X224727546Y-95187546D01*
X224813796Y-95072331D01*
X224864091Y-94937483D01*
X224870500Y-94877873D01*
X224870499Y-93082128D01*
X224864091Y-93022517D01*
X224863283Y-93020351D01*
X224813797Y-92887671D01*
X224813793Y-92887664D01*
X224727547Y-92772455D01*
X224727544Y-92772452D01*
X224612335Y-92686206D01*
X224612328Y-92686202D01*
X224477482Y-92635908D01*
X224477483Y-92635908D01*
X224417883Y-92629501D01*
X224417881Y-92629500D01*
X224417873Y-92629500D01*
X224417864Y-92629500D01*
X222622129Y-92629500D01*
X222622123Y-92629501D01*
X222562516Y-92635908D01*
X222427671Y-92686202D01*
X222427664Y-92686206D01*
X222312455Y-92772452D01*
X222312452Y-92772455D01*
X222226206Y-92887664D01*
X222226202Y-92887671D01*
X222175908Y-93022517D01*
X222169501Y-93082116D01*
X222169501Y-93082123D01*
X222169500Y-93082135D01*
X222169500Y-94877870D01*
X148837860Y-94877870D01*
X148846873Y-94856111D01*
X148905683Y-94611148D01*
X148925449Y-94360000D01*
X148905683Y-94108852D01*
X148846873Y-93863889D01*
X148756755Y-93646323D01*
X148750466Y-93631140D01*
X148618839Y-93416346D01*
X148618838Y-93416343D01*
X148581875Y-93373066D01*
X148455224Y-93224776D01*
X148328571Y-93116604D01*
X148263656Y-93061161D01*
X148263653Y-93061160D01*
X148048859Y-92929533D01*
X147816110Y-92833126D01*
X147571151Y-92774317D01*
X147320000Y-92754551D01*
X147068848Y-92774317D01*
X146823889Y-92833126D01*
X146591140Y-92929533D01*
X146376346Y-93061160D01*
X146376343Y-93061161D01*
X146184776Y-93224776D01*
X146021161Y-93416343D01*
X146021160Y-93416346D01*
X145889533Y-93631140D01*
X145793126Y-93863889D01*
X145734317Y-94108848D01*
X145714551Y-94360000D01*
X124020499Y-94360000D01*
X124020499Y-93092128D01*
X124014091Y-93032517D01*
X124010361Y-93022517D01*
X123963797Y-92897671D01*
X123963793Y-92897664D01*
X123877547Y-92782455D01*
X123877544Y-92782452D01*
X123762335Y-92696206D01*
X123762328Y-92696202D01*
X123627482Y-92645908D01*
X123627483Y-92645908D01*
X123567883Y-92639501D01*
X123567881Y-92639500D01*
X123567873Y-92639500D01*
X123567864Y-92639500D01*
X120272129Y-92639500D01*
X120272123Y-92639501D01*
X120212516Y-92645908D01*
X120077671Y-92696202D01*
X120077664Y-92696206D01*
X119962455Y-92782452D01*
X119962452Y-92782455D01*
X119876206Y-92897664D01*
X119876202Y-92897671D01*
X119825908Y-93032517D01*
X119819957Y-93087872D01*
X119819501Y-93092123D01*
X119819500Y-93092135D01*
X119819500Y-96387870D01*
X107982875Y-96387870D01*
X108117053Y-96278708D01*
X108313189Y-96068698D01*
X108478901Y-95833936D01*
X108611104Y-95578797D01*
X108707334Y-95308032D01*
X108765798Y-95026686D01*
X108785408Y-94740000D01*
X108765798Y-94453314D01*
X108707334Y-94171968D01*
X108611105Y-93901206D01*
X108611106Y-93901206D01*
X108478901Y-93646064D01*
X108313187Y-93411299D01*
X108192735Y-93282328D01*
X108117053Y-93201292D01*
X107944812Y-93061164D01*
X107894146Y-93019944D01*
X107648617Y-92870634D01*
X107385063Y-92756158D01*
X107385061Y-92756157D01*
X107385058Y-92756156D01*
X107255578Y-92719877D01*
X107108364Y-92678630D01*
X107108359Y-92678629D01*
X107108358Y-92678629D01*
X106933668Y-92654618D01*
X106823679Y-92639500D01*
X106823678Y-92639500D01*
X106536322Y-92639500D01*
X106536321Y-92639500D01*
X106251642Y-92678629D01*
X106251635Y-92678630D01*
X106043861Y-92736845D01*
X105974942Y-92756156D01*
X105974939Y-92756156D01*
X105974936Y-92756158D01*
X105974935Y-92756158D01*
X105711382Y-92870634D01*
X105465853Y-93019944D01*
X105242950Y-93201289D01*
X105046812Y-93411299D01*
X104881098Y-93646064D01*
X104748894Y-93901206D01*
X104652667Y-94171962D01*
X104652666Y-94171965D01*
X104594201Y-94453319D01*
X104574592Y-94740000D01*
X97325062Y-94740000D01*
X97304877Y-94560857D01*
X97280083Y-94490000D01*
X98607807Y-94490000D01*
X98607807Y-94489999D01*
X98605302Y-94453380D01*
X98546853Y-94172111D01*
X98546849Y-94172097D01*
X98450644Y-93901404D01*
X98318472Y-93646323D01*
X98152795Y-93411614D01*
X98152795Y-93411613D01*
X97956711Y-93201658D01*
X97733864Y-93020358D01*
X97733853Y-93020351D01*
X97488392Y-92871082D01*
X97224891Y-92756628D01*
X96948262Y-92679120D01*
X96948255Y-92679119D01*
X96770000Y-92654618D01*
X96770000Y-93979916D01*
X96699143Y-93955123D01*
X96564926Y-93940000D01*
X96475074Y-93940000D01*
X96340857Y-93955123D01*
X96270000Y-93979916D01*
X96270000Y-92654618D01*
X96091744Y-92679119D01*
X96091737Y-92679120D01*
X95815108Y-92756628D01*
X95551607Y-92871082D01*
X95306146Y-93020351D01*
X95306135Y-93020358D01*
X95083288Y-93201658D01*
X94887204Y-93411613D01*
X94887204Y-93411614D01*
X94721527Y-93646323D01*
X94589355Y-93901404D01*
X94493150Y-94172097D01*
X94493146Y-94172111D01*
X94434697Y-94453380D01*
X94432192Y-94489999D01*
X52180882Y-94489999D01*
X52128682Y-94283864D01*
X52035484Y-94071393D01*
X51951186Y-93942365D01*
X51283076Y-94610475D01*
X51259493Y-94530156D01*
X51181761Y-94409202D01*
X51073100Y-94315048D01*
X50942315Y-94255320D01*
X50932532Y-94253913D01*
X51598797Y-93587647D01*
X51598797Y-93587645D01*
X51568360Y-93563955D01*
X51568354Y-93563951D01*
X51364302Y-93453523D01*
X51364293Y-93453520D01*
X51144860Y-93378188D01*
X50916007Y-93340000D01*
X50683993Y-93340000D01*
X50455139Y-93378188D01*
X50235706Y-93453520D01*
X50235697Y-93453523D01*
X50031650Y-93563949D01*
X50001200Y-93587647D01*
X50667467Y-94253913D01*
X50657685Y-94255320D01*
X50526900Y-94315048D01*
X50418239Y-94409202D01*
X50340507Y-94530156D01*
X50316922Y-94610476D01*
X49648811Y-93942365D01*
X49564516Y-94071390D01*
X49471317Y-94283864D01*
X49414361Y-94508781D01*
X49395202Y-94739994D01*
X49395202Y-94740005D01*
X49414361Y-94971218D01*
X49471317Y-95196135D01*
X49564515Y-95408606D01*
X49648812Y-95537633D01*
X50316922Y-94869523D01*
X50340507Y-94949844D01*
X50418239Y-95070798D01*
X50526900Y-95164952D01*
X50657685Y-95224680D01*
X50667466Y-95226086D01*
X50001201Y-95892351D01*
X50026226Y-95911829D01*
X50067038Y-95968539D01*
X50070713Y-96038312D01*
X50036081Y-96098995D01*
X50026226Y-96107535D01*
X49848218Y-96246085D01*
X49691016Y-96416852D01*
X49564075Y-96611151D01*
X49470842Y-96823699D01*
X49413866Y-97048691D01*
X49413864Y-97048702D01*
X49394700Y-97279993D01*
X49394700Y-97280006D01*
X43180500Y-97280006D01*
X43180500Y-91440002D01*
X80055340Y-91440002D01*
X80073944Y-91652654D01*
X80073945Y-91652662D01*
X80129194Y-91858853D01*
X80129197Y-91858859D01*
X80219413Y-92052329D01*
X80258415Y-92108030D01*
X80882046Y-91484399D01*
X80894835Y-91565148D01*
X80952359Y-91678045D01*
X81041955Y-91767641D01*
X81154852Y-91825165D01*
X81235599Y-91837953D01*
X80611968Y-92461584D01*
X80667663Y-92500582D01*
X80667669Y-92500586D01*
X80861140Y-92590802D01*
X80861146Y-92590805D01*
X81067337Y-92646054D01*
X81067345Y-92646055D01*
X81279998Y-92664660D01*
X81280002Y-92664660D01*
X81492654Y-92646055D01*
X81492662Y-92646054D01*
X81698853Y-92590805D01*
X81698864Y-92590801D01*
X81892325Y-92500589D01*
X81948030Y-92461583D01*
X81324401Y-91837953D01*
X81405148Y-91825165D01*
X81518045Y-91767641D01*
X81607641Y-91678045D01*
X81665165Y-91565148D01*
X81677953Y-91484400D01*
X82301583Y-92108029D01*
X82340589Y-92052325D01*
X82430801Y-91858864D01*
X82432658Y-91853764D01*
X82434567Y-91854458D01*
X82466291Y-91802362D01*
X82529125Y-91771806D01*
X82598504Y-91780071D01*
X82652401Y-91824533D01*
X82665989Y-91854256D01*
X82666870Y-91853936D01*
X82668722Y-91859022D01*
X82668724Y-91859030D01*
X82707390Y-91941948D01*
X82758977Y-92052578D01*
X82881472Y-92227521D01*
X83032478Y-92378527D01*
X83032481Y-92378529D01*
X83207419Y-92501021D01*
X83207421Y-92501022D01*
X83207420Y-92501022D01*
X83271936Y-92531106D01*
X83400970Y-92591276D01*
X83607253Y-92646549D01*
X83759215Y-92659844D01*
X83819998Y-92665162D01*
X83820000Y-92665162D01*
X83820002Y-92665162D01*
X83873186Y-92660508D01*
X84032747Y-92646549D01*
X84239030Y-92591276D01*
X84432581Y-92501021D01*
X84607519Y-92378529D01*
X84758529Y-92227519D01*
X84881021Y-92052581D01*
X84971276Y-91859030D01*
X84971280Y-91859013D01*
X84973130Y-91853936D01*
X84975253Y-91854709D01*
X85006576Y-91803305D01*
X85069419Y-91772766D01*
X85138796Y-91781050D01*
X85192680Y-91825528D01*
X85205827Y-91854315D01*
X85206870Y-91853936D01*
X85208722Y-91859022D01*
X85208724Y-91859030D01*
X85247390Y-91941948D01*
X85298977Y-92052578D01*
X85421472Y-92227521D01*
X85572478Y-92378527D01*
X85572481Y-92378529D01*
X85747419Y-92501021D01*
X85747421Y-92501022D01*
X85747420Y-92501022D01*
X85811936Y-92531106D01*
X85940970Y-92591276D01*
X86147253Y-92646549D01*
X86299215Y-92659844D01*
X86359998Y-92665162D01*
X86360000Y-92665162D01*
X86360002Y-92665162D01*
X86413186Y-92660508D01*
X86572747Y-92646549D01*
X86779030Y-92591276D01*
X86972581Y-92501021D01*
X87147519Y-92378529D01*
X87298529Y-92227519D01*
X87421021Y-92052581D01*
X87511276Y-91859030D01*
X87566549Y-91652747D01*
X87585162Y-91440000D01*
X87566549Y-91227253D01*
X87556567Y-91189999D01*
X178252192Y-91189999D01*
X178252193Y-91190000D01*
X179579917Y-91190000D01*
X179555123Y-91260857D01*
X179534938Y-91440000D01*
X179555123Y-91619143D01*
X179579917Y-91690000D01*
X178252193Y-91690000D01*
X178254697Y-91726619D01*
X178313146Y-92007888D01*
X178313150Y-92007902D01*
X178409355Y-92278595D01*
X178541527Y-92533676D01*
X178707204Y-92768385D01*
X178707204Y-92768386D01*
X178903288Y-92978341D01*
X179126135Y-93159641D01*
X179126146Y-93159648D01*
X179371607Y-93308917D01*
X179635108Y-93423371D01*
X179911737Y-93500879D01*
X179911746Y-93500881D01*
X180089999Y-93525380D01*
X180090000Y-93525380D01*
X180090000Y-92200083D01*
X180160857Y-92224877D01*
X180295074Y-92240000D01*
X180384926Y-92240000D01*
X180519143Y-92224877D01*
X180590000Y-92200083D01*
X180590000Y-93525380D01*
X180768253Y-93500881D01*
X180768262Y-93500879D01*
X181044891Y-93423371D01*
X181308392Y-93308917D01*
X181553853Y-93159648D01*
X181553864Y-93159641D01*
X181642082Y-93087870D01*
X193479500Y-93087870D01*
X193479501Y-93087876D01*
X193485908Y-93147483D01*
X193536202Y-93282328D01*
X193536206Y-93282335D01*
X193622452Y-93397544D01*
X193622455Y-93397547D01*
X193737664Y-93483793D01*
X193737671Y-93483797D01*
X193872517Y-93534091D01*
X193872516Y-93534091D01*
X193879444Y-93534835D01*
X193932127Y-93540500D01*
X197227872Y-93540499D01*
X197287483Y-93534091D01*
X197422331Y-93483796D01*
X197537546Y-93397546D01*
X197623796Y-93282331D01*
X197674091Y-93147483D01*
X197680500Y-93087873D01*
X197680500Y-91503501D01*
X202544032Y-91503501D01*
X202563864Y-91730186D01*
X202563866Y-91730197D01*
X202622758Y-91949988D01*
X202622761Y-91949997D01*
X202718931Y-92156232D01*
X202718932Y-92156234D01*
X202849454Y-92342641D01*
X203010358Y-92503545D01*
X203010361Y-92503547D01*
X203196766Y-92634068D01*
X203403004Y-92730239D01*
X203622808Y-92789135D01*
X203784730Y-92803301D01*
X203849498Y-92808968D01*
X203849500Y-92808968D01*
X203849502Y-92808968D01*
X203906173Y-92804009D01*
X204076192Y-92789135D01*
X204295996Y-92730239D01*
X204502234Y-92634068D01*
X204688639Y-92503547D01*
X204849547Y-92342639D01*
X204980068Y-92156234D01*
X205076239Y-91949996D01*
X205135135Y-91730192D01*
X205154968Y-91503501D01*
X215244032Y-91503501D01*
X215263864Y-91730186D01*
X215263866Y-91730197D01*
X215322758Y-91949988D01*
X215322761Y-91949997D01*
X215418931Y-92156232D01*
X215418932Y-92156234D01*
X215549454Y-92342641D01*
X215710358Y-92503545D01*
X215710361Y-92503547D01*
X215896766Y-92634068D01*
X216103004Y-92730239D01*
X216322808Y-92789135D01*
X216484730Y-92803301D01*
X216549498Y-92808968D01*
X216549500Y-92808968D01*
X216549502Y-92808968D01*
X216606173Y-92804009D01*
X216776192Y-92789135D01*
X216995996Y-92730239D01*
X217202234Y-92634068D01*
X217388639Y-92503547D01*
X217549547Y-92342639D01*
X217680068Y-92156234D01*
X217776239Y-91949996D01*
X217835135Y-91730192D01*
X217854968Y-91503500D01*
X217835135Y-91276808D01*
X217784128Y-91086446D01*
X217776241Y-91057011D01*
X217776238Y-91057002D01*
X217680068Y-90850766D01*
X217549547Y-90664361D01*
X217549545Y-90664358D01*
X217388641Y-90503454D01*
X217202234Y-90372932D01*
X217202232Y-90372931D01*
X216995997Y-90276761D01*
X216995988Y-90276758D01*
X216776197Y-90217866D01*
X216776193Y-90217865D01*
X216776192Y-90217865D01*
X216776191Y-90217864D01*
X216776186Y-90217864D01*
X216549502Y-90198032D01*
X216549498Y-90198032D01*
X216322813Y-90217864D01*
X216322802Y-90217866D01*
X216103011Y-90276758D01*
X216103002Y-90276761D01*
X215896767Y-90372931D01*
X215896765Y-90372932D01*
X215710358Y-90503454D01*
X215549454Y-90664358D01*
X215418932Y-90850765D01*
X215418931Y-90850767D01*
X215322761Y-91057002D01*
X215322758Y-91057011D01*
X215263866Y-91276802D01*
X215263864Y-91276813D01*
X215244032Y-91503498D01*
X215244032Y-91503501D01*
X205154968Y-91503501D01*
X205154968Y-91503500D01*
X205135135Y-91276808D01*
X205084128Y-91086446D01*
X205076241Y-91057011D01*
X205076238Y-91057002D01*
X204980068Y-90850766D01*
X204849547Y-90664361D01*
X204849545Y-90664358D01*
X204688641Y-90503454D01*
X204502234Y-90372932D01*
X204502232Y-90372931D01*
X204295997Y-90276761D01*
X204295988Y-90276758D01*
X204076197Y-90217866D01*
X204076193Y-90217865D01*
X204076192Y-90217865D01*
X204076191Y-90217864D01*
X204076186Y-90217864D01*
X203849502Y-90198032D01*
X203849498Y-90198032D01*
X203622813Y-90217864D01*
X203622802Y-90217866D01*
X203403011Y-90276758D01*
X203403002Y-90276761D01*
X203196767Y-90372931D01*
X203196765Y-90372932D01*
X203010358Y-90503454D01*
X202849454Y-90664358D01*
X202718932Y-90850765D01*
X202718931Y-90850767D01*
X202622761Y-91057002D01*
X202622758Y-91057011D01*
X202563866Y-91276802D01*
X202563864Y-91276813D01*
X202544032Y-91503498D01*
X202544032Y-91503501D01*
X197680500Y-91503501D01*
X197680499Y-89792128D01*
X197674091Y-89732517D01*
X197669553Y-89720351D01*
X197623797Y-89597671D01*
X197623793Y-89597664D01*
X197537547Y-89482455D01*
X197537544Y-89482452D01*
X197422335Y-89396206D01*
X197422328Y-89396202D01*
X197287482Y-89345908D01*
X197287483Y-89345908D01*
X197227883Y-89339501D01*
X197227881Y-89339500D01*
X197227873Y-89339500D01*
X197227864Y-89339500D01*
X193932129Y-89339500D01*
X193932123Y-89339501D01*
X193872516Y-89345908D01*
X193737671Y-89396202D01*
X193737664Y-89396206D01*
X193622455Y-89482452D01*
X193622452Y-89482455D01*
X193536206Y-89597664D01*
X193536202Y-89597671D01*
X193485908Y-89732517D01*
X193479501Y-89792116D01*
X193479501Y-89792123D01*
X193479500Y-89792135D01*
X193479500Y-93087870D01*
X181642082Y-93087870D01*
X181776711Y-92978341D01*
X181972795Y-92768386D01*
X181972795Y-92768385D01*
X182138472Y-92533676D01*
X182270644Y-92278595D01*
X182366849Y-92007902D01*
X182366853Y-92007888D01*
X182425302Y-91726619D01*
X182427807Y-91690000D01*
X181100083Y-91690000D01*
X181124877Y-91619143D01*
X181145062Y-91440000D01*
X181124877Y-91260857D01*
X181100083Y-91190000D01*
X182427807Y-91190000D01*
X182427807Y-91189999D01*
X182425302Y-91153380D01*
X182366853Y-90872111D01*
X182366849Y-90872097D01*
X182270644Y-90601404D01*
X182138472Y-90346323D01*
X181972795Y-90111614D01*
X181972795Y-90111613D01*
X181776711Y-89901658D01*
X181553864Y-89720358D01*
X181553853Y-89720351D01*
X181308392Y-89571082D01*
X181044891Y-89456628D01*
X180768262Y-89379120D01*
X180768255Y-89379119D01*
X180590000Y-89354618D01*
X180590000Y-90679916D01*
X180519143Y-90655123D01*
X180384926Y-90640000D01*
X180295074Y-90640000D01*
X180160857Y-90655123D01*
X180090000Y-90679916D01*
X180090000Y-89354618D01*
X179911744Y-89379119D01*
X179911737Y-89379120D01*
X179635108Y-89456628D01*
X179371607Y-89571082D01*
X179126146Y-89720351D01*
X179126135Y-89720358D01*
X178903288Y-89901658D01*
X178707204Y-90111613D01*
X178707204Y-90111614D01*
X178541527Y-90346323D01*
X178409355Y-90601404D01*
X178313150Y-90872097D01*
X178313146Y-90872111D01*
X178254697Y-91153380D01*
X178252192Y-91189999D01*
X87556567Y-91189999D01*
X87512539Y-91025685D01*
X87511278Y-91020977D01*
X87511277Y-91020976D01*
X87511276Y-91020970D01*
X87421021Y-90827419D01*
X87298529Y-90652481D01*
X87298527Y-90652478D01*
X87147521Y-90501472D01*
X86972578Y-90378977D01*
X86972579Y-90378977D01*
X86843547Y-90318809D01*
X86779030Y-90288724D01*
X86779026Y-90288723D01*
X86779022Y-90288721D01*
X86572752Y-90233452D01*
X86572748Y-90233451D01*
X86572747Y-90233451D01*
X86572746Y-90233450D01*
X86572741Y-90233450D01*
X86360002Y-90214838D01*
X86359998Y-90214838D01*
X86147258Y-90233450D01*
X86147247Y-90233452D01*
X85940977Y-90288721D01*
X85940968Y-90288725D01*
X85747421Y-90378977D01*
X85572478Y-90501472D01*
X85421472Y-90652478D01*
X85298977Y-90827421D01*
X85208725Y-91020968D01*
X85206870Y-91026064D01*
X85204749Y-91025292D01*
X85173406Y-91076710D01*
X85110558Y-91107237D01*
X85041183Y-91098939D01*
X84987307Y-91054452D01*
X84974169Y-91025685D01*
X84973130Y-91026064D01*
X84971279Y-91020983D01*
X84971276Y-91020970D01*
X84881021Y-90827419D01*
X84758529Y-90652481D01*
X84758527Y-90652478D01*
X84607521Y-90501472D01*
X84432578Y-90378977D01*
X84432579Y-90378977D01*
X84303547Y-90318809D01*
X84239030Y-90288724D01*
X84239026Y-90288723D01*
X84239022Y-90288721D01*
X84032752Y-90233452D01*
X84032748Y-90233451D01*
X84032747Y-90233451D01*
X84032746Y-90233450D01*
X84032741Y-90233450D01*
X83820002Y-90214838D01*
X83819998Y-90214838D01*
X83607258Y-90233450D01*
X83607247Y-90233452D01*
X83400977Y-90288721D01*
X83400968Y-90288725D01*
X83207421Y-90378977D01*
X83032478Y-90501472D01*
X82881472Y-90652478D01*
X82758977Y-90827421D01*
X82668725Y-91020968D01*
X82666870Y-91026064D01*
X82665031Y-91025394D01*
X82633104Y-91077715D01*
X82570242Y-91108212D01*
X82500870Y-91099883D01*
X82447015Y-91055371D01*
X82433571Y-91025903D01*
X82432658Y-91026236D01*
X82430802Y-91021140D01*
X82340586Y-90827669D01*
X82340582Y-90827663D01*
X82301584Y-90771968D01*
X81677953Y-91395599D01*
X81665165Y-91314852D01*
X81607641Y-91201955D01*
X81518045Y-91112359D01*
X81405148Y-91054835D01*
X81324400Y-91042046D01*
X81948030Y-90418415D01*
X81892329Y-90379413D01*
X81698859Y-90289197D01*
X81698853Y-90289194D01*
X81492662Y-90233945D01*
X81492654Y-90233944D01*
X81280002Y-90215340D01*
X81279998Y-90215340D01*
X81067345Y-90233944D01*
X81067337Y-90233945D01*
X80861146Y-90289194D01*
X80861140Y-90289197D01*
X80667671Y-90379412D01*
X80667669Y-90379413D01*
X80611969Y-90418415D01*
X80611968Y-90418415D01*
X81235600Y-91042046D01*
X81154852Y-91054835D01*
X81041955Y-91112359D01*
X80952359Y-91201955D01*
X80894835Y-91314852D01*
X80882046Y-91395599D01*
X80258415Y-90771968D01*
X80258415Y-90771969D01*
X80219413Y-90827669D01*
X80219412Y-90827671D01*
X80129197Y-91021140D01*
X80129194Y-91021146D01*
X80073945Y-91227337D01*
X80073944Y-91227345D01*
X80055340Y-91439997D01*
X80055340Y-91440002D01*
X43180500Y-91440002D01*
X43180500Y-86484500D01*
X43200185Y-86417461D01*
X43252989Y-86371706D01*
X43304500Y-86360500D01*
X241175500Y-86360500D01*
X241242539Y-86380185D01*
G37*
%TD.AperFunction*%
%TD*%
M02*
