M48
; DRILL file {KiCad 7.0.10} date Fri Sep  5 15:35:05 2025
; FORMAT={-:-/ absolute / inch / decimal}
; #@! TF.CreationDate,2025-09-05T15:35:05+01:00
; #@! TF.GenerationSoftware,Kicad,Pcbnew,7.0.10
; #@! TF.FileFunction,Plated,1,2,PTH
FMAT,2
INCH
; #@! TA.AperFunction,Plated,PTH,ViaDrill
T1C0.0157
; #@! TA.AperFunction,Plated,PTH,ComponentDrill
T2C0.0295
; #@! TA.AperFunction,Plated,PTH,ComponentDrill
T3C0.0315
; #@! TA.AperFunction,Plated,PTH,ComponentDrill
T4C0.0354
; #@! TA.AperFunction,Plated,PTH,ComponentDrill
T5C0.0394
; #@! TA.AperFunction,Plated,PTH,ComponentDrill
T6C0.0433
; #@! TA.AperFunction,Plated,PTH,ComponentDrill
T7C0.0472
; #@! TA.AperFunction,Plated,PTH,ComponentDrill
T8C0.0630
%
G90
G05
T1
X3.1Y-3.9
X3.1Y-4.3
X5.0Y-4.7
X5.2Y-4.3
X6.5Y-4.3
X6.8Y-4.6
X8.3Y-4.7
X9.0Y-3.9
T2
X6.5Y-4.7
X6.5Y-4.75
X6.5Y-4.8
X6.7Y-4.3299
X6.7Y-4.3799
X6.7Y-4.4299
T3
X3.2Y-3.6
X3.2622Y-4.5622
X3.3Y-3.6
X3.4Y-3.6
X3.4Y-4.5622
X5.1Y-4.8299
X5.5Y-4.8299
X6.8Y-3.8
X6.8Y-3.9378
X7.1Y-4.0
X7.1Y-4.4
X7.3Y-4.4
X7.3Y-4.8
X7.6Y-4.6
X7.7Y-4.6
X7.8Y-4.6
X8.6Y-3.9
X8.6Y-4.0
X8.6Y-4.1
X8.6Y-4.4
X8.6Y-4.5
X8.6Y-4.6
T4
X3.6256Y-4.6025
X4.1256Y-4.6025
X8.0256Y-3.6025
X8.5256Y-3.6025
T5
X2.0Y-3.7299
X2.0Y-3.8299
X2.0Y-4.2299
X2.0Y-4.3299
X2.0Y-4.7299
X2.0Y-4.8299
X3.9Y-4.8299
X4.3Y-4.1299
X4.3Y-4.3268
X5.8Y-4.4
X5.9Y-4.4
X6.2Y-3.9299
X6.2Y-4.4
X6.3Y-3.9299
X6.3Y-4.4
X6.9Y-4.8
X7.0Y-4.8
X7.3Y-4.1
X8.1Y-4.0
X8.1Y-4.5
X8.1Y-4.8
X8.2Y-4.8
X8.2969Y-4.0
X8.8Y-3.7
X8.8Y-4.8
T6
X3.1992Y-4.1756
X3.2661Y-4.0299
X3.3331Y-4.1756
X3.4Y-4.0299
X3.4669Y-4.1756
X4.3Y-4.8299
X4.7Y-4.8299
X5.7Y-4.8299
X6.2Y-4.8299
X7.5543Y-3.9661
X7.5543Y-4.1
X7.5543Y-4.2339
X7.7Y-4.0331
X7.7Y-4.1669
X8.88Y-4.0456
X8.88Y-4.1456
X8.88Y-4.2456
X8.88Y-4.3456
T7
X4.8Y-4.1299
X4.8Y-4.315
X4.8Y-4.5
X4.989Y-4.1299
X4.989Y-4.315
X4.989Y-4.5
X5.8Y-3.715
X5.8Y-3.9
T8
X2.3Y-3.9299
X2.3Y-4.3299
X2.3Y-4.7299
X2.9Y-3.9299
X2.9Y-4.3299
X2.9Y-4.7299
X3.8Y-3.7299
X3.8Y-4.3299
X4.2Y-3.7299
X4.8Y-3.7299
X5.4Y-3.9299
X5.4Y-4.5299
X7.1Y-3.6
X7.7Y-3.6
M30
